<svg width="214.6314" height="538.77721" viewBox="0 0 56.78789 142.55147" xmlns="http://www.w3.org/2000/svg"><defs><clipPath clipPathUnits="userSpaceOnUse" id="a"><path d="M59.528 93.625h68.031v129.869H59.528Z" transform="translate(-107.6955 -96.8651)"/></clipPath><clipPath clipPathUnits="userSpaceOnUse" id="b"><path d="M59.528 93.625h68.031v129.869H59.528Z" transform="translate(-107.6955 -100.10511)"/></clipPath><clipPath clipPathUnits="userSpaceOnUse" id="c"><path d="M59.528 93.625h68.031v129.869H59.528Z" transform="translate(-95.8693 -126.24111)"/></clipPath><clipPath clipPathUnits="userSpaceOnUse" id="d"><path d="M59.528 93.625h68.031v129.869H59.528Z" transform="translate(-100.2433 -124.99911)"/></clipPath><clipPath clipPathUnits="userSpaceOnUse" id="e"><path d="M59.528 93.625h68.031v129.869H59.528Z" transform="translate(-100.9993 -124.99911)"/></clipPath><clipPath clipPathUnits="userSpaceOnUse" id="f"><path d="M59.528 93.625h68.031v129.869H59.528Z" transform="translate(-100.9993 -124.99911)"/></clipPath><clipPath clipPathUnits="userSpaceOnUse" id="g"><path d="M59.528 93.625h68.031v129.869H59.528Z" transform="translate(-95.8693 -126.24111)"/></clipPath></defs><g transform="translate(-80.16875 -32.80833)"><path fill="#f0f1f3" stroke="#000" stroke-width=".656" stroke-linecap="round" d="M80.49675 33.13633h56.13189v133.63699H80.49675z"/><path d="m136.30997 149.29561-.13539.2708m0 0-.20292.0679m-54.70095 0h54.70095m-55.03944-.33868.1354.2708m0 0 .20292.0679M136.30997 50.79319l-.13539-.2031m0 0-.20292-.0677m0 0H81.27071m-.33831.2708.13539-.2031m0 0 .20292-.0677M87.63401 74.01414h41.9735" fill="none" stroke="#000" stroke-width=".40619" stroke-linecap="round" stroke-linejoin="round" stroke-miterlimit="10"/><path d="M86.34773 72.72785h44.54606" fill="none" stroke="#000" stroke-width=".2031" stroke-linecap="round" stroke-linejoin="round" stroke-miterlimit="10"/><path d="M129.60776 74.01414v36.76065" fill="none" stroke="#000" stroke-width=".40619" stroke-linecap="round" stroke-linejoin="round" stroke-miterlimit="10"/><path d="M130.89404 72.72785v39.33323" fill="none" stroke="#000" stroke-width=".2031" stroke-linecap="round" stroke-linejoin="round" stroke-miterlimit="10"/><path d="M87.63401 110.77479V74.01414" fill="none" stroke="#000" stroke-width=".40619" stroke-linecap="round" stroke-linejoin="round" stroke-miterlimit="10"/><path d="M86.34773 112.06108V72.72786" fill="none" stroke="#000" stroke-width=".2031" stroke-linecap="round" stroke-linejoin="round" stroke-miterlimit="10"/><path d="M87.63401 110.77479h41.9735" fill="none" stroke="#000" stroke-width=".40619" stroke-linecap="round" stroke-linejoin="round" stroke-miterlimit="10"/><path d="M86.34773 112.06108h44.54606M87.63401 74.01414l-1.28628-1.28628m43.25978 1.28628 1.28628-1.28628m-1.28628 38.04693 1.28628 1.28629m-43.25978-1.28629-1.28628 1.28629" fill="none" stroke="#000" stroke-width=".2031" stroke-linecap="round" stroke-linejoin="round" stroke-miterlimit="10"/><path d="m136.30997 64.40073-.13539-.2031m0 0-.20292-.1354m.33831 71.69344-.13539.20327m0 0-.20292.0675m-54.70095 0-.20292-.0675m0 0-.13539-.20327m55.03908-71.69344H81.27054m0 0-.20292.1354m0 0-.1354.2031" fill="none" stroke="#000" stroke-width=".40619" stroke-linecap="round" stroke-linejoin="round" stroke-miterlimit="10"/><path d="m0 0-.162-.54m0 0-.324-.378m0 0-.54-.108m0 0h-1.566m0 0L-5.076-2.43m0 0-.756-.324m0 0-.81-.162m0 0h-.864m0 0-.864.162m0 0-.756.378m0 0-2.43 1.35m0 0h-1.566m0 0-.54.108m0 0-.378.378m0 0-.108.54" transform="matrix(1.25369 0 0 -1.25369 117.4896 171.29785)" clip-path="url(#a)" fill="none" stroke="#000" stroke-width=".648" stroke-linecap="round" stroke-linejoin="round" stroke-miterlimit="10"/><path d="M114.24004 168.58988h-2.23407m-5.88983-1.35398-.5416.60929m0 0-.33831.74469m6.76991 0-.33867-.67699m0 0-.47389-.60929m-5.95753 1.28628h-2.23407m0 0v2.36947m0 0h2.23407m0 0 .40619.88009m0 0 .677.74469m0 0 .88008.4739m0 0 .94779.27079m0 0h.94779m0 0 .94779-.27079m0 0 .81239-.4739m0 0 .67699-.74469m0 0 .4739-.88009m0 0h2.23407m0 0v-2.36947" fill="none" stroke="#000" stroke-width=".40619" stroke-linecap="round" stroke-linejoin="round" stroke-miterlimit="10"/><path d="M0 0v-3.24M-14.148 0v-3.24" transform="matrix(1.25369 0 0 -1.25369 117.4896 167.2359)" clip-path="url(#b)" fill="none" stroke="#000" stroke-width=".648" stroke-linecap="round" stroke-linejoin="round" stroke-miterlimit="10"/><path d="M135.02369 63.79143v-9.00399m-33.5788 9.00399v-9.00399m.2708-.2708-.20292.0677m0 0-.0679.2031m33.5788 0-.1354-.2031m0 0-.20327-.0677m.33867 9.27479-.1354.2031m0 0-.20327.0677m-32.96951 0-.20292-.0677m0 0-.0679-.2031m33.2403-9.27479h-32.96933" fill="none" stroke="#000" stroke-width=".40619" stroke-linecap="round" stroke-linejoin="round" stroke-miterlimit="10"/><path d="m110.99023 54.78744.1354-.2031m0 0 .20292-.0677m-7.04072 0 .20292.0677m0 0 .1354.2031m20.44516-.2708.27079.0677m0 0 .0675.2031m6.70222-.2708-.20327.0677m0 0-.1354.2031m-27.14737.67699v-.67699m.94778 1.62478h4.46815m.94779-.9478v-.67698m14.41993.67699v-.67699m.94778 1.62478h4.46815m.94779-.9478v-.67698m-26.19959 1.62478-.47389-.1354m0 0-.33867-.3385m0 0-.1354-.4739m5.41593.9478.4739-.1354m0 0 .33867-.3385m0 0 .1354-.4739m15.36771.9478-.47389-.1354m0 0-.33867-.3385m0 0-.1354-.4739m5.41593.9478.4739-.1354m0 0 .33832-.3385m0 0 .13539-.4739" fill="none" stroke="#000" stroke-width=".2031" stroke-linecap="round" stroke-linejoin="round" stroke-miterlimit="10"/><path d="m107.80837 158.02881-.1354.94779m0 0-.40619.88009m0 0-.6093.74469m0 0-.81239.47389m0 0-.88009.2708m0 0h-1.01548m0 0-.88009-.2708m0 0-.81239-.47389m0 0-.6093-.74469m0 0-.40619-.88009m0 0-.1354-.94779m0 0 .1354-.94779m0 0 .40619-.88009m0 0 .6093-.67699m0 0 .81239-.5416m0 0 .88009-.27079m0 0h1.01548m0 0 .88009.27079m0 0 .81239.5416m0 0 .6093.67699m0 0 .40619.88009m0 0 .1354.94779m-8.327 0-.1354.94779m0 0-.40619.88009m0 0-.6093.74469m0 0-.81239.47389m0 0-.88009.2708m0 0h-.94779m0 0-.94778-.2708m0 0-.81239-.47389m0 0-.6093-.74469m0 0-.40619-.88009m0 0-.1354-.94779m0 0 .1354-.94779m0 0 .40619-.88009m0 0 .6093-.67699m0 0 .81239-.5416m0 0 .94778-.27079m0 0h.94779m0 0 .88009.27079m0 0 .81239.5416m0 0 .6093.67699m0 0 .40619.88009m0 0 .1354.94779m-8.327 0-.1354.94779m0 0-.33867.88009m0 0-.67699.74469m0 0-.8124.47389m0 0-.88008.2708m0 0h-.94779m0 0-.94779-.2708m0 0-.81239-.47389m0 0-.60929-.74469m0 0-.4062-.88009m0 0-.1354-.94779m0 0 .1354-.94779m0 0 .4062-.88009m0 0 .60929-.67699m0 0 .81239-.5416m0 0 .94779-.27079m0 0h.94779m0 0 .88008.27079m0 0 .8124.5416m0 0 .67699.67699m0 0 .33867.88009m0 0 .1354.94779m8.327-115.901-.1354.88009m0 0-.40619.88009m0 0-.6093.74469m0 0-.81239.54159m0 0-.88009.2708m0 0h-.94779m0 0-.94778-.2708m0 0-.81239-.5416m0 0-.6093-.74468m0 0-.40619-.8801m0 0-.1354-.88008m0 0 .1354-.9478m0 0 .40619-.88008m0 0 .6093-.7447m0 0 .81239-.54159m0 0 .94778-.2708m0 0h.94779m0 0 .88009.2708m0 0 .81239.5416m0 0 .6093.74469m0 0 .40619.88009m0 0 .1354.94779m-8.327 0-.1354.88009m0 0-.33867.88009m0 0-.67699.74469m0 0-.8124.54159m0 0-.88008.2708m0 0h-.94779m0 0-.94779-.2708m0 0-.81239-.5416m0 0-.60929-.74468m0 0-.4062-.8801m0 0-.1354-.88008m0 0 .1354-.9478m0 0 .4062-.88008m0 0 .60929-.7447m0 0 .81239-.54159m0 0 .94779-.2708m0 0h.94779m0 0 .88008.2708m0 0 .8124.5416m0 0 .67699.74469m0 0 .33867.88009m0 0 .1354.94779" fill="none" stroke="#000" stroke-width=".40619" stroke-linecap="round" stroke-linejoin="round" stroke-miterlimit="10"/><path d="m96.7057 41.1799.33832.2031m0 1.42168-.33832.2031m-1.28628 0-.33832-.2031m0-1.42168.33832-.2031m.0679.3385.20292-.3385m.7447 0 .20292.3385m0 0 .33867.2031m0 .74469-.33867.2031m0 0-.20292.3385m-.7447 0-.20292-.3385m0 0-.33867-.2031m0-.7447.33867-.20309m1.55709-.1354h1.42168m0 1.42168h-1.42168m-.0675-1.08318.1354.4062m0 0-.1354.33849m-1.82787-.7447-.0675.4062m0 0 .0675.3385m-1.48939.3385h1.42169m0-1.42169h-1.42169m2.03098-.2031.40619-.0677m0 0 .33868.0677m-.74469 1.82788.40619.1354m0 0 .33868-.1354m2.03097-1.62478.0675.7447m0 0-.0675.67698m0 0-1.48938-.3385m0-.74468 1.48938-.3385m-1.82788-1.01549-.20292.8124m-.74469 0-.20292-.8124m.94779 2.64027.20292.8124m-1.15088 0 .20292-.8124m-2.03098-.2031-.0675-.67699m0 0 .0675-.74469m1.48938 1.08319-1.48938.3385m0-1.42169 1.48938.3385m.33868 2.09867.60929.0677m0 0 .54159-.0677m.0679-4.87434v-.1354m-1.28629 6.43143v.1354m1.21859-5.00975-.54159-.0677m0 0-.6093.0677m1.21859 4.87435v-2.23408m-1.28629-4.06195v2.23407m1.28629 0v-2.23407m-1.28629-.1354v.1354m1.28629 6.43142v-.1354m-1.28629-2.23407v2.23408m-7.04071-4.06196.40619.2031m0 1.42168-.40619.2031m-1.28629 0-.33867-.2031m0-1.42168.33867-.2031m.0675.3385.20327-.3385m.81239 0 .1354.3385m0 0 .40619.2031m0 .74469-.40619.2031m0 0-.1354.3385m-.81239 0-.20327-.3385m0 0-.33832-.2031m0-.7447.33832-.20309m1.62478-.1354h1.35398m0 1.42168h-1.35398m-.0675-1.08318.0675.4062m0 0-.0675.33849m-1.89557-.7447-.0679.4062m0 0 .0679.3385m-1.42169.3385h1.35399m0-1.42169h-1.35399m1.96328-.2031.4062-.0677m0 0 .40619.0677m-.81239 1.82788.4062.1354m0 0 .40619-.1354m1.96328-1.62478.1354.7447m0 0-.1354.67698m0 0-1.42169-.3385m0-.74468 1.42169-.3385m-1.82788-1.01549-.1354.8124m-.81239 0-.20327-.8124m1.01548 2.64027.1354.8124m-1.15088 0 .20327-.8124m-1.96328-.2031-.13539-.67699m0 0 .13539-.74469m1.42169 1.08319-1.42169.3385m0-1.42169 1.42169.3385m.33832 2.09867.60929.0677m0 0 .54159-.0677m.0675-4.87434v-.1354m-1.28628 6.43143v.1354m1.21858-5.00975-.54159-.0677m0 0-.60929.0677m1.21858 4.87435v-2.23408m-1.28628-4.06195v2.23407m1.28628 0v-2.23407m-1.28628-.1354v.1354m1.28628 6.43142v-.1354m-1.28628-2.23407v2.23408m17.94028 111.90675.33868.1354m0 1.48938-.33868.1354m-1.28628 0-.33868-.1354m0-1.48938.33868-.1354m.0675.33832.1354-.40619m.81239 0 .20327.40619m0 0 .33832.1354m0 .81239-.33832.1354m0 0-.20327.40619m-.81239 0-.1354-.40619m0 0-.33832-.1354m0-.81239.33832-.1354m1.55708-.20292h1.42168m0 1.48938h-1.42168m-.0679-1.15088.0679.40619m0 0-.0679.4062m-1.82787-.81239-.1354.40619m0 0 .1354.4062m-1.48939.33867h1.42169m0-1.48938h-1.42169m1.96328-.20328.4062-.0675m0 0 .40619.0675m-.81239 1.89558.4062.0679m0 0 .40619-.0679m2.03098-1.69248.0679.74469m0 0-.0679.74469m0 0-1.48939-.33867m0-.81239 1.48939-.33832m-1.82788-.94779-.20328.74469m-.81239 0-.1354-.74469m.94779 2.64027.20328.74469m-1.15089 0 .1354-.74469m-1.96328-.20292-.0679-.74469m0 0 .0679-.74469m1.48939 1.15088-1.48939.33868m0-1.48938 1.48939.33831m.33831 2.09868.5416.1354m0 0 .60929-.1354m.0675-4.80664v-.1354m-1.28628 6.36372v.1354m1.21858-4.94204-.60929-.0679m0 0-.54159.0679m1.21858 4.80664v-2.23407m-1.28628-3.99425v2.23407m1.28628 0v-2.23407m-1.28628-.1354v.1354m1.28628 6.43142v-.20328m-1.28628-2.23407v2.23407m-7.04072-3.99425.33832.1354m0 1.48938-.33832.1354m-1.28628 0-.33832-.1354m0-1.48938.33832-.1354m.0679.33832.20292-.40619m.7447 0 .20292.40619m0 0 .33867.1354m0 .81239-.33867.1354m0 0-.20292.40619m-.7447 0-.20292-.40619m0 0-.33867-.1354m0-.81239.33867-.1354m1.55709-.20292h1.42168m0 1.48938h-1.42168m-.0675-1.15088.1354.40619m0 0-.1354.4062m-1.82787-.81239-.0675.40619m0 0 .0675.4062m-1.48939.33867h1.42169m0-1.48938h-1.42169m2.03098-.20328.40619-.0675m0 0 .33868.0675m-.74469 1.89558.40619.0679m0 0 .33868-.0679m2.03097-1.69248.0675.74469m0 0-.0675.74469m0 0-1.48938-.33867m0-.81239 1.48938-.33832m-1.82788-.94779-.20292.74469m-.74469 0-.20292-.74469m.94779 2.64027.20292.74469m-1.15088 0 .20292-.74469m-2.03098-.20292-.0675-.74469m0 0 .0675-.74469m1.48938 1.15088-1.48938.33868m0-1.48938 1.48938.33831m.33868 2.09868.60929.1354m0 0 .54159-.1354m.0679-4.80664v-.1354m-1.28629 6.36372v.1354m1.21859-4.94204-.54159-.0679m0 0-.6093.0679m1.21859 4.80664v-2.23407m-1.28629-3.99425v2.23407m1.28629 0v-2.23407m-1.28629-.1354v.1354m1.28629 6.43142v-.20328m-1.28629-2.23407v2.23407m-7.04071-3.99425.40619.1354m0 1.48938-.40619.1354m-1.28629 0-.33867-.1354m0-1.48938.33867-.1354m.0675.33832.20327-.40619m.81239 0 .1354.40619m0 0 .40619.1354m0 .81239-.40619.1354M88.311 158.5704l-.1354.4062m-.81239 0-.20327-.4062m0 0-.33832-.1354m0-.81239.33832-.1354m1.62478-.20327h1.35398m0 1.48938h-1.35398m-.0675-1.15088.0675.40619m0 0-.0675.4062m-1.89558-.81239-.0679.40619m0 0 .0679.4062m-1.42168.33831h1.35398m0-1.48938h-1.35398m1.96327-.20292.4062-.0679m0 0 .40619.0679m-.81239 1.89558.4062.0675m0 0 .40619-.0675m1.96328-1.69248.1354.74469m0 0-.1354.74469m0 0-1.42168-.33832m0-.81239 1.42168-.33867m-1.82788-.94779-.1354.74469m-.81239 0-.20327-.74469m1.01549 2.64027.1354.74469m-1.15089 0 .20327-.74469m-1.96327-.20328-.1354-.74469m0 0 .1354-.74469m1.42168 1.15089-1.42168.33832m0-1.48939 1.42168.33868m.33832 2.09867.60929.1354m0 0 .5416-.1354m.0675-4.80664v-.1354m-1.28629 6.36373v.13539m1.21859-4.94204-.5416-.0675m0 0-.60929.0675m1.21859 4.80665v-2.23408m-1.28629-3.99425v2.23407m1.28629 0v-2.23407m-1.28629-.1354v.1354m1.28629 6.43142v-.20292m-1.28629-2.23407v2.23407" fill="none" stroke="#000" stroke-width=".2031" stroke-linecap="round" stroke-linejoin="round" stroke-miterlimit="10"/><path d="m0 0 .108-.162m0 0L.216-.27m0 0 .108-.108m0 0 .108-.108m0 0 .216-.108m0 0 .216-.162m0 0 .162-.054m0 0 .162-.108m0 0 .432-.108m0 0 .378-.108m0 0 .378-.054m0 0 .378-.054m0 0h.432m0 0h.378m0 0h.378m0 0h.432" transform="matrix(1.25369 0 0 -1.25369 102.66323 134.46949)" clip-path="url(#c)" fill="none" stroke="#000" stroke-width=".162" stroke-linecap="round" stroke-linejoin="round" stroke-miterlimit="10"/><path d="M0 0h.756" transform="matrix(1.25369 0 0 -1.25369 108.14686 136.02657)" clip-path="url(#d)" fill="none" stroke="#000" stroke-width=".324" stroke-linecap="round" stroke-linejoin="round" stroke-miterlimit="10"/><path d="M0 0h.432m0 0h.432m0 0h.432m0 0 .432.054m0 0 .432.054m0 0 .378.054m0 0 .324.054m0 0 .324.162m0 0 .162.054m0 0 .162.054m0 0 .216.162m0 0 .216.162m0 0 .108.054m0 0 .108.108m0 0 .108.162m0 0 .108.108" transform="matrix(1.25369 0 0 -1.25369 109.09465 136.02657)" clip-path="url(#e)" fill="none" stroke="#000" stroke-width=".162" stroke-linecap="round" stroke-linejoin="round" stroke-miterlimit="10"/><path d="M0 0h21.438m-43.632 0H-.756" transform="matrix(1.25369 0 0 -1.25369 109.09465 136.02657)" clip-path="url(#f)" fill="none" stroke="#000" stroke-width=".324" stroke-linecap="round" stroke-linejoin="round" stroke-miterlimit="10"/><path d="m0 0-.972.918m0 0-.81.972m0 0-.648 1.188m0 0-.432 1.188m0 0-.216 1.296m0 0v1.296m0 0 .216 1.296m0 0 .378 1.242m0 0 .648 1.134m0 0 .756 1.026m0 0 .972.918m0 0 1.08.702m0 0 1.188.54m0 0 1.296.324m0 0 1.296.108m0 0 1.296-.108m0 0 1.242-.324m0 0 1.188-.54m0 0 1.134-.702m0 0 .918-.918m0 0 .81-1.026m0 0 .594-1.134m0 0 .432-1.242m0 0 .216-1.296m0 0V5.562m0 0-.216-1.296m0 0-.432-1.188m0 0-.648-1.188m0 0-.81-.972m0 0L9.504 0" transform="matrix(1.25369 0 0 -1.25369 102.66323 134.46949)" clip-path="url(#g)" fill="none" stroke="#000" stroke-width=".162" stroke-linecap="round" stroke-linejoin="round" stroke-miterlimit="10"/><path opacity=".5" fill="#8c9d97" d="M87.85154 74.12595h41.74424v36.55452H87.85154z"/><path d="M107.60636 120.19635c-.58172 0-1.05007.27401-1.05007.61444v3.6127l-3.61269-.0119c-.34043-.001-.61609.46577-.61805 1.04748l-.007 2.04329c-.002.58171.27039 1.05098.61081 1.05213l3.62665.0124v3.62665c0 .34043.46835.61444 1.05007.61444h2.04329c.58171 0 1.05006-.27401 1.05006-.61444v-3.6127l3.6127.0124c.34042.001.61609-.46629.61805-1.048l.007-2.04329c.002-.58171-.2704-1.05098-.61082-1.05213l-3.62665-.0124v-3.62665c0-.34043-.46835-.61444-1.05006-.61444z" fill="#2ba1eb" stroke="#2fa4ef" stroke-width=".656" stroke-linecap="round"/><circle cx="108.58891" cy="126.40972" r="2.22408" fill="#127ec1" stroke="#9cd5f8" stroke-width=".656" stroke-linecap="round"/></g></svg>