<svg width="111.56271" height="499.40387" viewBox="0 0 29.51763 132.13394" xmlns:xlink="http://www.w3.org/1999/xlink" xmlns="http://www.w3.org/2000/svg"><defs><linearGradient xlink:href="#a" id="b" x1="432.21811" y1="-96.0106" x2="444.91492" y2="-95.76736" gradientUnits="userSpaceOnUse" gradientTransform="translate(-304.01954 -48.8444)"/><linearGradient id="a"><stop offset="0" stop-color="#3f403c"/><stop offset=".1333" stop-color="#343433"/><stop offset=".86205" stop-color="#333633"/><stop offset="1" stop-color="#a1988f" stop-opacity="0"/></linearGradient><mask maskUnits="userSpaceOnUse" id="c"><path d="M82.44372 133.52496c0 1.62019-1.31342 2.93362-2.93362 2.93362-1.62019 0-2.93361-1.31343-2.93361-2.93362 0-1.62019 1.31342-2.93362 2.93361-2.93362 1.6202 0 2.93363 1.31343 2.93362 2.93362z" fill="#ececec" stroke-width=".40208"/></mask></defs><g transform="translate(-133.08542 -32.54374)"><rect width="29.51763" height="131.80789" x="133.08542" y="32.54374" rx="14.75882" ry="4.59701" fill="#4b4b4b"/><rect width="22.24005" height="112.97062" x="136.47388" y="44.87204" ry="8.93908" rx="8.93908"/><rect width="17.87817" height="118.47494" x="138.7187" y="46.20273" ry="8.93908" rx="8.93908" fill="#28282a"/><circle cx="134.51947" cy="-144.855" r="6.87691" transform="rotate(88.707)"/><circle cx="134.51947" cy="-144.855" r="6.32089" transform="rotate(88.707)" fill="url(#b)" stroke="#878787" stroke-width=".32279"/><path mask="url(#c)" transform="rotate(88.707 114.55878 167.50949)" d="M81.14325 129.50256h.4839c.92151 0 1.66339.74188 1.66339 1.66339v5.26237c0 .92152-.74188 1.66339-1.6634 1.66339h-.48389c-.92152 0-1.6634-.74187-1.6634-1.66339v-5.26237c0-.92151.74188-1.66339 1.6634-1.66339z" fill="#b4ac9b"/><path d="m151.98942 129.48941.056 2.47932-8.82885.19929-.056-2.47933z" fill="#474640" stroke="#999" stroke-width=".15942"/></g></svg>