<svg width="111.56271" height="499.40394" viewBox="0 0 29.51763 132.13396" xmlns="http://www.w3.org/2000/svg"><defs><mask maskUnits="userSpaceOnUse" id="a"><path d="M82.44372 133.52496c0 1.62019-1.31342 2.93362-2.93362 2.93362-1.62019 0-2.93361-1.31343-2.93361-2.93362 0-1.62019 1.31342-2.93362 2.93361-2.93362 1.6202 0 2.93363 1.31343 2.93362 2.93362z" fill="#ececec" stroke-width=".40208"/></mask></defs><g transform="translate(-116.41666 -21.43125)"><rect width="29.51763" height="131.80789" x="116.41666" y="21.43125" rx="14.75882" ry="4.59701" fill="#4b4b4b"/><rect width="22.24005" height="112.97062" x="119.80512" y="33.75956" ry="8.93908" rx="8.93908"/><rect width="17.87817" height="118.47494" x="122.04996" y="35.09027" ry="8.93908" rx="8.93908" fill="#28282a"/><circle cx="131.185" cy="124.03878" r="6.87691"/><circle cx="131.185" cy="124.03878" r="6.32089" fill="#a1988f"/><rect width="3.81068" height="8.58915" x="79.47986" y="129.50256" ry="1.66339" rx="1.66339" mask="url(#a)" transform="translate(52.15876 -9.36521)" fill="#e6e6e6"/><path d="M129.55182 119.86518h2.47996v8.8311h-2.47996z" fill="#827872"/></g></svg>