<svg width="141.06657" height="203.41985" viewBox="0 0 37.32386 53.8215" xmlns="http://www.w3.org/2000/svg"><g transform="matrix(2 0 0 2 -221.72083 -203.72916)"><rect width="18.39735" height="26.64617" x="110.99271" y="101.99687" ry="0" fill="#fff" stroke="#000" stroke-width=".26458"/><g transform="translate(60.26661 12.4777)" fill="#fff" stroke="#000"><path stroke-width=".10464" d="M50.74855 89.5207H69.0761v2.96386H50.74855Z"/><path opacity=".73" fill="#ccc" stroke-width=".065" d="M64.26739 89.5207h3.81068v2.96386h-3.81068z"/><circle cx="66.23322" cy="91.18408" r="1.20974" stroke-width=".26458"/><path opacity=".73" fill="#ccc" stroke-width=".065" d="M51.98853 89.5207h3.81068v2.96386h-3.81068z"/><circle cx="53.89388" cy="91.18408" r="1.20974" stroke-width=".26458"/><path d="m59.57964 94.52333-1.51721 1.78096-2.33216.1865-1.78096-1.51722-.1865-2.33215 1.51722-1.78096 2.33215-.1865 1.78096 1.51722z" transform="matrix(.22922 .01828 -.01811 .22902 42.59882 68.71584)" stroke-width=".37648"/><path opacity=".73" fill="#ccc" stroke-width=".065" d="M58.12796 89.5207h3.81068v2.96386h-3.81068z"/><circle cx="59.97281" cy="91.18408" r="1.20974" stroke-width=".26458"/><path d="m59.57964 94.52333-1.51721 1.78096-2.33216.1865-1.78096-1.51722-.1865-2.33215 1.51722-1.78096 2.33215-.1865 1.78096 1.51722z" transform="matrix(.22922 .01828 -.01811 .22902 48.67776 68.71584)" stroke-width=".37648"/><path d="m59.57964 94.52333-1.51721 1.78096-2.33216.1865-1.78096-1.51722-.1865-2.33215 1.51722-1.78096 2.33215-.1865 1.78096 1.51722z" transform="matrix(.22922 .01828 -.01811 .22902 54.93817 68.71584)" stroke-width=".37648"/></g><rect width="18.41713" height="9.44635" x="111.00042" y="110.68231" ry="0" fill="#fff" stroke="#000" stroke-width=".16778"/><rect width="4.5337" height="8.42583" x="123.48176" y="111.23534" ry=".385" fill="#f9f9f9" stroke="#1a1a1a" stroke-width=".08572"/><rect width="4.5337" height="8.42583" x="112.57522" y="111.23534" ry=".385" fill="#f9f9f9" stroke="#1a1a1a" stroke-width=".08572"/><path fill="#fff" stroke="#000" stroke-width=".08572" d="M118.00141 110.70852h4.44579v9.37548h-4.44579z"/><path fill="#fff" stroke="#000" stroke-width=".165" d="M118.82529 112.63319h3.00138v.30808h-3.00138zm0 .31757h3.00138v.54625h-3.00138zm0 .55573h3.00138v.53113h-3.00138z"/><path fill="#1a1a1a" stroke="#000" stroke-width=".165" d="M118.82529 114.03953h3.00138v.41393h-3.00138z"/><path fill="#fff" stroke="#000" stroke-width=".165" d="M118.82529 114.45537h3.00138v1.70306h-3.00138z"/><path fill="red" stroke="#000" stroke-width=".165" d="M118.82529 116.16085h3.00138v.97596h-3.00138z"/><path fill="#fff" stroke="#000" stroke-width=".165" d="M118.82529 117.14458h3.00138v.90646h-3.00138z"/><text xml:space="preserve" style="-inkscape-font-specification:Arial;text-align:start" x="119.38811" y="116.92442" font-weight="400" font-size=".83939" font-family="Arial" fill="#f9f9f9" stroke="#f9f9f9" stroke-width=".02454"><tspan style="-inkscape-font-specification:Arial" x="119.38811" y="116.92442">ON</tspan></text><path fill="#fff" stroke="#000" stroke-width=".10464" d="M111.01517 128.70908h18.32755v-2.96386h-18.32755z"/><path opacity=".73" fill="#ccc" stroke="#000" stroke-width=".065" d="M124.534 128.70908h3.81068v-2.96386H124.534Z"/><circle cx="126.49983" cy="-127.0457" r="1.20974" transform="scale(1 -1)" fill="#fff" stroke="#000" stroke-width=".26458"/><path opacity=".73" fill="#ccc" stroke="#000" stroke-width=".065" d="M112.25515 128.70908h3.81068v-2.96386h-3.81068z"/><circle cx="114.16049" cy="-127.0457" r="1.20974" transform="scale(1 -1)" fill="#fff" stroke="#000" stroke-width=".26458"/><path d="m59.57964 94.52333-1.51721 1.78096-2.33216.1865-1.78096-1.51722-.1865-2.33215 1.51722-1.78096 2.33215-.1865 1.78096 1.51722z" transform="matrix(.22922 -.01828 -.01811 -.22902 102.86544 149.51394)" fill="#fff" stroke="#000" stroke-width=".37648"/><path opacity=".73" fill="#ccc" stroke="#000" stroke-width=".065" d="M118.39458 128.70908h3.81068v-2.96386h-3.81068z"/><circle cx="120.23943" cy="-127.0457" r="1.20974" transform="scale(1 -1)" fill="#fff" stroke="#000" stroke-width=".26458"/><path d="m59.57964 94.52333-1.51721 1.78096-2.33216.1865-1.78096-1.51722-.1865-2.33215 1.51722-1.78096 2.33215-.1865 1.78096 1.51722z" transform="matrix(.22922 -.01828 -.01811 -.22902 108.94438 149.51394)" fill="#fff" stroke="#000" stroke-width=".37648"/><path d="m59.57964 94.52333-1.51721 1.78096-2.33216.1865-1.78096-1.51722-.1865-2.33215 1.51722-1.78096 2.33215-.1865 1.78096 1.51722z" transform="matrix(.22922 -.01828 -.01811 -.22902 115.20478 149.51394)" fill="#fff" stroke="#000" stroke-width=".37648"/><path style="-inkscape-font-specification:'Arial Bold'" d="M113.13513 107.69318v-2.02021h.4079v2.02021zm.69316-.65733.39687-.0386q.0358.19981.14469.29352.11025.0937.29628.0937.19706 0 .29628-.0827.1006-.0841.1006-.19568 0-.0717-.0427-.12126-.0413-.051-.14607-.0882-.0717-.0248-.3266-.0882-.32797-.0813-.46026-.19982-.18604-.16674-.18604-.40652 0-.15434.0868-.28801.0882-.13505.25218-.20533.16536-.0703.39825-.0703.38034 0 .57189.16675.19292.16674.20257.4451l-.4079.0179q-.0262-.15572-.113-.22325-.0854-.0689-.25769-.0689-.17777 0-.27837.073-.0648.0468-.0648.1254 0 .0717.0606.12264.0772.0648.37483.13505.29765.0703.43959.14607.14332.0744.22324.20533.0813.12954.0813.32108 0 .17364-.0965.32522-.0965.15159-.27285.226-.17639.073-.43959.073-.3831 0-.58842-.17639-.20533-.17777-.24529-.51677zm1.90306-.34037q0-.30868.0923-.51814.0689-.15434.18742-.27699.11989-.12265.26182-.1819.18879-.0799.43546-.0799.44649 0 .71383.27699.26871.27698.26871.77032 0 .4892-.26596.76619-.26596.27561-.71106.27561-.45062 0-.71658-.27423-.26597-.27561-.26597-.75792zm.42031-.0138q0 .34313.15847.5209.15847.17638.40239.17638.24391 0 .39963-.17501.15709-.17639.15709-.52779 0-.34726-.15296-.51814-.15158-.17087-.40376-.17087t-.40652.17363q-.15434.17225-.15434.5209zm1.86861 1.01148v-2.00367h.4079v1.66329h1.01424v.34038zm3.53467 0h-.44373l-.17639-.45889h-.80753l-.16674.45889h-.4327l.78686-2.02021h.43132zm-.75103-.79927-.27836-.74965-.27286.74965zm1.21267.79927v-1.67845h-.59944v-.34176h1.60541v.34176h-.59807v1.67845zm1.1355-.9977q0-.30868.0923-.51814.0689-.15434.18742-.27699.11989-.12265.26182-.1819.18879-.0799.43546-.0799.44649 0 .71383.27699.26871.27698.26871.77032 0 .4892-.26596.76619-.26596.27561-.71107.27561-.45061 0-.71657-.27423-.26597-.27561-.26597-.75792zm.42031-.0138q0 .34313.15847.5209.15847.17638.40239.17638.24391 0 .39963-.17501.15709-.17639.15709-.52779 0-.34726-.15296-.51814-.15158-.17087-.40376-.17087t-.40652.17363q-.15434.17225-.15434.5209zm1.85897 1.01148v-2.02021h.85852q.32383 0 .46991.0551.14745.0537.23564.19292.0882.13918.0882.31833 0 .22737-.13367.3762-.13366.14745-.39963.18604.1323.0772.21773.16949.0868.0923.23289.32798l.24667.39412h-.48782l-.2949-.4396q-.1571-.23564-.21498-.29628-.0579-.062-.12264-.0841-.0648-.0234-.20533-.0234h-.0827v.84336zm.4079-1.16582h.30179q.29352 0 .36655-.0248.073-.0248.11438-.0854.0413-.0606.0413-.15158 0-.10197-.0551-.16399-.0537-.0634-.15296-.0799-.0496-.007-.29766-.007h-.31832z" aria-label="ISOLATOR" font-weight="700" font-size="2.82222" font-family="Arial" fill="#1a1a1a" stroke="#000" stroke-width=".04286"/><path style="-inkscape-font-specification:'Arial Bold'" d="M118.68326 109.67587v.26435h-.99765q.0162-.1499.0972-.28359.081-.13471.32006-.35652.19244-.17928.23599-.24308.0587-.0881.0587-.17421 0-.0952-.0517-.14585-.0506-.0517-.14078-.0517-.0891 0-.1418.0537-.0527.0537-.0608.17826l-.28359-.0284q.0253-.23498.15901-.33727.1337-.1023.33424-.1023.21979 0 .34538.1185.12559.11851.12559.29474 0 .10027-.0365.19143-.0354.0901-.11344.1894-.0516.0658-.18636.1894-.13471.12357-.17117.16408-.0355.0405-.0577.079zm.19649-.11749.2836-.0294q.0122.0962.0719.15294.0598.0557.13775.0557.0891 0 .15091-.0719.0618-.0729.0618-.21877 0-.13673-.0618-.20459-.0608-.0689-.15902-.0689-.12255 0-.21978.10838l-.23093-.0334.14585-.7728h.75254v.26638h-.53681l-.0446.2522q.0952-.0476.19446-.0476.18941 0 .32107.13774.13167.13775.13167.35754 0 .18332-.10634.32714-.14484.19649-.4021.19649-.20561 0-.33525-.1104-.12965-.11039-.15497-.29676zm1.63068-1.10906q.21573 0 .33727.15395.14484.18231.14484.60467 0 .42134-.14585.60568-.12053.15192-.33626.15192-.21675 0-.34943-.1661-.13269-.16712-.13269-.59454 0-.41932.14585-.60365.12053-.15193.33627-.15193zm0 .23599q-.0517 0-.0922.0334-.0405.0324-.0628.11749-.0294.1104-.0294.37171t.0263.35956q.0263.0972.0658.12964.0405.0324.0922.0324.0516 0 .0922-.0324.0405-.0334.0628-.1185.0294-.10939.0294-.3707t-.0263-.35855q-.0263-.0982-.0669-.13065-.0395-.0334-.0911-.0334zm2.0743 1.25491h-.32614l-.12964-.33727h-.59353l-.12255.33727h-.31803l.57833-1.48482h.31702zm-.552-.58744-.2046-.55099-.20054.55099z" aria-label="250A" font-weight="700" font-size="2.0743" font-family="Arial" fill="#1a1a1a" stroke="#000" stroke-width=".0315"/></g></svg>