<svg width="141.06657" height="203.41985" viewBox="0 0 37.32386 53.8215" xmlns="http://www.w3.org/2000/svg"><g transform="matrix(2 0 0 2 -221.72083 -203.72916)"><rect width="18.39735" height="26.64617" x="110.99271" y="101.99687" ry="0" fill="#fff" stroke="#000" stroke-width=".26458"/><g transform="translate(60.26661 12.4777)" fill="#fff" stroke="#000"><path stroke-width=".10464" d="M50.74855 89.5207H69.0761v2.96386H50.74855Z"/><path opacity=".73" fill="#ccc" stroke-width=".065" d="M64.26739 89.5207h3.81068v2.96386h-3.81068z"/><circle cx="66.23322" cy="91.18408" r="1.20974" stroke-width=".26458"/><path opacity=".73" fill="#ccc" stroke-width=".065" d="M51.98853 89.5207h3.81068v2.96386h-3.81068z"/><circle cx="53.89388" cy="91.18408" r="1.20974" stroke-width=".26458"/><path d="m59.57964 94.52333-1.51721 1.78096-2.33216.1865-1.78096-1.51722-.1865-2.33215 1.51722-1.78096 2.33215-.1865 1.78096 1.51722z" transform="matrix(.22922 .01828 -.01811 .22902 42.59882 68.71584)" stroke-width=".37648"/><path opacity=".73" fill="#ccc" stroke-width=".065" d="M58.12796 89.5207h3.81068v2.96386h-3.81068z"/><circle cx="59.97281" cy="91.18408" r="1.20974" stroke-width=".26458"/><path d="m59.57964 94.52333-1.51721 1.78096-2.33216.1865-1.78096-1.51722-.1865-2.33215 1.51722-1.78096 2.33215-.1865 1.78096 1.51722z" transform="matrix(.22922 .01828 -.01811 .22902 48.67776 68.71584)" stroke-width=".37648"/><path d="m59.57964 94.52333-1.51721 1.78096-2.33216.1865-1.78096-1.51722-.1865-2.33215 1.51722-1.78096 2.33215-.1865 1.78096 1.51722z" transform="matrix(.22922 .01828 -.01811 .22902 54.93817 68.71584)" stroke-width=".37648"/></g><rect width="18.41713" height="9.44635" x="111.00042" y="110.68231" ry="0" fill="#fff" stroke="#000" stroke-width=".16778"/><rect width="4.5337" height="8.42583" x="123.48176" y="111.23534" ry=".385" fill="#f9f9f9" stroke="#1a1a1a" stroke-width=".08572"/><rect width="4.5337" height="8.42583" x="112.57522" y="111.23534" ry=".385" fill="#f9f9f9" stroke="#1a1a1a" stroke-width=".08572"/><path fill="#fff" stroke="#000" stroke-width=".08572" d="M118.00141 110.70852h4.44579v9.37548h-4.44579z"/><path fill="#fff" stroke="#000" stroke-width=".165" d="M118.82529 112.63319h3.00138v.30808h-3.00138zm0 .31757h3.00138v.54625h-3.00138zm0 .55573h3.00138v.53113h-3.00138z"/><path fill="#1a1a1a" stroke="#000" stroke-width=".165" d="M118.82529 114.03953h3.00138v.41393h-3.00138z"/><path fill="#fff" stroke="#000" stroke-width=".165" d="M118.82529 114.45537h3.00138v1.70306h-3.00138z"/><path fill="red" stroke="#000" stroke-width=".165" d="M118.82529 116.16085h3.00138v.97596h-3.00138z"/><path fill="#fff" stroke="#000" stroke-width=".165" d="M118.82529 117.14458h3.00138v.90646h-3.00138z"/><text xml:space="preserve" style="-inkscape-font-specification:Arial;text-align:start" x="119.38811" y="116.92442" font-weight="400" font-size=".83939" font-family="Arial" fill="#f9f9f9" stroke="#f9f9f9" stroke-width=".02454"><tspan style="-inkscape-font-specification:Arial" x="119.38811" y="116.92442">ON</tspan></text><path fill="#fff" stroke="#000" stroke-width=".10464" d="M111.01517 128.70908h18.32755v-2.96386h-18.32755z"/><path opacity=".73" fill="#ccc" stroke="#000" stroke-width=".065" d="M124.534 128.70908h3.81068v-2.96386H124.534Z"/><circle cx="126.49983" cy="-127.0457" r="1.20974" transform="scale(1 -1)" fill="#fff" stroke="#000" stroke-width=".26458"/><path opacity=".73" fill="#ccc" stroke="#000" stroke-width=".065" d="M112.25515 128.70908h3.81068v-2.96386h-3.81068z"/><circle cx="114.16049" cy="-127.0457" r="1.20974" transform="scale(1 -1)" fill="#fff" stroke="#000" stroke-width=".26458"/><path d="m59.57964 94.52333-1.51721 1.78096-2.33216.1865-1.78096-1.51722-.1865-2.33215 1.51722-1.78096 2.33215-.1865 1.78096 1.51722z" transform="matrix(.22922 -.01828 -.01811 -.22902 102.86544 149.51394)" fill="#fff" stroke="#000" stroke-width=".37648"/><path opacity=".73" fill="#ccc" stroke="#000" stroke-width=".065" d="M118.39458 128.70908h3.81068v-2.96386h-3.81068z"/><circle cx="120.23943" cy="-127.0457" r="1.20974" transform="scale(1 -1)" fill="#fff" stroke="#000" stroke-width=".26458"/><path d="m59.57964 94.52333-1.51721 1.78096-2.33216.1865-1.78096-1.51722-.1865-2.33215 1.51722-1.78096 2.33215-.1865 1.78096 1.51722z" transform="matrix(.22922 -.01828 -.01811 -.22902 108.94438 149.51394)" fill="#fff" stroke="#000" stroke-width=".37648"/><path d="m59.57964 94.52333-1.51721 1.78096-2.33216.1865-1.78096-1.51722-.1865-2.33215 1.51722-1.78096 2.33215-.1865 1.78096 1.51722z" transform="matrix(.22922 -.01828 -.01811 -.22902 115.20478 149.51394)" fill="#fff" stroke="#000" stroke-width=".37648"/><path style="-inkscape-font-specification:'Arial Bold'" d="M113.13513 107.69318v-2.02021h.4079v2.02021zm.69316-.65733.39687-.0386c.0239.13321.0721.23105.14469.29352.0735.0625.17226.0937.29628.0937.13137 0 .23013-.0276.29628-.0827.0671-.0561.1006-.12129.1006-.19568 0-.0478-.0142-.0882-.0427-.12126-.0275-.034-.0762-.0634-.14607-.0882-.0478-.0165-.15667-.0459-.3266-.0882-.21865-.0542-.37207-.12081-.46026-.19982-.12403-.11116-.18604-.24667-.18604-.40652 0-.10289.0289-.1989.0868-.28801.0588-.09.14286-.15848.25218-.20533.11024-.0469.24299-.0703.39825-.0703.25356 0 .44419.0556.57189.16675.12861.11116.19614.25953.20257.4451l-.4079.0179c-.0175-.10381-.0551-.17823-.113-.22325-.0569-.0459-.14283-.0689-.25769-.0689-.11851 0-.2113.0243-.27837.073-.0432.0312-.0648.073-.0648.1254 0 .0478.0202.0887.0606.12264.0515.0432.17641.0882.37483.13505.19843.0469.34496.0956.43959.14607.0956.0496.16996.11804.22324.20533.0542.0864.0813.19339.0813.32108 0 .11576-.0322.22417-.0965.32522-.0643.10106-.15528.17639-.27285.226-.11759.0487-.26412.073-.43959.073-.2554 0-.45154-.0588-.58842-.17639-.13689-.11851-.21865-.29077-.24529-.51677zm1.90306-.34037c0-.20579.0308-.3785.0923-.51814.0459-.10289.10841-.19522.18742-.27699.0799-.0818.1672-.1424.26182-.1819.12586-.0533.27101-.0799.43546-.0799.29766 0 .5356.0923.71383.27699.17914.18465.26871.44143.26871.77032 0 .32613-.0887.58153-.26596.76619-.17731.18374-.41433.27561-.71106.27561-.30041 0-.53927-.0914-.71658-.27423-.17731-.18374-.26597-.43638-.26597-.75792zm.42031-.0138c0 .22875.0528.40239.15847.5209.10565.11759.23978.17638.40239.17638.16261 0 .29582-.0583.39963-.17501.10473-.11759.15709-.29352.15709-.52779 0-.23151-.051-.40422-.15296-.51814-.10105-.11391-.23564-.17087-.40376-.17087-.16812 0-.30363.0579-.40652.17363-.10289.11483-.15434.28847-.15434.5209zm1.86861 1.01148v-2.00367h.4079v1.66329h1.01424v.34038zm3.53467 0h-.44373l-.17639-.45889h-.80753l-.16674.45889h-.4327l.78686-2.02021h.43132zm-.75103-.79927-.27836-.74965-.27286.74965zm1.21267.79927v-1.67845h-.59944v-.34176h1.60541v.34176h-.59807v1.67845zm1.1355-.9977c0-.20579.0308-.3785.0923-.51814.0459-.10289.10841-.19522.18742-.27699.0799-.0818.1672-.1424.26182-.1819.12586-.0533.27101-.0799.43546-.0799.29766 0 .5356.0923.71383.27699.17914.18465.26871.44143.26871.77032 0 .32613-.0887.58153-.26596.76619-.17731.18374-.41433.27561-.71107.27561-.30041 0-.53926-.0914-.71657-.27423-.17731-.18374-.26597-.43638-.26597-.75792zm.42031-.0138c0 .22875.0528.40239.15847.5209.10565.11759.23978.17638.40239.17638.16261 0 .29582-.0583.39963-.17501.10473-.11759.15709-.29352.15709-.52779 0-.23151-.051-.40422-.15296-.51814-.10105-.11391-.23564-.17087-.40376-.17087-.16812 0-.30363.0579-.40652.17363-.10289.11483-.15434.28847-.15434.5209zm1.85897 1.01148v-2.02021h.85852c.21589 0 .37252.0184.46991.0551.0983.0358.17685.10011.23564.19292.0588.0928.0882.1989.0882.31833 0 .15158-.0446.27698-.13367.3762-.0891.0983-.22232.16031-.39963.18604.0882.0515.16078.10796.21773.16949.0579.0615.1355.17086.23289.32798l.24667.39412h-.48782l-.2949-.4396c-.10473-.15709-.17639-.25585-.21498-.29628-.0386-.0413-.0795-.0694-.12264-.0841-.0432-.0156-.11164-.0234-.20533-.0234h-.0827v.84336zm.4079-1.16582h.30179c.19568 0 .31786-.008.36655-.0248.0487-.0165.0868-.045.11438-.0854.0275-.0404.0413-.0909.0413-.15158 0-.068-.0184-.12264-.0551-.16399-.0358-.0423-.0868-.0689-.15296-.0799-.0331-.005-.13229-.007-.29766-.007h-.31832z" aria-label="ISOLATOR" font-weight="700" font-size="2.82222" font-family="Arial" fill="#1a1a1a" stroke="#000" stroke-width=".04286"/><path style="-inkscape-font-specification:'Arial Bold'" d="M118.45031 109.94022h-.28461v-1.0726q-.15598.14585-.36766.21574v-.25828q.11141-.0365.24207-.13774.13065-.1023.17927-.23802h.23093zm1.38962-1.12121-.2755.0304q-.0101-.0851-.0527-.12559-.0425-.0405-.1104-.0405-.0901 0-.15294.081-.0618.081-.078.33728.10635-.12559.26435-.12559.17826 0 .30487.13572.12761.13572.12761.35044 0 .22789-.13369.36564-.1337.13774-.34336.13774-.22485 0-.36968-.1742-.14484-.17523-.14484-.57327 0-.40818.15091-.58846.15092-.18029.39197-.18029.16915 0 .27955.0952.11141.0942.1418.27448zm-.64518.62087q0 .13876.0638.21472.0638.075.14584.075.079 0 .13167-.0618.0527-.0618.0527-.20257 0-.14484-.0567-.21168-.0567-.0679-.1418-.0679-.082 0-.13875.0648-.0567.0638-.0567.1894zm1.31568-.99056q.21573 0 .33727.15395.14484.18231.14484.60467 0 .42134-.14585.60568-.12053.15192-.33626.15192-.21675 0-.34943-.1661-.13269-.16712-.13269-.59454 0-.41932.14585-.60365.12053-.15193.33627-.15193zm0 .23599q-.0517 0-.0922.0334-.0405.0324-.0628.11749-.0294.1104-.0294.37171t.0263.35956q.0263.0972.0658.12964.0405.0324.0922.0324.0516 0 .0922-.0324.0405-.0334.0628-.1185.0294-.10939.0294-.3707t-.0263-.35855q-.0263-.0982-.0669-.13065-.0395-.0334-.0911-.0334zm2.0743 1.25491h-.32614l-.12964-.33727h-.59353l-.12255.33727h-.31803l.57833-1.48482h.31702zm-.552-.58744-.2046-.55099-.20054.55099z" aria-label="160A" font-weight="700" font-size="2.0743" font-family="Arial" fill="#1a1a1a" stroke="#000" stroke-width=".0315"/></g></svg>