<svg width="141.06657" height="203.41985" viewBox="0 0 37.32386 53.8215" xmlns="http://www.w3.org/2000/svg"><g transform="matrix(2 0 0 2 -221.72083 -203.72916)"><rect width="18.39735" height="26.64617" x="110.99271" y="101.99687" ry="0" fill="#fff" stroke="#000" stroke-width=".26458"/><g transform="translate(60.26661 12.4777)" fill="#fff" stroke="#000"><path stroke-width=".10464" d="M50.74855 89.5207H69.0761v2.96386H50.74855Z"/><path opacity=".73" fill="#ccc" stroke-width=".065" d="M64.26739 89.5207h3.81068v2.96386h-3.81068z"/><circle cx="66.23322" cy="91.18408" r="1.20974" stroke-width=".26458"/><path opacity=".73" fill="#ccc" stroke-width=".065" d="M51.98853 89.5207h3.81068v2.96386h-3.81068z"/><circle cx="53.89388" cy="91.18408" r="1.20974" stroke-width=".26458"/><path d="m59.57964 94.52333-1.51721 1.78096-2.33216.1865-1.78096-1.51722-.1865-2.33215 1.51722-1.78096 2.33215-.1865 1.78096 1.51722z" transform="matrix(.22922 .01828 -.01811 .22902 42.59882 68.71584)" stroke-width=".37648"/><path opacity=".73" fill="#ccc" stroke-width=".065" d="M58.12796 89.5207h3.81068v2.96386h-3.81068z"/><circle cx="59.97281" cy="91.18408" r="1.20974" stroke-width=".26458"/><path d="m59.57964 94.52333-1.51721 1.78096-2.33216.1865-1.78096-1.51722-.1865-2.33215 1.51722-1.78096 2.33215-.1865 1.78096 1.51722z" transform="matrix(.22922 .01828 -.01811 .22902 48.67776 68.71584)" stroke-width=".37648"/><path d="m59.57964 94.52333-1.51721 1.78096-2.33216.1865-1.78096-1.51722-.1865-2.33215 1.51722-1.78096 2.33215-.1865 1.78096 1.51722z" transform="matrix(.22922 .01828 -.01811 .22902 54.93817 68.71584)" stroke-width=".37648"/></g><rect width="5.34066" height="3.281" x="117.60362" y="120.12576" ry="0" fill="#fff" stroke="#000" stroke-width=".09327"/><rect width="18.41713" height="9.44635" x="111.00042" y="110.68231" ry="0" fill="#fff" stroke="#000" stroke-width=".16778"/><rect width="4.5337" height="8.42583" x="123.48176" y="111.23534" ry=".385" fill="#f9f9f9" stroke="#1a1a1a" stroke-width=".08572"/><rect width="4.5337" height="8.42583" x="112.57522" y="111.23534" ry=".385" fill="#f9f9f9" stroke="#1a1a1a" stroke-width=".08572"/><path fill="#fff" stroke="#000" stroke-width=".08572" d="M118.00141 110.70852h4.44579v9.37548h-4.44579z"/><path fill="#fff" stroke="#000" stroke-width=".165" d="M118.82529 112.63319h3.00138v.30808h-3.00138zm0 .31757h3.00138v.54625h-3.00138zm0 .55573h3.00138v.53113h-3.00138z"/><path fill="#1a1a1a" stroke="#000" stroke-width=".165" d="M118.82529 114.03953h3.00138v.41393h-3.00138z"/><path fill="#fff" stroke="#000" stroke-width=".165" d="M118.82529 114.45537h3.00138v1.70306h-3.00138z"/><path fill="red" stroke="#000" stroke-width=".165" d="M118.82529 116.16085h3.00138v.97596h-3.00138z"/><path fill="#fff" stroke="#000" stroke-width=".165" d="M118.82529 117.14458h3.00138v.90646h-3.00138z"/><text xml:space="preserve" style="-inkscape-font-specification:Arial;text-align:start" x="119.38811" y="116.92442" font-weight="400" font-size=".83939" font-family="Arial" fill="#f9f9f9" stroke="#f9f9f9" stroke-width=".02454"><tspan style="-inkscape-font-specification:Arial" x="119.38811" y="116.92442">ON</tspan></text><path fill="#fff" stroke="#000" stroke-width=".10464" d="M111.01517 128.70908h18.32755v-2.96386h-18.32755z"/><path opacity=".73" fill="#ccc" stroke="#000" stroke-width=".065" d="M124.534 128.70908h3.81068v-2.96386H124.534Z"/><circle cx="126.49983" cy="-127.0457" r="1.20974" transform="scale(1 -1)" fill="#fff" stroke="#000" stroke-width=".26458"/><path opacity=".73" fill="#ccc" stroke="#000" stroke-width=".065" d="M112.25515 128.70908h3.81068v-2.96386h-3.81068z"/><circle cx="114.16049" cy="-127.0457" r="1.20974" transform="scale(1 -1)" fill="#fff" stroke="#000" stroke-width=".26458"/><path d="m59.57964 94.52333-1.51721 1.78096-2.33216.1865-1.78096-1.51722-.1865-2.33215 1.51722-1.78096 2.33215-.1865 1.78096 1.51722z" transform="matrix(.22922 -.01828 -.01811 -.22902 102.86544 149.51394)" fill="#fff" stroke="#000" stroke-width=".37648"/><path opacity=".73" fill="#ccc" stroke="#000" stroke-width=".065" d="M118.39458 128.70908h3.81068v-2.96386h-3.81068z"/><circle cx="120.23943" cy="-127.0457" r="1.20974" transform="scale(1 -1)" fill="#fff" stroke="#000" stroke-width=".26458"/><path d="m59.57964 94.52333-1.51721 1.78096-2.33216.1865-1.78096-1.51722-.1865-2.33215 1.51722-1.78096 2.33215-.1865 1.78096 1.51722z" transform="matrix(.22922 -.01828 -.01811 -.22902 108.94438 149.51394)" fill="#fff" stroke="#000" stroke-width=".37648"/><path d="m59.57964 94.52333-1.51721 1.78096-2.33216.1865-1.78096-1.51722-.1865-2.33215 1.51722-1.78096 2.33215-.1865 1.78096 1.51722z" transform="matrix(.22922 -.01828 -.01811 -.22902 115.20478 149.51394)" fill="#fff" stroke="#000" stroke-width=".37648"/><circle cx="118.87473" cy="121.69109" r=".82158" fill="#e6e6e6" stroke="#1a1a1a" stroke-width=".04286"/><circle cx="121.78903" cy="121.69109" r=".82158" fill="#e6e6e6" stroke="#1a1a1a" stroke-width=".04286"/><rect width=".45995" height="1.62185" x="163.57339" y="45.13672" ry=".19643" transform="rotate(30)" fill="#1a1a1a" stroke="#000" stroke-width=".04328"/><rect width=".45995" height="1.62185" x="-83.70451" y="149.75003" ry=".19643" transform="rotate(-74.022)" fill="#1a1a1a" stroke="#000" stroke-width=".04328"/><path style="-inkscape-font-specification:'Arial Bold'" d="M116.12824 107.69318v-2.02021h.61047l.36655 1.37804.36243-1.37804h.61185v2.02021h-.37896v-1.59026l-.40101 1.59026h-.39274l-.39963-1.59026v1.59026zm3.64904-.74277.3955.12541q-.091.33072-.30317.49195-.21084.15986-.53606.15986-.40239 0-.66146-.27423-.25907-.27561-.25907-.75241 0-.50436.26045-.78273.26045-.27974.68489-.27974.37069 0 .6022.21911.1378.12954.2067.37207l-.40376.0965q-.0358-.15709-.15021-.24804-.113-.0909-.27561-.0909-.22462 0-.36517.16123-.13919.16123-.13919.52227 0 .3831.13781.54571.1378.1626.35829.1626.16261 0 .27974-.10335.11713-.10335.16812-.32522zm2.03812 0 .39549.12541q-.091.33072-.30317.49195-.21084.15986-.53605.15986-.40239 0-.66146-.27423-.25907-.27561-.25907-.75241 0-.50436.26045-.78273.26045-.27974.68488-.27974.37069 0 .6022.21911.13781.12954.20671.37207l-.40376.0965q-.0358-.15709-.15021-.24804-.113-.0909-.27561-.0909-.22462 0-.36518.16123-.13918.16123-.13918.52227 0 .3831.1378.54571.13781.1626.35829.1626.16261 0 .27975-.10335.11713-.10335.16812-.32522zm.74689-1.27744h.80753q.23978 0 .35691.0207.11851.0193.21084.0827.0937.0634.15572.1695.062.10473.062.23564 0 .14194-.0772.26045-.0758.11851-.2067.17777.18465.0537.28387.18327.0992.12954.0992.30455 0 .1378-.0648.26872-.0634.12953-.17501.20808-.11024.0772-.27285.0951-.10197.011-.49196.0138h-.68764zm.4079.33624v.46716h.26734q.2384 0 .29628-.007.10473-.0124.16398-.0717.0606-.0606.0606-.15847 0-.0937-.0524-.15159-.051-.0593-.15296-.0717-.0606-.007-.34864-.007zm0 .8034v.54019h.37758q.22049 0 .27974-.0124.0909-.0165.14745-.0799.0579-.0648.0579-.17225 0-.091-.0441-.15434-.0441-.0634-.12815-.0923-.0827-.0289-.36105-.0289z" aria-label="MCCB" font-weight="700" font-size="2.82222" font-family="Arial" fill="#1a1a1a" stroke="#000" stroke-width=".04286"/><path style="-inkscape-font-specification:'Arial Bold'" d="M118.45031 109.94022h-.28461v-1.0726q-.15598.14585-.36766.21574v-.25828q.11141-.0365.24207-.13774.13065-.1023.17927-.23802h.23093zm.90649-1.4909q.21574 0 .33728.15395.14483.18231.14483.60467 0 .42134-.14585.60568-.12052.15192-.33626.15192-.21675 0-.34943-.1661-.13268-.16712-.13268-.59454 0-.41932.14585-.60365.12053-.15193.33626-.15193zm0 .23599q-.0517 0-.0922.0334-.0405.0324-.0628.11749-.0294.1104-.0294.37171t.0263.35956q.0263.0972.0658.12964.0405.0324.0922.0324t.0922-.0324q.0405-.0334.0628-.1185.0294-.10939.0294-.3707t-.0263-.35855q-.0263-.0982-.0668-.13065-.0395-.0334-.0912-.0334zm1.15363-.23599q.21573 0 .33727.15395.14484.18231.14484.60467 0 .42134-.14585.60568-.12053.15192-.33626.15192-.21675 0-.34943-.1661-.13269-.16712-.13269-.59454 0-.41932.14585-.60365.12053-.15193.33627-.15193zm0 .23599q-.0517 0-.0922.0334-.0405.0324-.0628.11749-.0294.1104-.0294.37171t.0263.35956q.0263.0972.0658.12964.0405.0324.0922.0324.0516 0 .0922-.0324.0405-.0334.0628-.1185.0294-.10939.0294-.3707t-.0263-.35855q-.0263-.0982-.0669-.13065-.0395-.0334-.0911-.0334zm2.0743 1.25491h-.32614l-.12964-.33727h-.59353l-.12255.33727h-.31803l.57833-1.48482h.31702zm-.552-.58744-.2046-.55099-.20054.55099z" aria-label="100A" font-weight="700" font-size="2.0743" font-family="Arial" fill="#1a1a1a" stroke="#000" stroke-width=".0315"/></g></svg>