<svg width="362.6311" height="497.25638" viewBox="0 0 95.94614 131.56575" xmlns:xlink="http://www.w3.org/1999/xlink" xmlns="http://www.w3.org/2000/svg"><defs><linearGradient xlink:href="#a" id="d" x1="77.27073" y1="76.04637" x2="77.90151" y2="76.04637" gradientUnits="userSpaceOnUse" gradientTransform="translate(22.76594 -10.1375)"/><linearGradient id="a"><stop offset="0"/><stop offset="1" stop-opacity="0"/></linearGradient><linearGradient xlink:href="#b" id="e" x1="76.80025" y1="91.31552" x2="76.83225" y2="61.33324" gradientUnits="userSpaceOnUse" gradientTransform="translate(23.49304 -10.26582)"/><linearGradient id="b"><stop offset="0" stop-color="#32342e"/><stop offset=".27346" stop-color="#9e9d98"/><stop offset=".65264" stop-color="#c3c4be"/><stop offset="1" stop-color="#d0cfca"/></linearGradient><linearGradient xlink:href="#a" id="f" gradientUnits="userSpaceOnUse" gradientTransform="translate(46.83975 -10.1375)" x1="77.27073" y1="76.04637" x2="77.90151" y2="76.04637"/><linearGradient xlink:href="#b" id="g" gradientUnits="userSpaceOnUse" gradientTransform="translate(47.56685 -10.26582)" x1="76.80025" y1="91.31552" x2="76.83225" y2="61.33324"/><linearGradient xlink:href="#a" id="h" gradientUnits="userSpaceOnUse" gradientTransform="translate(70.67161 -10.1375)" x1="77.27073" y1="76.04637" x2="77.90151" y2="76.04637"/><linearGradient xlink:href="#b" id="i" gradientUnits="userSpaceOnUse" gradientTransform="translate(71.39871 -10.26582)" x1="76.80025" y1="91.31552" x2="76.83225" y2="61.33324"/><linearGradient xlink:href="#a" id="j" gradientUnits="userSpaceOnUse" gradientTransform="matrix(1 0 0 -.85593 46.76907 224.53901)" x1="77.27073" y1="76.04637" x2="77.90151" y2="76.04637"/><linearGradient xlink:href="#c" id="k" gradientUnits="userSpaceOnUse" gradientTransform="matrix(1 0 0 -.85593 47.49617 224.64884)" x1="76.80025" y1="91.31552" x2="76.83225" y2="61.33324"/><linearGradient id="c"><stop offset="0" stop-color="#32342e"/><stop offset=".27346" stop-color="#9e9d98"/><stop offset=".65264" stop-color="#c3c4be"/><stop offset="1" stop-color="#9b9a90"/></linearGradient><linearGradient xlink:href="#a" id="l" gradientUnits="userSpaceOnUse" gradientTransform="matrix(-1 0 0 2.14954 178.00475 -49.5144)" x1="77.27073" y1="76.04637" x2="77.90151" y2="76.04637"/><linearGradient xlink:href="#b" id="m" gradientUnits="userSpaceOnUse" gradientTransform="matrix(-1 0 0 2.14954 177.27764 -49.79021)" x1="76.80025" y1="91.31552" x2="76.83225" y2="61.33324"/><linearGradient xlink:href="#a" id="n" gradientUnits="userSpaceOnUse" gradientTransform="matrix(-1 0 0 2.15004 201.95636 -49.54482)" x1="77.27073" y1="76.04637" x2="77.90151" y2="76.04637"/><linearGradient xlink:href="#b" id="o" gradientUnits="userSpaceOnUse" gradientTransform="matrix(-1 0 0 2.15004 201.22925 -49.8207)" x1="76.80025" y1="91.31552" x2="76.83225" y2="61.33324"/><linearGradient xlink:href="#a" id="p" gradientUnits="userSpaceOnUse" gradientTransform="matrix(-1 0 0 2.15104 225.66725 -49.60565)" x1="77.27073" y1="76.04637" x2="77.90151" y2="76.04637"/><linearGradient xlink:href="#b" id="q" gradientUnits="userSpaceOnUse" gradientTransform="matrix(-1 0 0 2.15104 224.94014 -49.88165)" x1="76.80025" y1="91.31552" x2="76.83225" y2="61.33324"/><linearGradient xlink:href="#a" id="r" gradientUnits="userSpaceOnUse" gradientTransform="matrix(1 0 0 -.85593 22.81624 224.53901)" x1="77.27073" y1="76.04637" x2="77.90151" y2="76.04637"/><linearGradient xlink:href="#c" id="s" gradientUnits="userSpaceOnUse" gradientTransform="matrix(1 0 0 -.85593 23.54334 224.64884)" x1="76.80025" y1="91.31552" x2="76.83225" y2="61.33324"/><linearGradient xlink:href="#a" id="t" gradientUnits="userSpaceOnUse" gradientTransform="matrix(1 0 0 -.85593 70.60093 224.53901)" x1="77.27073" y1="76.04637" x2="77.90151" y2="76.04637"/><linearGradient id="u" gradientTransform="matrix(.15005 0 0 6.6644 22.10058 -10.4097)" x1="838.34644" y1="23.54279" x2="842.23566" y2="23.54279" gradientUnits="userSpaceOnUse"><stop offset="0"/><stop offset="1" stop-opacity="0"/></linearGradient></defs><g transform="translate(-76.46458 -41.01042)"><rect width="95.20674" height="26.24176" x="76.83722" y="146.26125" rx="0" ry="0" fill="#e0e1dc" stroke="#999" stroke-width=".14635"/><rect width="95.68458" height="31.27488" x="76.64606" y="50.1105" rx="0" ry="0" fill="#e0e1dc" stroke="#999" stroke-width=".16017"/><rect width="18.57497" height="8.92477" x="80.55395" y="41.02927" rx="0" ry="0" fill="#7cbc97" stroke="#999" stroke-width=".0377"/><rect width="95.61423" height="64.82486" x="76.57983" y="81.67148" rx="0" ry="0" fill="#dedfd9" stroke="#999" stroke-width=".23051"/><circle cx="89.97774" cy="47.67297" r="1.6344" fill="#b1bab3" stroke="#000" stroke-width=".30456"/><rect width=".42771" height="2.96276" x="89.76389" y="46.19159" ry=".08287" rx=".21385" fill="#666"/><circle cx="80.97505" cy="-51.80825" r="1.6344" transform="rotate(62.342)" fill="#b1bab3" stroke="#000" stroke-width=".30456"/><rect width=".42771" height="2.96276" x="80.7612" y="-53.28963" ry=".08287" rx=".21385" transform="rotate(62.342)" fill="#666"/><circle cx="36.92969" cy="100.91633" r="1.6344" transform="rotate(-43.565)" fill="#b1bab3" stroke="#000" stroke-width=".30456"/><rect width=".42771" height="2.96276" x="36.71584" y="99.43495" ry=".08287" rx=".21385" transform="rotate(-43.565)" fill="#666"/><rect width="2.88506" height="1.38619" x="82.035" y="43.32296" rx="0" ry="0" fill="#418460" stroke="#999" stroke-width=".00586"/><rect width="2.88506" height="1.38619" x="88.49339" y="43.32296" rx="0" ry="0" fill="#418460" stroke="#999" stroke-width=".00586"/><rect width="2.88506" height="1.38619" x="94.99454" y="43.32296" rx="0" ry="0" fill="#418460" stroke="#999" stroke-width=".00586"/><circle cx="20.90902" cy="106.65795" r="4.48549" transform="rotate(-43.565)" fill="#b1bab3" stroke="#000" stroke-width="1.436"/><rect width="1.08842" height="7.53958" x="20.36458" y="102.85166" ry=".08287" rx=".21385" transform="rotate(-43.565)" fill="#666"/><rect width=".88494" height="6.13002" x="-107.70724" y="14.35032" ry=".08287" rx=".21385" transform="rotate(-135.431)" fill="#666"/><circle cx="111.68525" cy="64.94591" r="4.48549" transform="rotate(-1.057)" fill="#b1bab3" stroke="#000" stroke-width="1.436"/><rect width="1.08842" height="7.53958" x="111.14082" y="61.13962" ry=".08287" rx=".21385" transform="rotate(-1.057)" fill="#666"/><rect width=".88494" height="6.13002" x="-68.97437" y="106.43715" ry=".08287" rx=".21385" transform="rotate(-92.924)" fill="#666"/><circle cx="150.37714" cy="7.65098" r="4.48549" transform="rotate(21.769)" fill="#b1bab3" stroke="#000" stroke-width="1.436"/><rect width="1.08842" height="7.53958" x="149.8327" y="3.84469" ry=".08287" rx=".21385" transform="rotate(21.769)" fill="#666"/><rect width=".88494" height="6.13002" x="-12.97022" y="146.97487" ry=".08287" rx=".21385" transform="rotate(-70.098)" fill="#666"/><circle cx="162.18201" cy="60.0547" r="4.48549" transform="rotate(1)" fill="#b1bab3" stroke="#000" stroke-width="1.436"/><rect width="1.08842" height="7.53958" x="161.63757" y="56.24841" ry=".08287" rx=".21385" transform="rotate(1)" fill="#666"/><rect width=".88494" height="6.13002" x="-65.73068" y="157.06642" ry=".08287" rx=".21385" transform="rotate(-90.867)" fill="#666"/><circle cx="-46.78882" cy="177.83588" r="4.48549" transform="rotate(-43.565)" fill="#b1bab3" stroke="#000" stroke-width="1.436"/><rect width="1.08842" height="7.53958" x="-47.33326" y="174.02959" ry=".08287" rx=".21385" transform="rotate(-43.565)" fill="#666"/><rect width=".88494" height="6.13002" x="-176.64214" y="-55.6302" ry=".08287" rx=".21385" transform="rotate(-135.431)" fill="#666"/><rect width="20.23872" height="2.56486" x="78.11873" y="139.23157" rx="1.28243" ry="1.28243" fill="#49c583"/><rect width="20.23872" height="2.56486" x="102.66914" y="139.23157" rx="1.28243" ry="1.28243" fill="#49c583"/><rect width="20.23872" height="2.56486" x="126.44967" y="139.23157" rx="1.28243" ry="1.28243" fill="#49c583"/><rect width="20.23872" height="2.56486" x="151.2567" y="139.23157" rx="1.28243" ry="1.28243" fill="#dfdeda"/><text xml:space="preserve" style="-inkscape-font-specification:'Arial Bold';text-align:start" x="86.60389" y="74.92274" font-weight="700" font-size="5.64444" font-family="Arial" stroke-width="1.436"><tspan x="86.60389" y="74.92274">N</tspan></text><text xml:space="preserve" style="-inkscape-font-specification:'Arial Bold';text-align:start" x="109.70991" y="74.92274" font-weight="700" font-size="5.64444" font-family="Arial" stroke-width="1.436"><tspan x="109.70991" y="74.92274">L1</tspan></text><text xml:space="preserve" style="-inkscape-font-specification:'Arial Bold';text-align:start" x="133.23933" y="74.92274" font-weight="700" font-size="5.64444" font-family="Arial" stroke-width="1.436"><tspan x="133.23933" y="74.92274">L2</tspan></text><text xml:space="preserve" style="-inkscape-font-specification:'Arial Bold';text-align:start" x="157.61559" y="74.92274" font-weight="700" font-size="5.64444" font-family="Arial" stroke-width="1.436"><tspan x="157.61559" y="74.92274">L3</tspan></text><text xml:space="preserve" style="-inkscape-font-specification:'Arial Bold';text-align:start" x="85.1283" y="153.44981" font-weight="700" font-size="5.64444" font-family="Arial" stroke-width="1.436"><tspan x="85.1283" y="153.44981">PE</tspan></text><path d="M100.35206 81.04971V50.76803" fill="url(#d)" stroke="url(#e)" stroke-width=".63078"/><path d="M124.42587 81.04971V50.76803" fill="url(#f)" stroke="url(#g)" stroke-width=".63078"/><path d="M148.25772 81.04971V50.76803" fill="url(#h)" stroke="url(#i)" stroke-width=".63078"/><path d="M124.35518 146.48894V172.408" fill="url(#j)" stroke="url(#k)" stroke-width=".58357"/><path d="M100.41863 146.49642V81.40467" fill="url(#l)" stroke="url(#m)" stroke-width=".9248"/><path d="M124.37023 146.51154V81.40467" fill="url(#n)" stroke="url(#o)" stroke-width=".92491"/><path d="M148.08113 146.54178v-65.1371" fill="url(#p)" stroke="url(#q)" stroke-width=".92513"/><path d="M100.40235 146.48894V172.408" fill="url(#r)" stroke="url(#s)" stroke-width=".58357"/><path d="M148.18704 146.48894V172.408" fill="url(#t)" stroke="url(#u)" stroke-width=".58357"/></g></svg>