<svg width="176.80879" height="176.75866" viewBox="0 0 46.78066 46.7674" xmlns="http://www.w3.org/2000/svg"><defs><clipPath clipPathUnits="userSpaceOnUse" id="a"><path d="M65.447 448.021h243.279v257.557H65.447Z" transform="translate(-249.26911 -639.00401)"/></clipPath><clipPath clipPathUnits="userSpaceOnUse" id="b"><path d="M65.447 448.021h243.279v257.557H65.447Z" transform="translate(-125.0833 -518.47181)"/></clipPath><clipPath clipPathUnits="userSpaceOnUse" id="c"><path d="M65.447 448.021h243.279v257.557H65.447Z" transform="translate(-150.0991 -621.87452)"/></clipPath><clipPath clipPathUnits="userSpaceOnUse" id="d"><path d="M65.447 448.021h243.279v257.557H65.447Z" transform="translate(-124.6713 -602.07302)"/></clipPath><clipPath clipPathUnits="userSpaceOnUse" id="e"><path d="M65.447 448.021h243.279v257.557H65.447Z" transform="translate(-158.0349 -523.33181)"/></clipPath><clipPath clipPathUnits="userSpaceOnUse" id="f"><path d="M65.447 448.021h243.279v257.557H65.447Z" transform="translate(-196.8579 -626.08292)"/></clipPath><clipPath clipPathUnits="userSpaceOnUse" id="g"><path d="M65.447 448.021h243.279v257.557H65.447Z" transform="translate(-208.30711 -533.49701)"/></clipPath><clipPath clipPathUnits="userSpaceOnUse" id="h"><path d="M65.447 448.021h243.279v257.557H65.447Z" transform="translate(-137.10201 -639.15842)"/></clipPath><clipPath clipPathUnits="userSpaceOnUse" id="i"><path d="M65.447 448.021h243.279v257.557H65.447Z" transform="translate(-121.1403 -512.87641)"/></clipPath><clipPath clipPathUnits="userSpaceOnUse" id="j"><path d="M65.447 448.021h243.279v257.557H65.447Z" transform="translate(-253.24891 -512.87641)"/></clipPath><clipPath clipPathUnits="userSpaceOnUse" id="k"><path d="M65.447 448.021h243.279v257.557H65.447Z" transform="translate(-125.10171 -633.89272)"/></clipPath><clipPath clipPathUnits="userSpaceOnUse" id="l"><path d="M65.447 448.021h243.279v257.557H65.447Z" transform="translate(-249.2875 -633.89272)"/></clipPath><clipPath clipPathUnits="userSpaceOnUse" id="m"><path d="M65.447 448.021h243.279v257.557H65.447Z" transform="translate(-198.7693 -559.56622)"/></clipPath><clipPath clipPathUnits="userSpaceOnUse" id="n"><path d="M65.447 448.021h243.279v257.557H65.447Z" transform="translate(-203.6947 -561.13132)"/></clipPath><clipPath clipPathUnits="userSpaceOnUse" id="o"><path d="M65.447 448.021h243.279v257.557H65.447Z" transform="translate(-205.32591 -559.96111)"/></clipPath><clipPath clipPathUnits="userSpaceOnUse" id="p"><path d="M65.447 448.021h243.279v257.557H65.447Z" transform="translate(-149.1987 -587.90092)"/></clipPath><clipPath clipPathUnits="userSpaceOnUse" id="q"><path d="M65.447 448.021h243.279v257.557H65.447Z" transform="translate(-147.4336 -580.56751)"/></clipPath><clipPath clipPathUnits="userSpaceOnUse" id="r"><path d="M65.447 448.021h243.279v257.557H65.447Z" transform="translate(-151.7808 -574.08221)"/></clipPath><clipPath clipPathUnits="userSpaceOnUse" id="s"><path d="M65.447 448.021h243.279v257.557H65.447Z" transform="translate(-152.83071 -587.70232)"/></clipPath><clipPath clipPathUnits="userSpaceOnUse" id="t"><path d="M65.447 448.021h243.279v257.557H65.447Z" transform="translate(-148.86981 -581.65312)"/></clipPath><clipPath clipPathUnits="userSpaceOnUse" id="u"><path d="M65.447 448.021h243.279v257.557H65.447Z" transform="translate(-158.2243 -587.90092)"/></clipPath><clipPath clipPathUnits="userSpaceOnUse" id="v"><path d="M65.447 448.021h243.279v257.557H65.447Z" transform="translate(-161.85651 -587.70232)"/></clipPath><clipPath clipPathUnits="userSpaceOnUse" id="w"><path d="M65.447 448.021h243.279v257.557H65.447Z" transform="translate(-160.8064 -574.08221)"/></clipPath><clipPath clipPathUnits="userSpaceOnUse" id="x"><path d="M65.447 448.021h243.279v257.557H65.447Z" transform="translate(-162.1297 -574.08271)"/></clipPath><clipPath clipPathUnits="userSpaceOnUse" id="y"><path d="M65.447 448.021h243.279v257.557H65.447Z" transform="translate(-157.89561 -581.65312)"/></clipPath><clipPath clipPathUnits="userSpaceOnUse" id="z"><path d="M65.447 448.021h243.279v257.557H65.447Z" transform="translate(-167.25021 -587.90092)"/></clipPath><clipPath clipPathUnits="userSpaceOnUse" id="A"><path d="M65.447 448.021h243.279v257.557H65.447Z" transform="translate(-165.486 -585.89752)"/></clipPath><clipPath clipPathUnits="userSpaceOnUse" id="B"><path d="M65.447 448.021h243.279v257.557H65.447Z" transform="translate(-165.4851 -580.56751)"/></clipPath><clipPath clipPathUnits="userSpaceOnUse" id="C"><path d="M65.447 448.021h243.279v257.557H65.447Z" transform="translate(-170.8822 -587.70232)"/></clipPath><clipPath clipPathUnits="userSpaceOnUse" id="D"><path d="M65.447 448.021h243.279v257.557H65.447Z" transform="translate(-169.83231 -574.08221)"/></clipPath><clipPath clipPathUnits="userSpaceOnUse" id="E"><path d="M65.447 448.021h243.279v257.557H65.447Z" transform="translate(-171.1555 -574.08271)"/></clipPath><clipPath clipPathUnits="userSpaceOnUse" id="F"><path d="M65.447 448.021h243.279v257.557H65.447Z" transform="translate(-185.3016 -587.90092)"/></clipPath><clipPath clipPathUnits="userSpaceOnUse" id="G"><path d="M65.447 448.021h243.279v257.557H65.447Z" transform="translate(-183.5364 -580.56751)"/></clipPath><clipPath clipPathUnits="userSpaceOnUse" id="H"><path d="M65.447 448.021h243.279v257.557H65.447Z" transform="translate(-188.93361 -587.70232)"/></clipPath><clipPath clipPathUnits="userSpaceOnUse" id="I"><path d="M65.447 448.021h243.279v257.557H65.447Z" transform="translate(-187.8837 -574.08221)"/></clipPath><clipPath clipPathUnits="userSpaceOnUse" id="J"><path d="M65.447 448.021h243.279v257.557H65.447Z" transform="translate(-184.9729 -581.65312)"/></clipPath><clipPath clipPathUnits="userSpaceOnUse" id="K"><path d="M65.447 448.021h243.279v257.557H65.447Z" transform="translate(-194.32731 -587.90092)"/></clipPath><clipPath clipPathUnits="userSpaceOnUse" id="L"><path d="M65.447 448.021h243.279v257.557H65.447Z" transform="translate(-197.95941 -587.70232)"/></clipPath><clipPath clipPathUnits="userSpaceOnUse" id="M"><path d="M65.447 448.021h243.279v257.557H65.447Z" transform="translate(-196.9636 -574.26901)"/></clipPath><clipPath clipPathUnits="userSpaceOnUse" id="N"><path d="M65.447 448.021h243.279v257.557H65.447Z" transform="translate(-198.2326 -574.08271)"/></clipPath><clipPath clipPathUnits="userSpaceOnUse" id="O"><path d="M65.447 448.021h243.279v257.557H65.447Z" transform="translate(-193.99851 -581.65312)"/></clipPath><clipPath clipPathUnits="userSpaceOnUse" id="P"><path d="M65.447 448.021h243.279v257.557H65.447Z" transform="translate(-203.35311 -587.90092)"/></clipPath><clipPath clipPathUnits="userSpaceOnUse" id="Q"><path d="M65.447 448.021h243.279v257.557H65.447Z" transform="translate(-201.58911 -585.89752)"/></clipPath><clipPath clipPathUnits="userSpaceOnUse" id="R"><path d="M65.447 448.021h243.279v257.557H65.447Z" transform="translate(-201.58801 -580.56751)"/></clipPath><clipPath clipPathUnits="userSpaceOnUse" id="S"><path d="M65.447 448.021h243.279v257.557H65.447Z" transform="translate(-206.9851 -587.70232)"/></clipPath><clipPath clipPathUnits="userSpaceOnUse" id="T"><path d="M65.447 448.021h243.279v257.557H65.447Z" transform="translate(-205.93521 -574.08221)"/></clipPath><clipPath clipPathUnits="userSpaceOnUse" id="U"><path d="M65.447 448.021h243.279v257.557H65.447Z" transform="translate(-207.25831 -574.08271)"/></clipPath><clipPath clipPathUnits="userSpaceOnUse" id="V"><path d="M65.447 448.021h243.279v257.557H65.447Z" transform="translate(-141.6385 -578.26801)"/></clipPath><clipPath clipPathUnits="userSpaceOnUse" id="W"><path d="M65.447 448.021h243.279v257.557H65.447Z" transform="translate(-167.19741 -572.05871)"/></clipPath><clipPath clipPathUnits="userSpaceOnUse" id="X"><path d="M65.447 448.021h243.279v257.557H65.447Z" transform="translate(-165.43221 -564.72532)"/></clipPath><clipPath clipPathUnits="userSpaceOnUse" id="Y"><path d="M65.447 448.021h243.279v257.557H65.447Z" transform="translate(-170.8293 -571.86011)"/></clipPath><clipPath clipPathUnits="userSpaceOnUse" id="Z"><path d="M65.447 448.021h243.279v257.557H65.447Z" transform="translate(-169.7794 -558.24001)"/></clipPath><clipPath clipPathUnits="userSpaceOnUse" id="aa"><path d="M65.447 448.021h243.279v257.557H65.447Z" transform="translate(-166.86861 -565.81091)"/></clipPath><clipPath clipPathUnits="userSpaceOnUse" id="ab"><path d="M65.447 448.021h243.279v257.557H65.447Z" transform="translate(-176.2231 -572.05871)"/></clipPath><clipPath clipPathUnits="userSpaceOnUse" id="ac"><path d="M65.447 448.021h243.279v257.557H65.447Z" transform="translate(-179.8551 -571.86011)"/></clipPath><clipPath clipPathUnits="userSpaceOnUse" id="ad"><path d="M65.447 448.021h243.279v257.557H65.447Z" transform="translate(-178.8594 -558.42682)"/></clipPath><clipPath clipPathUnits="userSpaceOnUse" id="ae"><path d="M65.447 448.021h243.279v257.557H65.447Z" transform="translate(-180.12831 -558.24052)"/></clipPath><clipPath clipPathUnits="userSpaceOnUse" id="af"><path d="M65.447 448.021h243.279v257.557H65.447Z" transform="translate(-175.8942 -565.81091)"/></clipPath><clipPath clipPathUnits="userSpaceOnUse" id="ag"><path d="M65.447 448.021h243.279v257.557H65.447Z" transform="translate(-185.2489 -572.05871)"/></clipPath><clipPath clipPathUnits="userSpaceOnUse" id="ah"><path d="M65.447 448.021h243.279v257.557H65.447Z" transform="translate(-183.4849 -570.05531)"/></clipPath><clipPath clipPathUnits="userSpaceOnUse" id="ai"><path d="M65.447 448.021h243.279v257.557H65.447Z" transform="translate(-183.4837 -564.72532)"/></clipPath><clipPath clipPathUnits="userSpaceOnUse" id="aj"><path d="M65.447 448.021h243.279v257.557H65.447Z" transform="translate(-188.88081 -571.86011)"/></clipPath><clipPath clipPathUnits="userSpaceOnUse" id="ak"><path d="M65.447 448.021h243.279v257.557H65.447Z" transform="translate(-187.831 -558.24001)"/></clipPath><clipPath clipPathUnits="userSpaceOnUse" id="al"><path d="M65.447 448.021h243.279v257.557H65.447Z" transform="translate(-189.15411 -558.24052)"/></clipPath><clipPath clipPathUnits="userSpaceOnUse" id="am"><path d="M65.447 448.021h243.279v257.557H65.447Z" transform="translate(-151.441 -558.25291)"/></clipPath><clipPath clipPathUnits="userSpaceOnUse" id="an"><path d="M65.447 448.021h243.279v257.557H65.447Z" transform="translate(-195.5307 -567.21871)"/></clipPath><clipPath clipPathUnits="userSpaceOnUse" id="ao"><path d="M65.447 448.021h243.279v257.557H65.447Z" transform="translate(-209.764 -578.24902)"/></clipPath><clipPath clipPathUnits="userSpaceOnUse" id="ap"><path d="M65.447 448.021h243.279v257.557H65.447Z" transform="translate(-159.6019 -562.42441)"/></clipPath><clipPath clipPathUnits="userSpaceOnUse" id="aq"><path d="M65.447 448.021h243.279v257.557H65.447Z" transform="translate(-160.018 -558.71741)"/></clipPath><clipPath clipPathUnits="userSpaceOnUse" id="ar"><path d="M65.447 448.021h243.279v257.557H65.447Z" transform="translate(-161.96001 -559.58191)"/></clipPath><clipPath clipPathUnits="userSpaceOnUse" id="as"><path d="M65.447 448.021h243.279v257.557H65.447Z" transform="translate(-210.14631 -574.52662)"/></clipPath><clipPath clipPathUnits="userSpaceOnUse" id="at"><path d="M65.447 448.021h243.279v257.557H65.447Z" transform="translate(-213.6784 -575.10661)"/></clipPath><clipPath clipPathUnits="userSpaceOnUse" id="au"><path d="M65.447 448.021h243.279v257.557H65.447Z" transform="translate(-142.2277 -574.54552)"/></clipPath><clipPath clipPathUnits="userSpaceOnUse" id="av"><path d="M65.447 448.021h243.279v257.557H65.447Z" transform="translate(-145.3782 -574.54552)"/></clipPath><clipPath clipPathUnits="userSpaceOnUse" id="aw"><path d="M65.447 448.021h243.279v257.557H65.447Z" transform="translate(-128.20041 -602.62852)"/></clipPath><clipPath clipPathUnits="userSpaceOnUse" id="ax"><path d="M65.447 448.021h243.279v257.557H65.447Z" transform="translate(-128.20041 -602.62852)"/></clipPath><clipPath clipPathUnits="userSpaceOnUse" id="ay"><path d="M65.447 448.021h243.279v257.557H65.447Z" transform="translate(-224.9128 -577.53061)"/></clipPath><clipPath clipPathUnits="userSpaceOnUse" id="az"><path d="M65.447 448.021h243.279v257.557H65.447Z" transform="translate(-131.6913 -551.77621)"/></clipPath><clipPath clipPathUnits="userSpaceOnUse" id="aA"><path d="M65.447 448.021h243.279v257.557H65.447Z" transform="translate(-238.79581 -574.29221)"/></clipPath><clipPath clipPathUnits="userSpaceOnUse" id="aB"><path d="M65.447 448.021h243.279v257.557H65.447Z" transform="translate(-241.384 -574.29221)"/></clipPath><clipPath clipPathUnits="userSpaceOnUse" id="aC"><path d="M65.447 448.021h243.279v257.557H65.447Z" transform="translate(-245.1982 -577.08401)"/></clipPath><clipPath clipPathUnits="userSpaceOnUse" id="aD"><path d="M65.447 448.021h243.279v257.557H65.447Z" transform="translate(-229.79421 -574.21451)"/></clipPath><clipPath clipPathUnits="userSpaceOnUse" id="aE"><path d="M65.447 448.021h243.279v257.557H65.447Z" transform="translate(-127.7592 -591.05621)"/></clipPath><clipPath clipPathUnits="userSpaceOnUse" id="aF"><path d="M65.447 448.021h243.279v257.557H65.447Z" transform="translate(-129.7848 -586.60891)"/></clipPath><clipPath clipPathUnits="userSpaceOnUse" id="aG"><path d="M65.447 448.021h243.279v257.557H65.447Z" transform="translate(-223.10931 -586.72942)"/></clipPath><clipPath clipPathUnits="userSpaceOnUse" id="aH"><path d="M65.447 448.021h243.279v257.557H65.447Z" transform="translate(-224.4214 -596.71702)"/></clipPath><clipPath clipPathUnits="userSpaceOnUse" id="aI"><path d="M65.447 448.021h243.279v257.557H65.447Z" transform="translate(-225.15211 -595.90642)"/></clipPath><clipPath clipPathUnits="userSpaceOnUse" id="aJ"><path d="M65.447 448.021h243.279v257.557H65.447Z" transform="translate(-225.15211 -569.02222)"/></clipPath><clipPath clipPathUnits="userSpaceOnUse" id="aK"><path d="M65.447 448.021h243.279v257.557H65.447Z" transform="translate(-235.0828 -564.54991)"/></clipPath><clipPath clipPathUnits="userSpaceOnUse" id="aL"><path d="M65.447 448.021h243.279v257.557H65.447Z" transform="translate(-226.2238 -561.91201)"/></clipPath><clipPath clipPathUnits="userSpaceOnUse" id="aM"><path d="M65.447 448.021h243.279v257.557H65.447Z" transform="translate(-228.49801 -592.18601)"/></clipPath><clipPath clipPathUnits="userSpaceOnUse" id="aN"><path d="M65.447 448.021h243.279v257.557H65.447Z" transform="translate(-233.8876 -585.89381)"/></clipPath><clipPath clipPathUnits="userSpaceOnUse" id="aO"><path d="M65.447 448.021h243.279v257.557H65.447Z" transform="translate(-222.40221 -549.98242)"/></clipPath><clipPath clipPathUnits="userSpaceOnUse" id="aP"><path d="M65.447 448.021h243.279v257.557H65.447Z" transform="translate(-224.99551 -549.98242)"/></clipPath><clipPath clipPathUnits="userSpaceOnUse" id="aQ"><path d="M65.447 448.021h243.279v257.557H65.447Z" transform="translate(-229.94091 -550.47971)"/></clipPath><clipPath clipPathUnits="userSpaceOnUse" id="aR"><path d="M65.447 448.021h243.279v257.557H65.447Z" transform="translate(-231.2071 -552.78592)"/></clipPath><clipPath clipPathUnits="userSpaceOnUse" id="aS"><path d="M65.447 448.021h243.279v257.557H65.447Z" transform="translate(-233.3761 -552.78592)"/></clipPath><clipPath clipPathUnits="userSpaceOnUse" id="aT"><path d="M65.447 448.021h243.279v257.557H65.447Z" transform="translate(-236.11791 -550.58801)"/></clipPath><clipPath clipPathUnits="userSpaceOnUse" id="aU"><path d="M65.447 448.021h243.279v257.557H65.447Z" transform="translate(-239.58891 -550.63561)"/></clipPath><clipPath clipPathUnits="userSpaceOnUse" id="aV"><path d="M65.447 448.021h243.279v257.557H65.447Z" transform="translate(-240.37011 -549.98422)"/></clipPath><clipPath clipPathUnits="userSpaceOnUse" id="aW"><path d="M65.447 448.021h243.279v257.557H65.447Z"/></clipPath><clipPath clipPathUnits="userSpaceOnUse" id="aX"><path d="M65.447 448.021h243.279v257.557H65.447Z" transform="translate(-243.9232 -550.63561)"/></clipPath><clipPath clipPathUnits="userSpaceOnUse" id="aY"><path d="M65.447 448.021h243.279v257.557H65.447Z" transform="translate(-244.5712 -550.58801)"/></clipPath></defs><path d="M0 0v-.007M-4.606 0H0m-117 0h4.833m101.339 0h3.642m-117 0h4.606m-4.606-.007V0m0-123.832v.008m4.606-.008h-4.606m117 0h-3.238m-101.339 0H-117m117 0h-4.606m4.606.008v-.008M-124.186.177V0m0-124.009v.177M0-124.009v.177M0 .177V0m-124.186.177h12.019m101.339 0H0m0-124.186h-10.424m-101.339 0h-12.423M-4.606 0v-.007m-.092-1.843h-2.396m-.092 1.843V0m0-123.832v.008M-7.023-121.982h2.325m.092-1.842v-.008M-4.704.098-4.606 0m-.098.098v-1.85m.006-.006-.006.006M-7.088.098h2.384m-2.384-1.85v1.85m2.384-1.85h-2.384M-7.186 0l.098.098m-.006-1.856.006.006m2.384-122.178h-2.384m2.384 0v1.85m0 0h-2.319m-.065-1.744v-.106m2.482.098-.098-.098m.006 1.856-.006-.006m-2.384-1.85-.098.098M-117 0v-.007m-.092-1.843h-2.395m-.093 1.843V0m2.482.098L-117 0m-.098-1.752v1.85m.006-1.856-.006.006m-2.383 1.85h2.383m-2.383 0v-1.85m0 0h2.383M-119.58 0l.099.098m-.006-1.856.006.006m10.805-.19h50.765m0-.077h-.557m-24.414 0h-.831m-24.413 0h-.55m-10.904-121.813v.008M-119.487-121.982h2.395m.092-1.842v-.008m-2.481-.098-.099.098M-119.481-123.93v1.85m-.006.006.006-.006m2.383-1.85h-2.383m2.383 1.85v-1.85m-2.383 1.85h2.383m.098-1.752-.098-.098m.006 1.856-.006-.006m3.938 2.125h-.833m0-.324h.833M-55.013-3.553h.561M2.119-127.97c1.018 0 1.842.825 1.842 1.842m-132.108 0c0-1.017.825-1.842 1.842-1.842m0 132.108c-1.017 0-1.842-.825-1.842-1.842m132.108 0c0 1.017-.824 1.842-1.842 1.842m-130.266-1.842v-128.424m132.108 0V2.296M2.119 4.138h-128.424m0-132.108H2.119M-124.186-20.911H0m0 .18v-.18m-1.843.161c.489 0 .958.002 1.303.005.346.004.54.009.54.014m-1.843-.019H-7.97m-.516.31.516-.31m-47.242.31h46.726m-47.243-.31.517.31m-1.47-.31h.953m-67.232 0h52.524m-52.524 0-.002.001m-1.223.018c0-.008.49-.016 1.223-.018m-1.223.018v-.18M0-20.952v.041m0-74.228v.46m0-.46v-4.825m0-.077v.077m0-.31v.233m0-3.076v.237m0-15.84v15.603m0-15.603v-1.812m0-2.988v2.988m0-3.292v.304M0-.007v-.305m0 0V-3.3m0-1.811V-3.3m0-1.811v-15.62m-3.798-74.408-.011.46M0-95.139h-3.798m-120.388 74.228v-.041M0-100.041h-4.23m2.387 94.93h-2.381m0 0v-1.722m0 0H-7.97m0-13.917v13.917m6.127-13.917v15.639m-2.381 0c0 1.776-.011 3.3-.026 3.623m2.407 0v-3.623M-4.25-1.488h2.407m-2.211-95.62h-.209m.209 2.429v-2.429m-109.939-23.921.096-.048m-.278 14.572v2.855m-.516.569.516-.569m-.516-13.349v13.918m0-13.918c0-.888.011-1.65.026-1.812m.45-4.777-.45 4.777m.472-4.788-.022.011M-114.193-123.599v2.486m105.724-1.157v-1.329m.022.011-.022-.011m.472 4.788-.45-4.777m.45 4.777c.015.162.026.924.026 1.812m0 11.707v-11.707m-.265 13.625.092.102m-47.087-20.327v1.731m46.762-1.731h-.125m-46.474 0h-.163m-58.962 0h53.423m0 0v2.67m5.54 118.21h.778m45.142 0h.842m-105.747-120.869h-2.641m0 0-.236-.236m110.069 0h-3.401m-101.339 0h-5.329m110.069.236v-.236m-1.424.236h1.424m-48.208-.011-.023.011m0 0h-5.493m-.023-.011.023.011m56.049 1.606.327.327m-2.652 0h2.652m-.327-.327h-2.325m-117.163-1.842v.304m0 2.988v-2.988M-124.186-120.532v1.812m0 15.603v-15.603m0 15.603v.237m0 97.769v-15.62m0 15.62V-3.3m0 2.988V-3.3m0 3.293v-.305m66.388-2.443.039.04m2.547-14.612h.76m45.882 0h.084M-114.175-106.505h1.015M-8.486-17.327v-3.113m.516 13.607c0 .888-.011 1.65-.026 1.812m0 0-.45 4.777m0 0-.022.012m0 0v-2.487M0-123.824h-4.698m0 0v1.842m-112.394-1.842v1.842m0 0h-2.395m0 0v-1.842m0 0h-4.699M-55.23-2.719v2.487m-.023-.012.023.012m-.472-4.789.449 4.777m-.476-20.506v13.917m.517-13.607v3.113m-.041 17.083h-2.499m0 0 .122-2.6m0 0h-51.328m0 0 .123 2.6m-8.021 0h8.021m-8.021 0 .091-1.933m0 0h-3.05m0 0-.134-2.844m.014 3.533.051 1.084m-.051-1.084c-.016-.323-.027-1.847-.027-3.623m0 0v-1.722m.475 4.983-.328-.327m.328 2.17V-1.85m-.397 1.446.397.397m-2.856-1.481v1.084m2.408-1.084h-2.408m2.459 1.084h-2.459m0-1.084c-.489 0-.957-.191-1.303-.531-.346-.339-.54-.8-.54-1.281m0 2.988c0-.024.194-.048.54-.065.346-.018.814-.027 1.303-.027m0-123.023v1.083" transform="matrix(.35278 0 0 -.35278 45.29536 1.54111)" clip-path="url(#a)" fill="none" stroke="#000" stroke-width=".461" stroke-linejoin="bevel" stroke-miterlimit="22.926"/><path d="M0 0c0-.48.194-.941.54-1.281.345-.34.814-.531 1.303-.531m0-1.083c-.489 0-.958-.01-1.303-.027C.194-2.94 0-2.963 0-2.988m4.25 1.176.052-1.083M1.843-1.812H4.25m.052-1.083H1.843m2.459 0 .396-.397m0 1.842-.327.328m-.134 2.844.134-2.844m-.147 4.655c0-.888.006-1.65.013-1.811m-.013 1.811V1.812m0 0c0-1.776.011-3.3.026-3.624m5.271 3.534H4.237M4.371-1.122h3.05m0 0L7.33-3.056m56.109 0L63.805.84m.11 11.906v4.705m-.517-.568.517.568m-.517-.583v.015M63.915 17.451h3.164m1.551-.191.092-.101m52.7.292h.921m1.843-.036c0 .01-.194.019-.54.025-.345.007-.814.011-1.303.011m-120.5 0c-.489 0-.958-.004-1.303-.011-.346-.006-.54-.015-.54-.025m2.764.036h-.921m7.651 0H5.528M10.011 16.883h53.387m5.534-19.939L68.565.84M64.845 1.722h2.681M68.456 12.746v2.494m53.887 103.804v1.084m1.843-2.895c0 .48-.194.941-.54 1.281-.345.339-.814.53-1.303.53m0 1.084c.489 0 .958.01 1.303.027.346.017.54.041.54.066M119.962 3.533h-3.747m3.747-1.721v1.721m2.381-1.721h-2.381m2.381 15.639V1.812M67.512 3.533h-2.654m55.077-5.345c.016.324.027 1.848.027 3.624M119.935-1.812h2.408m0 0v3.624m-2.459-4.707-.397-.397m.448 1.48-.051-1.083m.065 4.617c.007.161.013.923.013 1.811M119.815-1.122l.134 2.844M1.843 99.889v15.532m0-15.532c-.211 0-.42-.036-.618-.107m.618 15.639h2.381m2.838-5.246v-7.306m0 0h-2.7m0 0v7.306m0 0h2.7M119.949 1.722h-3.76m.974-2.844v-1.934m-.071 121.738-.124-.123m.124.123v1.843m0 0-.124-.124m2.519-1.719.328-.327m-.328.327h-2.395m-.124-.327h2.847m.069 1.773-.397.397m0 0v-1.843m.328-.327.134-2.844m.013-1.812c0 .889-.006 1.65-.013 1.812m-.014 3.533-.051 1.084m4.302.397h-4.699m.397-.397h2.459M0 115.421h1.843m0-15.532c-.212 0-.422-.036-.621-.106m8.272-96.25h-5.27M1.843 1.812v-3.624m2.381 3.624H1.843m0 0v15.639m118.537 4.131c.007 0 .013.66.013 1.474s-.006 1.474-.013 1.474c-.007 0-.013-.66-.013-1.474s.006-1.474.013-1.474zm-.248 1.842.195-.194m0 0v-2.714m0 0 .053.053m0 0c.011.01.02.88.021 2.066.002 1.185-.004 2.347-.014 2.758m-.464-2.16.404-.003m-.372-2.718.372.004M7.094-1.45l.327.328m114.922-.69v-1.083m-2.459 0h2.459M66.427 117.817l-.153.153m50.694 2.319v.112m0-.112v-1.934m-115.125.689v-3.623m0-113.609H0m66.273 118.637.161-.16m-.161.16v-1.75m0 0 .001-.002m0 0v-.727m.153-.153.129-.129m2.399 2.612h46.762m6.626-122.112c.489 0 .958.191 1.303.531.346.34.54.801.54 1.281m0-2.988c0 .025-.194.048-.54.066-.345.017-.814.027-1.303.027m1.843 4.707h-1.843m1.843 18.757h-3.806m3.806 94.852h-1.843m-2.394.09h-3.759m-.45 4.778h1.228m-50.58-2.511H15.317m0 0-.089-.09m.283 2.761h50.762m-50.762-1.75v1.75m50.762-1.75H15.511m101.581 1.826h-3.735m-101.338 0H7.094m0 0 .236-.236m8.021 0 .16.16m-8.417-1.767v1.843m0-1.843.327-.327m-2.723.327h2.396M0 120.525h4.698m10.813-1.826-.001-.002m0 0v-.919m50.151-17.977c.018-.011.838-.019 1.843-.019m-13.755 0c1.005 0 1.824.008 1.842.019m-1.842 4.948c.166-.118.348-.247.525-.368.177-.121.35-.235.503-.325.104-.061.212-.12.311-.162.096-.041.183-.065.252-.067m-1.591.922v-4.967m1.842.019v4.019m0 0c-.006.002-.092.005-.251.007m12.164-4.045v4.967m-1.591-.922c-.159-.002-.246-.005-.252-.007m0 0v-4.019m.252 4.026c.069.002.155.026.252.067.098.042.207.101.311.162.152.09.325.204.502.325.177.121.359.25.526.368m-1.939-4.89.096-.058m-.096.058h-9.877m0 0-.097-.058m10.102 5.821v8.077m0 0h-.01m-.018 0h-.027m0 0v-7.109m.055 9.803H53.772m11.921 0v-.882m-10.118-1.812h.039m0 0c0 .265-.001.554-.002.831m.002-7.94v7.109m9.951-9.928v-3.912m-9.877 0v3.912m10.005 11.74h-.041m0 0c-.006-.117-.009-.525-.01-.646-.002-.366-.004-.787-.004-1.166m.055 2.694-.041-.882M10.289-.581v.037m.737 0h-.737m53.127-.037h-.8m-51.59 0H9.993m53.423.184v-.184m0 .184-.027-.013m0 0v-.171M10.192-.496l.003 14.523m105.32-.747v-1.456m.001-6.301.001-1.456m-46.346 99.138.002 14.608M116.207 15.71l.008-.47m-47.759 0 .008.47m50.194-.47.004.47m0 0h-2.455M116.215 15.24h2.443m-50.194.47h-1.381m0 0-.004-.47m0 0h1.377m47.751.47-.115.057M67.166 17.26l-.087.191m1.551-.191h-1.464m1.413-1.493-.115-.057m.166 1.55v-.101m50.115-1.366-.083-.083m-1.802.083h1.885M67.079 15.24v2.211M67.166 15.793v1.467m.683-1.467h-.683m-.083-.083.083.083m48.875 1.366v.101m5.294 0h-5.294m5.381.191-.087-.191m-118.507.049-.064.142m2.699-.142H2.828m2.7.142-.065-.142M118.658 6.396v8.844m0-8.844.087.087m0 0v9.31m2.677 1.658V6.396m0 0h-2.764m2.764 0-.087.087m0 10.777V6.483m0 0h-2.59M5.463 17.309V6.46m.065-.064-.065.064m.065 10.991V6.396M2.828 6.46v10.849M5.463 6.46H2.828M2.764 6.396v11.055m0-11.055.064.064m2.7-.064H2.764m112.751 5.428.33.003m0 0V5.52m0 0-.329.003m-46.544-.002-.146-.001m0 0v6.307m0 0 .146-.002" transform="matrix(.35278 0 0 -.35278 1.48537 44.06219)" clip-path="url(#b)" fill="none" stroke="#000" stroke-width=".461" stroke-linejoin="bevel" stroke-miterlimit="22.926"/><path d="M0 0h-2.741M0 .574V0m-.997.574H0m-.997 5.064V.574m-.583 5.064h.583m-1.744-.784c.385 0 .76.11.851.165.182.109.298.467.31.619M-2.741 4.34v.514m1.02-.514h-1.02m1.02-3.766V4.34M-2.741.574h1.02M-2.741 0v.574m-3.188 4.28.869-2.645m-1.735 0 .866 2.645m.869-2.645h-1.735M-8.266 0l1.895 5.62M-7.51 0h-.756M-7 1.571-7.51 0m2.655 1.571H-7M-4.344 0l-.511 1.571M-3.557 0h-.787m-1.107 5.62L-3.557 0m-2.814 5.62h.92m20.236-.866.869-2.646m-1.735 0 .866 2.646m.869-2.646h-1.735M12.448-.1l1.895 5.619M13.204-.1h-.756m1.266 1.571L13.204-.1m2.655 1.571h-2.145M16.369-.1l-.51 1.571M17.157-.1h-.788m-1.106 5.619L17.157-.1m-2.814 5.619h.92M20.996-.1h-3.465m3.465.651V-.1m-2.759.651h2.759m-1.275 1.457c-.237-.258-.645-.663-.79-.801-.29-.277-.608-.576-.694-.656m2.235 2.418c-.091-.164-.268-.407-.334-.487-.132-.161-.344-.396-.417-.474m1.043 2.086c0-.222-.052-.518-.077-.61-.052-.185-.169-.436-.215-.515m-1.384 2.669c.525 0 1.084-.278 1.232-.417.296-.278.444-.89.444-1.127m-3.115 1.207c.155.076.51.188.649.225.278.075.666.112.79.112m-1.439-1.139v.802m.041-.802h-.041m.588.31c-.107-.043-.259-.125-.308-.155-.099-.061-.209-.133-.239-.155m1.343.488c-.133 0-.337-.034-.405-.05-.136-.034-.329-.102-.391-.128m1.484-.05c-.088.076-.247.152-.305.171-.115.038-.313.057-.383.057m.966-.934c0 .158-.049.355-.073.414-.049.119-.161.254-.205.292m-.833-2.71c.428.471.798.988.876 1.13.157.282.235.724.235.874M17.531.697c.249.233.595.567.706.676.221.217.544.559.651.676M17.531-.1v.797M2.313-1.778h-12.897M2.313 7.434v-9.212m-3.685 9.212h3.685M-1.372 8.54V7.434M-6.899 8.54h5.527m-5.527-1.106V8.54m-3.685-1.106h3.685m-3.685-9.212v9.212m30.088 0h3.685M19.504 8.54V7.434M13.977 8.54h5.527m-5.527-1.106V8.54m-3.685-1.106h3.685m-3.685-9.212v9.212m12.897-9.212H10.292m12.897 9.212v-9.212m17.46 12.075c-.004-.533-.003-1.279.001-1.724.005-.445.011-.445.016 0 .004.445.005 1.191.001 1.724m2.813-2.058c.012 0 .022.578.022 1.29 0 .712-.01 1.29-.022 1.29-.013 0-.023-.578-.023-1.29 0-.712.01-1.29.023-1.29zm-2.831 2.058c.001.123.002.229.003.313.001.077.002.134.004.169 0 .016.001.027.001.033.001.005.001.007.001.007.001 0 .001-.002.002-.005 0-.005.001-.012.001-.023.001-.021.001-.053.002-.096.001-.053.002-.123.003-.208 0-.057.001-.121.001-.19m-.044-7.11.046-.047m-10.11.008.039.039M40.646.417l-.097-.049m-9.877 0-.097.049m9.974-.049h-9.877m-.074 2.819h10.025m.054-.968c0 .506-.003.917-.008.921M28.733 1.346h13.755m-1.811.873h-11.96M30.324.425h10.573m-.228 2.715H30.308m13.159 8.968c-.015-.161-.026-.923-.026-1.811m.026 1.811h-2.79m-11.96 0h-49.496m0 0c-.007-.161-.013-.923-.013-1.811m61.469 0h2.764m-64.233 0h49.509m11.96 0v1.811m-11.921.882v-.018c-.006-.125-.011-.25-.017-.375-.002-.051-.004-.102-.007-.153m0 0-.015-.336m0-1.811V2.219m1.591.921c-.077-.001-.173-.031-.282-.08-.11-.049-.232-.118-.349-.19-.287-.175-.651-.432-.96-.651m1.591.921c.162.003.249.005.251.008m0 0v7.149m-1.842 0h1.842m0 0c-.001.999-.826 1.81-1.842 1.811m0-1.811v1.811m1.855-1.533c.003.072.007.144.01.215.005.112.01.225.014.337m-1.84 1.863c.237 0 .47-.046.689-.136.22-.09.42-.222.59-.389.172-.169.31-.371.406-.593.051-.117.089-.239.115-.364.026-.125.04-.253.04-.381m-.037-.83c.005.093.009.185.013.278m8.217-113.138v11.906m0 0h.11m4.65-11.906h-.998m0 0-.041.882m-2.681 0-.041-.882m0 0h-.999m4.651 11.906h.109m0 0v-11.906M38.899-90.657h.943m0 0v-9.213m2.655 0v9.213m0 0h.943m-3.652 0v-11.906m.041.882c.008.162.013.923.013 1.811M42.551-102.563v11.906m-.054-9.213c0-.888.005-1.649.013-1.811m-4.137-.387v-1.745m5.583 4.477v1.455m0 6.304v1.454m-4.133-7.689c-.006 0-.011-.577-.011-1.29 0-.712.005-1.289.011-1.289.006 0 .011.577.011 1.289 0 .713-.005 1.29-.011 1.29zm2.693-2.579c.006 0 .011.577.011 1.289 0 .713-.005 1.29-.011 1.29-.006 0-.011-.577-.011-1.29 0-.712.005-1.289.011-1.289zm57.674 20.483c0 .707-.005 1.315-.011 1.448M100.19-79.908h2.849m0 0v1.448m0 0h-2.86m2.86-2.359h-2.849m2.849-1.44v1.44m-2.859-1.44c.006.148.01.747.01 1.44M100.18-82.259h2.859m-8.122-.03c-1.943-.163-3.617-.472-4.774-.882m-1.626 1.299c.012-.166.056-.326.131-.475.076-.153.183-.29.311-.404.146-.13.315-.229.498-.298.218-.083.452-.122.686-.122m4.764 2.347v-.389c.001-.128.001-.25.002-.364.001-.175.002-.326.003-.447.002-.125.004-.215.005-.265m-.01 1.465c-2.69-.168-4.975-.542-6.39-1.048m-.193 2.93c1.393-.466 3.762-.813 6.583-.963m-5.148 2.355c-.215 0-.43-.037-.628-.119-.166-.069-.316-.167-.442-.293-.117-.116-.209-.253-.271-.405-.037-.09-.063-.184-.079-.28-.016-.098-.02-.197-.015-.295m6.594.507c-.002-.032-.003-.088-.004-.164-.001-.076-.003-.172-.004-.286-.001-.138-.002-.3-.002-.479-.001-.172-.001-.355-.001-.541m-5.148 2.355c1.15-.414 2.981-.728 5.159-.885m8.121-1.473v-.911m-2.849 0v.911m-5.283.003v-.919m-6.39-1.048c-.032.449-.063.898-.092 1.347-.035.527-.069 1.055-.101 1.583M100.144-83.146l.036.887m-.036-.887-.001-.025m1.054 0h-1.054m2.896.396c0-.049-.053-.106-.14-.151-.088-.046-.239-.094-.4-.129-.161-.034-.388-.067-.598-.086-.21-.018-.477-.03-.704-.03m1.842.912v-.516m0 4.865v-.55m-1.842.91c.224 0 .487-.01.694-.026.211-.017.437-.046.597-.077.165-.032.318-.076.406-.117.091-.042.145-.095.145-.14m-2.901.36h1.059m-1.018-.91-.041.91m-5.183 0h5.183m-5.189-5.621h-4.806m4.806 0-.001.025m-.031.857.031-.857m.007 5.596-.037-.885m-5.159.885h5.196m6.242 0v71.936m-128.24 0v-78.345m128.24 0v.788M-27.043-3.823c-.488 0-.957-.194-1.302-.539-.346-.346-.54-.815-.54-1.304m131.924 0c0 .489-.194.958-.539 1.304-.346.345-.814.539-1.303.539m0-81.927c.489 0 .957.194 1.303.54.345.345.539.814.539 1.303m-131.924 0c0-.489.194-.958.54-1.303.345-.346.814-.54 1.302-.54m130.082 2.975v-.948m0-.184v.184m0 77.873v.184m0-.184v-72.06m-1.842-6.049c.489 0 .957.025 1.303.069.345.045.539.105.539.167M-28.885-5.666v-.184m1.842 1.842c-.488 0-.957-.194-1.302-.539-.346-.346-.54-.815-.54-1.303m1.842.236c-.488 0-.957-.025-1.302-.069-.346-.044-.54-.104-.54-.167m0-77.873V-5.85m0-77.873c0-.062.194-.122.54-.167.345-.044.814-.069 1.302-.069m-1.842.236c0-.488.194-.957.54-1.302.345-.346.814-.54 1.302-.54m-1.842 1.842v-.184m130.082-1.658c.489 0 .957.194 1.303.54.345.345.539.814.539 1.302m0 77.873c0 .063-.194.123-.539.167-.346.044-.814.069-1.303.069m1.842-.236c0 .488-.194.957-.539 1.303-.346.345-.814.539-1.303.539m-128.24-1.606h128.24m0-78.345h-128.24m0 0v-1.606m0 81.557v-1.606m128.24 0v1.606m0 0h-128.24m0-81.557h128.24m0 0v1.606m-1.054.814v-.026m-5.194 0v.026m5.194 0h-5.194m-.001-.001.001.001m5.194 0 .001-.001m-126.37 63.42c-.83-17.558-.787-35.208.132-52.752m3.225 56.97c-.706 0-1.416-.254-1.951-.722-.482-.422-.823-.989-1.043-1.588-.137-.373-.231-.765-.29-1.162-.037-.248-.061-.498-.073-.746m123.249 4.218H-22.869m123.249-4.218c-.034.706-.158 1.415-.426 2.07-.241.591-.606 1.141-1.113 1.536-.317.247-.683.426-1.073.523-.244.061-.496.089-.745.089m3.226-56.97c.918 17.544.962 35.194.131 52.752m-3.507-56.925c.248 0 .5.028.742.087.389.095.754.27 1.072.513.508.389.878.931 1.123 1.517.273.649.402 1.354.439 2.056m-122.968-4.173H96.873m-122.967 4.173c.012-.247.037-.495.075-.741.062-.394.158-.783.298-1.153.224-.593.569-1.153 1.052-1.568.535-.46 1.247-.711 1.95-.711m-3.375 4.173c.329.017.633.049.797.083m-.131 52.593c-.831-17.505-.787-35.101.131-52.593" transform="matrix(.35278 0 0 -.35278 10.31039 7.58401)" clip-path="url(#c)" fill="none" stroke="#000" stroke-width=".461" stroke-linejoin="bevel" stroke-miterlimit="22.926"/><path d="M0 0c-.164.031-.468.06-.798.075m3.507-56.3v-.625m0 .625c-.576-.035-1.149.159-1.567.551-.377.354-.634.847-.791 1.375-.098.33-.159.679-.191 1.035-.021.222-.03.446-.029.671M0 0c-.002.226.006.452.025.676.03.359.089.711.185 1.045.153.534.407 1.034.783 1.394.417.4.987.597 1.566.562m0 .617v-.617m119.742-59.902v-.625m0 .625H2.709M122.451 4.294v-.617m-119.892 0h119.892m2.428-56.27c.164-.035.468-.067.798-.084m-.798.084c.002-.638-.072-1.273-.266-1.85-.175-.521-.453-.997-.852-1.325-.25-.205-.541-.347-.856-.414-.196-.042-.401-.055-.604-.043m.15 59.902c.204.013.41-.001.607-.044.315-.07.607-.215.855-.424.398-.335.672-.818.843-1.344.189-.584.259-1.223.254-1.865m.798.075c-.33-.015-.634-.044-.798-.075m-.131-52.593c.918 17.491.962 35.088.131 52.593m1.615 15.979H-1.615m128.24-81.928H-1.615m0 81.743v.185M-1.615-65.949v.186m128.24 0v-.186m0 81.928v-.185m-4.174-12.117-1.01-2.498m0 0h.67m1.844-1.84c.001.182-.026.366-.081.546-.061.196-.154.38-.275.544-.137.187-.31.347-.506.47-.147.091-.305.162-.471.209-.167.048-.338.072-.511.071m1.844-1.84c-.001-.743-.002-1.401-.002-1.953m0 0L125.01 0M3.569 1.179l-1.01 2.498M0 0l1.057-2.614m0 0c0 .552-.001 1.21-.003 1.953m0 0c0 .15.018.301.056.451.042.171.11.335.2.487.108.182.247.344.409.478.162.135.345.24.542.312.205.075.421.113.638.112m0 0h.67M1.057-50.303l-.926-2.29M123.943-.673c0 1.017-.825 1.842-1.842 1.842m-119.192 0c-1.017 0-1.842-.825-1.842-1.842m0-51.572c0-1.017.825-1.842 1.842-1.842m119.192 0c1.017 0 1.842.825 1.842 1.842m0 51.572.012.012m-1.844 1.84-.01-.01m-119.192 0-.01.01m121.98-53.772-.926 2.29m0 0c0-.553.001-1.211.002-1.954m0 0c.001-.149-.017-.301-.055-.451-.043-.171-.11-.335-.2-.487-.108-.182-.247-.344-.409-.478-.162-.134-.345-.24-.543-.312-.204-.075-.42-.112-.637-.112m0 0h-.67m0 0 .86-2.128m-.2 2.138.01-.01m1.832 1.852.012-.012M2.709-56.225l.86 2.128m-.66.01-.01-.01m.67 0h-.67m0 0c-.232 0-.462.043-.678.128-.227.089-.435.222-.611.393-.15.146-.274.317-.367.506-.055.11-.098.226-.129.344-.041.156-.06.313-.06.469m0 0c.002.743.003 1.401.003 1.954m.01-1.942-.013-.012M1.067-.673l-.013.012m120.387 1.84H3.569M1.057-2.614v-47.689M122.101 1.169H2.909M1.067-.673v-51.572M2.909-54.087h119.192M123.943-52.245V-.673M3.569-54.097h117.872M123.953-50.303v47.689m-2.487-50.838c1.017 0 1.842.825 1.842 1.843M3.544.534c-.488 0-.957-.194-1.303-.54-.345-.345-.539-.814-.539-1.303m121.606 0c0 .489-.194.958-.54 1.303-.345.346-.814.54-1.302.54M1.702-51.609c0-.489.194-.958.539-1.303.346-.346.815-.54 1.303-.54M123.308-1.309v-50.3M3.544.534h117.922m0-53.986H3.544M94.565-4.717v-43.484m0 0H11.467m0 0v43.484m0 0h83.098M1.702-51.609v50.3m92.863-46.892H11.467m0 0v43.484m0 0h83.098m0 0v-43.484M70.131 33.331l.015-.058m0-1.963h-.562M63.028-84.056h.773m.072 2.307h-.845m.852.368h-.852m.852 8.66h-.852m0-4.85c.488.834.488 1.865 0 2.698m.265-1.131c-.028.327-.118.645-.265.938m0-2.312c.147.293.237.612.265.938m0 .947v-1.458m-.123-.34-.142-.142m.13.114-.13-.13m0 2.439.142-.142m-.142.158.13-.13m.718 2.587h-.848m.842 5.436h-.842m.836.368h-.836m-25.795-.368v.368m0-.368v-5.435m0-.185v.185m0-.185v-8.66m0-.368v.368m0-.368v-2.307m0 0v-.346m0 0v-1.032m0-.369v.369m-25.795 0v-.369m0 1.401v-1.032m0 1.032v.346m0 2.307v-2.307m0 2.675v-.368m0 9.028v-8.66m0 8.845v-.185m0 5.62v-5.435m0 5.803v-.368m25.795-18.702H11.438m25.795.369H11.438m0 1.032h25.795m-25.795.346h25.795m0 2.307H11.438m25.795.368H11.438m25.795 8.66H11.438m12.344-3.501c0 1.476-1.196 2.672-2.671 2.672-1.476 0-2.672-1.196-2.672-2.672 0-1.475 1.196-2.671 2.672-2.671 1.475 0 2.671 1.196 2.671 2.671zm6.449 0c0 1.476-1.196 2.672-2.671 2.672-1.476 0-2.672-1.196-2.672-2.672 0-1.475 1.196-2.671 2.672-2.671 1.475 0 2.671 1.196 2.671 2.671zm-12.805 0c0 1.476-1.196 2.672-2.672 2.672-1.475 0-2.672-1.196-2.672-2.672 0-1.475 1.197-2.671 2.672-2.671 1.476 0 2.672 1.196 2.672 2.671zm19.162 0c0 1.476-1.196 2.672-2.672 2.672-1.475 0-2.671-1.196-2.671-2.672 0-1.475 1.196-2.671 2.671-2.671 1.476 0 2.672 1.196 2.672 2.671zm-17.719 1.276c-.45-.791-.45-1.76 0-2.551m4.484 0c.45.791.45 1.76 0 2.551m-1.689 1.244c-.365.08-.742.08-1.106 0m1.829-.278c-.226.129-.47.222-.723.278m-1.106 0c-.253-.056-.497-.149-.723-.278m.723-4.761c.364-.08.741-.08 1.106 0m-1.829.277c.226-.128.47-.222.723-.277m1.106 0c.253.055.497.149.723.277m-1.829-.277v.379m0 4.281c-.976-.252-1.658-1.132-1.658-2.141 0-1.008.682-1.888 1.658-2.14m0 4.281V-73.702m0-.379v-4.281m1.106 0V-78.741m0 4.66v-4.281m0 4.66v-.379m0-4.281c.976.252 1.658 1.132 1.658 2.14 0 1.009-.682 1.889-1.658 2.141m-9.48-2.358c.032-.373.144-.734.328-1.058m0 2.551c-.184-.324-.296-.685-.328-1.058m4.812-1.493c.45.791.45 1.76 0 2.551m-1.689 1.244c-.364.08-.741.08-1.106 0m1.829-.278c-.226.129-.469.222-.723.278m-1.106 0c-.253-.056-.497-.149-.723-.278m.723-4.761c.365-.08.742-.08 1.106 0m-1.829.277c.226-.128.47-.222.723-.277m1.106 0c.254.055.497.149.723.277m-3.846 2.971v-1.457m1.501 3.177-1.379-1.379m1.351 1.366-1.338-1.338m1.882 1.043c-.976-.252-1.658-1.132-1.658-2.141 0-1.008.682-1.888 1.658-2.14m0 4.281V-73.702m0-5.039v.379m1.106 0c.976.252 1.658 1.132 1.658 2.14 0 1.009-.682 1.889-1.658 2.141m0 0v-4.281m-1.106 4.281v-4.281m1.106 0V-78.741m0 5.039v-.379m.517.308 1.378-1.379m-1.35 1.366 1.338-1.338m.012-2.167-1.378-1.379m1.366 1.351-1.338-1.338m-3.546 1.366 1.379-1.379m-1.366 1.351 1.338-1.338m6.384 4.884-1.378-1.379m1.35 1.366-1.338-1.338m3.534 1.338 1.338-1.338m-1.367 1.351 1.379-1.379m0-2.139L22.18-78.67m1.367 1.351-1.338-1.338m3.109 3.711c-.45-.791-.45-1.76 0-2.551m4.484 0c.45.791.45 1.76 0 2.551m-1.69 1.244c-.364.08-.741.08-1.105 0m1.828-.278c-.225.129-.469.222-.723.278m-1.105 0c-.254-.056-.497-.149-.723-.278m.723-4.761c.364-.08.741-.08 1.105 0m-1.828.277c.226-.128.469-.222.723-.277m1.105 0c.254.055.498.149.723.277m-1.828-.277v.379m0 4.281c-.976-.252-1.658-1.132-1.658-2.141 0-1.008.682-1.888 1.658-2.14m0 4.281V-73.702m0-.379v-4.281m1.105 0V-78.741m0 4.66v-4.281m0 4.66v-.379m0-4.281c.977.252 1.659 1.132 1.659 2.14 0 1.009-.682 1.889-1.659 2.141m.545.295 1.338-1.338m-1.366 1.351 1.379-1.379m-4.897-2.139 1.379-1.379m-1.366 1.351 1.338-1.338m.028 4.884-1.379-1.379m1.351 1.366-1.338-1.338m4.884-2.167-1.379-1.379m1.366 1.351-1.338-1.338m3.017 3.711c-.45-.791-.45-1.76 0-2.551m4.813 1.493c-.032.373-.144.734-.329 1.058m0-2.551c.185.324.297.685.329 1.058m-2.018 2.737c-.364.08-.741.08-1.105 0m1.828-.278c-.225.129-.469.222-.723.278m-1.105 0c-.254-.056-.498-.149-.723-.278" transform="matrix(.35278 0 0 -.35278 1.34003 14.56955)" clip-path="url(#d)" fill="none" stroke="#000" stroke-width=".461" stroke-linejoin="bevel" stroke-miterlimit="22.926"/><path d="M0 0c.364-.08.741-.08 1.106 0M-.723.278C-.497.149-.254.056 0 0m1.106 0c.253.056.497.149.723.278M0 0v.379m0 4.282c-.976-.253-1.658-1.133-1.658-2.141C-1.658 1.511-.976.631 0 .379m0 4.282V5.039m0-.378V.379m1.106 0V0m0 4.661V.379m0 4.66v-.378m0-4.282c.976.252 1.658 1.132 1.658 2.141 0 1.008-.682 1.888-1.658 2.141m2.017-1.412V1.791m-.122-.341L1.622.071m1.367 1.351L1.651.084M-.517 4.968l-1.378-1.379m1.35 1.366-1.338-1.338m-.012-2.167L-.517.071m-1.366 1.351L-.545.084m2.167 4.884 1.379-1.379m-1.35 1.366 1.338-1.338m-17.69-2.167 1.379-1.379m-1.366 1.351L-13.35.084M3.869 6.205h-25.795M3.869 11.64h-25.795m25.795.369h-25.795m51.591-.369v.369m0-.369V6.205m0-.185v.185m0-.185v-8.659m0-.369v.369m0-.369v-2.307m0 0v-.346m0 0v-1.032m0-.368v.368m-25.796 0v-.368m0 1.4v-1.032m0 1.032v.346m0 2.307v-2.307m0 2.676v-.369m0 9.028v-8.659m0 8.844V6.02m0 5.62V6.205m0 5.804v-.369M29.665-7.061H3.869m25.796.368H3.869m0 1.032h25.796m-25.796.346h25.796m0 2.307H3.869m25.796.369H3.869M29.665 6.02H3.869m12.345-3.5c0 1.475-1.196 2.671-2.671 2.671-1.476 0-2.672-1.196-2.672-2.671 0-1.476 1.196-2.672 2.672-2.672 1.475 0 2.671 1.196 2.671 2.672zm6.449 0c0 1.475-1.196 2.671-2.672 2.671-1.475 0-2.671-1.196-2.671-2.671 0-1.476 1.196-2.672 2.671-2.672 1.476 0 2.672 1.196 2.672 2.672zm-12.806 0c0 1.475-1.196 2.671-2.671 2.671-1.476 0-2.672-1.196-2.672-2.671 0-1.476 1.196-2.672 2.672-2.672 1.475 0 2.671 1.196 2.671 2.672zm19.163 0c0 1.475-1.196 2.671-2.672 2.671-1.475 0-2.672-1.196-2.672-2.671 0-1.476 1.197-2.672 2.672-2.672 1.476 0 2.672 1.196 2.672 2.672zM11.301 3.795c-.45-.791-.45-1.76 0-2.551m4.483 0c.451.791.451 1.76 0 2.551m-1.689 1.244c-.364.08-.741.08-1.105 0m1.828-.277c-.225.128-.469.222-.723.277m-1.105 0c-.254-.055-.498-.149-.723-.277M12.99 0c.364-.08.741-.08 1.105 0m-1.828.278c.225-.129.469-.222.723-.278m1.105 0c.254.056.498.149.723.278M12.99 0v.379m0 4.282c-.976-.253-1.659-1.133-1.659-2.141 0-1.009.683-1.889 1.659-2.141m0 4.282V5.039m0-.378V.379m1.105 0V0m0 4.661V.379m0 4.66v-.378m0-4.282c.977.252 1.659 1.132 1.659 2.141 0 1.008-.682 1.888-1.659 2.141M4.616 2.302c.031-.372.143-.733.328-1.058m0 2.551c-.185-.324-.297-.685-.328-1.058m4.812-1.493c.45.791.45 1.76 0 2.551M7.739 5.039c-.364.08-.742.08-1.106 0m1.829-.277c-.226.128-.47.222-.723.277m-1.106 0c-.253-.055-.497-.149-.723-.277M6.633 0c.364-.08.742-.08 1.106 0M5.91.278c.226-.129.47-.222.723-.278m1.106 0c.253.056.497.149.723.278M4.616 3.249V1.791m1.5 3.177L4.738 3.589m1.35 1.366L4.75 3.617m1.883 1.044c-.976-.253-1.658-1.133-1.658-2.141 0-1.009.682-1.889 1.658-2.141m0 4.282V5.039m0-5.039v.379m1.106 0c.976.252 1.658 1.132 1.658 2.141 0 1.008-.682 1.888-1.658 2.141m0 0V.379M6.633 4.661V.379m1.106 0V0m0 5.039v-.378m.516.307 1.379-1.379m-1.35 1.366 1.338-1.338m.012-2.167L8.255.071m1.367 1.351L8.284.084M4.738 1.45 6.116.071M4.75 1.422 6.088.084m6.385 4.884-1.379-1.379m1.351 1.366-1.338-1.338m3.533 1.338 1.338-1.338m-1.366 1.351 1.379-1.379m0-2.139L14.612.071m1.366 1.351L14.64.084m3.109 3.711c-.45-.791-.45-1.76 0-2.551m4.484 0c.45.791.45 1.76 0 2.551m-1.689 1.244c-.364.08-.741.08-1.105 0m1.828-.277c-.225.128-.469.222-.723.277m-1.105 0c-.254-.055-.498-.149-.723-.277M19.439 0c.364-.08.741-.08 1.105 0m-1.828.278c.225-.129.469-.222.723-.278m1.105 0c.254.056.498.149.723.278M19.439 0v.379m0 4.282c-.977-.253-1.659-1.133-1.659-2.141 0-1.009.682-1.889 1.659-2.141m0 4.282V5.039m0-.378V.379m1.105 0V0m0 4.661V.379m0 4.66v-.378m0-4.282c.976.252 1.658 1.132 1.658 2.141 0 1.008-.682 1.888-1.658 2.141m.545.294 1.338-1.338m-1.366 1.351 1.379-1.379M17.543 1.45 18.922.071m-1.366 1.351L18.894.084m.028 4.884-1.379-1.379m1.351 1.366-1.338-1.338M22.44 1.45 21.061.071m1.366 1.351L21.089.084m3.017 3.711c-.45-.791-.45-1.76 0-2.551m4.812 1.493c-.031.373-.143.734-.328 1.058m0-2.551c.185.325.297.686.328 1.058m-2.017 2.737c-.364.08-.741.08-1.106 0m1.829-.277c-.226.128-.47.222-.723.277m-1.106 0c-.253-.055-.497-.149-.723-.277M25.795 0c.365-.08.742-.08 1.106 0m-1.829.278c.226-.129.47-.222.723-.278m1.106 0c.253.056.497.149.723.278M25.795 0v.379m0 4.282c-.976-.253-1.658-1.133-1.658-2.141 0-1.009.682-1.889 1.658-2.141m0 4.282V5.039m0-.378V.379m1.106 0V0m0 4.661V.379m0 4.66v-.378m0-4.282c.976.252 1.658 1.132 1.658 2.141 0 1.008-.682 1.888-1.658 2.141m2.017-1.412V1.791m-.122-.341L27.418.071m1.366 1.351L27.446.084m-2.167 4.884L23.9 3.589m1.35 1.366-1.338-1.338M23.9 1.45 25.279.071m-1.367 1.351L25.25.084m2.168 4.884 1.378-1.379m-1.35 1.366 1.338-1.338M11.094 1.45 12.473.071m-1.366 1.351L12.445.084m17.22 6.121H3.869m25.796 5.435H3.869m25.796.369H3.869m78.055 83.495h.74m-.74.369h.74m0-.369v.369m0 0v5.435m-.74 0h.74m-.74.184h.74m0-.184v.184m-.74 2.794c.127.463.127.951 0 1.414m.74-4.208v8.66m-.74 0h.74m-.74.369h.74m0-.369v.369m0 0v2.07m-.011.237h-.729M36.782 95.504h45.142m-45.142.369h45.142m-45.142 0v-.369m45.142 0v.369m0 0v5.435m-45.142-5.435v5.435m0 0h45.142m-45.142.184h45.142m-45.142 0v-.184m45.142 0v.184m-41.272 1.36v4.282m0-4.282c.976.252 1.658 1.133 1.658 2.141s-.682 1.889-1.658 2.141m-1.106-4.282v4.282m0 0c-.976-.252-1.658-1.133-1.658-2.141s.682-1.889 1.658-2.141m-.545-.295-1.338 1.338m1.366-1.35-1.378 1.379m4.884 2.167-1.338 1.338m1.35-1.367-1.379 1.379m.029-4.884 1.338 1.338m-1.367-1.35 1.379 1.379m-4.884 2.167 1.338 1.338m-1.35-1.367 1.378 1.379m-1.501-3.177v1.458m5.242-.729c0 1.476-1.196 2.672-2.671 2.672-1.476 0-2.672-1.196-2.672-2.672 0-1.475 1.196-2.672 2.672-2.672 1.475 0 2.671 1.197 2.671 2.672zm-3.224-2.52v.379m0 4.282V107.513m0 0c-.254-.056-.497-.15-.723-.278m-.966-.966c-.185-.325-.297-.686-.329-1.058m0-.436c.032-.372.144-.733.329-1.058" transform="matrix(.35278 0 0 -.35278 13.10996 42.34769)" clip-path="url(#e)" fill="none" stroke="#000" stroke-width=".461" stroke-linejoin="bevel" stroke-miterlimit="22.926"/><path d="M0 0c.226-.128.469-.222.723-.278m0 0c.364-.079.741-.079 1.106 0m0 5.04c-.365.079-.742.079-1.106 0M1.829.101V-.278m0 5.04v-.379m0-4.661c.253.056.497.15.722.278m.967.966c.45.791.45 1.761 0 2.552m-.967.966c-.225.128-.469.222-.722.278m8.475-2.52c0 1.475-1.196 2.672-2.672 2.672-1.475 0-2.671-1.197-2.671-2.672C4.961.766 6.157-.43 7.632-.43c1.476 0 2.672 1.196 2.672 2.672zm4.33-2.141v4.282m0-4.282c.976.252 1.658 1.133 1.658 2.141s-.682 1.889-1.658 2.141M13.529.101v4.282m0 0c-.977-.252-1.659-1.133-1.659-2.141S12.552.353 13.529.101M11.646 3.34l1.338 1.338m-1.351-1.367 1.379 1.379m2.167-4.884 1.338 1.338m-1.366-1.35 1.379 1.379m-.013 2.167-1.338 1.338m1.351-1.367L15.151 4.69M13.012-.206l-1.379 1.379m1.351-1.367-1.338 1.338m5.107 1.098c0 1.475-1.196 2.672-2.672 2.672-1.475 0-2.671-1.197-2.671-2.672 0-1.476 1.196-2.672 2.671-2.672 1.476 0 2.672 1.196 2.672 2.672zm-3.224-2.52v.379m0 4.282V4.762m0 0c-.254-.056-.498-.15-.723-.278m-.967-.966c-.45-.791-.45-1.761 0-2.552M12.806 0c.225-.128.469-.222.723-.278m0 0c.364-.079.741-.079 1.105 0m0 5.04c-.364.079-.741.079-1.105 0M14.634.101V-.278m0 5.04v-.379m0-4.661c.254.056.498.15.723.278m.966.966c.45.791.45 1.761 0 2.552m-.966.966c-.225.128-.469.222-.723.278m8.568-2.52c0 1.475-1.196 2.672-2.672 2.672-1.475 0-2.672-1.197-2.672-2.672 0-1.476 1.197-2.672 2.672-2.672 1.476 0 2.672 1.196 2.672 2.672zm4.33-2.141v4.282m0-4.282c.976.252 1.658 1.133 1.658 2.141s-.682 1.889-1.658 2.141M26.426.101v4.282m0 0c-.976-.252-1.658-1.133-1.658-2.141S25.45.353 26.426.101M24.543 3.34l1.338 1.338m-1.35-1.367L25.91 4.69m2.167-4.884 1.338 1.338m-1.366-1.35 1.378 1.379m-.012 2.167-1.338 1.338m1.35-1.367L28.049 4.69M25.91-.206l-1.379 1.379m1.35-1.367-1.338 1.338m5.108 1.098c0 1.475-1.197 2.672-2.672 2.672-1.476 0-2.672-1.197-2.672-2.672 0-1.476 1.196-2.672 2.672-2.672 1.475 0 2.672 1.196 2.672 2.672zm-3.225-2.52v.379m0 4.282V4.762m0 0c-.253-.056-.497-.15-.723-.278m-.966-.966c-.45-.791-.45-1.761 0-2.552M25.703 0c.226-.128.47-.222.723-.278m0 0c.364-.079.742-.079 1.106 0m0 5.04c-.364.079-.742.079-1.106 0M27.532.101V-.278m0 5.04v-.379m0-4.661c.253.056.497.15.723.278m.966.966c.45.791.45 1.761 0 2.552m-.966.966c-.226.128-.47.222-.723.278M42.22 3.34l-1.338 1.338m1.351-1.367L40.854 4.69m-3.505-1.35 1.338 1.338m-1.351-1.367 1.379 1.379m-.028-4.884-1.338 1.338m1.366-1.35-1.379 1.379M40.337.101V-.278m0 .379v4.282m0 .379v-.379M39.232-.278c.364-.079.741-.079 1.105 0m0 5.04c-.364.079-.741.079-1.105 0m0-.379V4.762m0-4.661v4.282m0-4.661v.379m0 4.282c-.977-.252-1.659-1.133-1.659-2.141S38.255.353 39.232.101m0 4.661c-.254-.056-.498-.15-.723-.278m-.967-.966c-.45-.791-.45-1.761 0-2.552M38.509 0c.225-.128.469-.222.723-.278m1.105.379c.977.252 1.658 1.133 1.658 2.141s-.681 1.889-1.658 2.141m0-4.661c.254.056.498.15.723.278m.966.966c.185.325.297.686.329 1.058m0 .436c-.032.372-.144.733-.329 1.058m-.966.966c-.225.128-.469.222-.723.278m.545-4.956 1.338 1.338m-1.366-1.35 1.379 1.379m.122.34v1.458m.101-.729c0 1.475-1.196 2.672-2.672 2.672-1.475 0-2.671-1.197-2.671-2.672 0-1.476 1.196-2.672 2.671-2.672 1.476 0 2.672 1.196 2.672 2.672zm-6.357 0c0 1.475-1.196 2.672-2.671 2.672-1.476 0-2.672-1.197-2.672-2.672 0-1.476 1.196-2.672 2.672-2.672 1.475 0 2.671 1.196 2.671 2.672zm7.002-3.501v8.66m-45.142 0h45.142m-45.142-8.66v8.66m0 .369h45.142m-45.142 0v-.369m45.142 0v.369m0 0v2.307m0 0H-2.041m0-2.307v2.307m45.142.346H-2.041m0-.346v.346m45.142 0v-.346m0 .346v1.032m-45.142 0h45.142m-45.142-1.032v1.032m45.142 0v.368m-45.142 0h45.142m-45.142 0v-.368m37.036-7.049.597-.597m-30.123 0 .596.597m3.135 0 .596-.597m8.57 0 .597.597m3.134 0 .597-.597m8.57 0 .597.597M6.065.078l-.596.597m4.327 0L9.2.078m22.661 0-.597.597m4.328 0-.597-.597m-16.032 0-.597.597m4.328 0-.597-.597M-2.041 5.82h-.561m-58.979-109.63h.832m-.832 2.177c.001 0 .002.001.003.002m0 0 .691.399m.138-.08c0 .033-.017.063-.046.08-.028.016-.064.016-.092 0m0 2.002c.028-.017.064-.017.092 0 .029.016.046.046.046.079m-.138-.079-.691.399m0 0c-.001 0-.002 0-.003.001M-2.041-103.544v1.906M-2.041-96.238v.152m0 0v1.382m45.142 0v-1.382m0-.148v.148m0-5.555v-1.903M42.134-101.711l.067.039m-.192-.007c.026-.043.081-.057.125-.032m-45.083.055c.028.002.055.011.079.025m0 0 .032.018m44.331 5.476c.024.016.048.034.072.051m0 0h1.536m-45.142 1.382H-.21m41.58 0h1.731m-45.142-1.382h1.536m0 0c.043-.031.086-.061.13-.09M-2.179 1.241l-.424-.245m.562.165c0 .033-.017.063-.046.08-.028.016-.063.016-.092 0m0 2.002c.029-.016.064-.016.092 0 .029.016.046.047.046.08m-.562.165.424-.245m-53.536 7.662v-.739m24.413.739h-24.413m24.413-.739v.739m.831 0v-.739m24.414.739h-24.414m24.414-.739v.739m-61.334-8.342v-7.305m97.712-96.354c0 .037-.015.073-.042.099-.026.026-.062.041-.099.041m0 0v-.048m.092-.092c0 .024-.01.048-.027.065a.0915.0915 0 0 1-.065.027m.141-.092h-.049m-.615.14h.523m-.523 0v-.048m0 0h.523m-.523.048c-.037 0-.073-.015-.099-.041a.1377.1377 0 0 1-.042-.099m0 0h.049m.092.092c-.025 0-.048-.01-.065-.027-.018-.017-.027-.041-.027-.065m-.049-.524v.524m0-.524h.049m0 0v.524m-.049-.524c0-.037.015-.073.042-.099.026-.026.062-.041.099-.041m0 0v.048m-.092.092c0-.024.009-.047.027-.065.017-.017.04-.027.065-.027m.523-.048h-.523m.523 0v.048m0 0h-.523m.523-.048c.078 0 .141.063.141.14m0 0h-.049m-.092-.092c.051 0 .092.042.092.092m.049.524v-.524m-.049.524v-.524m-18.909 6.881c-.023.046-.07.075-.122.075-.051 0-.098-.029-.121-.075m.243 0 .043.022m0 0c-.031.063-.095.102-.165.102s-.133-.039-.165-.102m.044-.022-.044.022m.044-.022-3.836-7.671m3.792 7.693-3.835-7.671m.043-.022-.043.022m.043-.022c-.021-.042-.019-.092.006-.132.025-.04.068-.065.116-.065m-.165.219c-.029-.058-.026-.125.008-.18.033-.054.093-.087.157-.087m0 .048v-.048m0 .048h7.671m-7.671-.048h7.671m0 .048v-.048m0 .048c.047 0 .091.025.116.065.024.04.027.09.006.132m-.122-.245c.064 0 .123.033.157.087.033.055.036.122.008.18m-.043-.022.043.022m-.043-.022-3.836 7.671m3.879-7.649-3.836 7.671m5.197-8.93c.081 0 .156.042.198.111.043.068.046.154.01.226m0 0-.043-.022m-.165-.266c.064 0 .124.033.157.087.034.054.037.122.008.179m-.165-.315v.049m-5.154 11.012 5.362-10.724" transform="matrix(.35278 0 0 -.35278 26.80585 6.09939)" clip-path="url(#f)" fill="none" stroke="#000" stroke-width=".461" stroke-linejoin="bevel" stroke-miterlimit="22.926"/><path d="m0 0-.043-.022m0 0 5.362-10.724M0 0c-.039.079-.12.129-.208.129S-.377.079-.416 0m0 0 .043-.022m.33 0C-.074.041-.138.08-.208.08S-.342.041-.373-.022m-5.405-10.702L-.416 0m-5.362-10.724.043-.022m0 0L-.373-.022m-5.405-10.702c-.036-.072-.032-.158.01-.227.042-.068.117-.11.198-.11m0 0v.048m-.165.267c-.028-.057-.025-.125.008-.179.034-.054.093-.088.157-.088m10.724-.048H-5.57m10.724.048H-5.57m24.161 8.86c-.023.046-.07.075-.122.075-.051 0-.098-.029-.121-.075m.243 0 .043.022m0 0c-.031.062-.095.102-.165.102s-.133-.04-.164-.102m.043-.022-.043.022m.043-.022-3.836-7.671m3.793 7.693-3.836-7.672m.043-.021-.043.021m.043-.021c-.021-.042-.019-.092.006-.132.025-.04.068-.065.115-.065m-.164.218a.1815.1815 0 0 1 .008-.179c.033-.054.093-.087.156-.087m0 .048v-.048m0 .048h7.672m-7.672-.048h7.672m0 .048v-.048m0 .048c.047 0 .091.025.116.065.024.04.027.09.005.132m-.121-.245c.064 0 .123.033.157.087.033.054.036.122.008.179m-.044-.021.044.021m-.044-.021-3.835 7.671m3.879-7.65-3.836 7.672m5.197-8.93c.081 0 .156.042.198.11.043.069.046.155.01.227m0 0-.043-.022m-.165-.267c.064 0 .124.034.157.088.034.054.037.122.008.179m-.165-.315v.048M18.677 0l5.362-10.724M18.677 0l-.043-.022m0 0 5.362-10.724M18.677 0c-.039.079-.12.129-.208.129s-.168-.05-.208-.129m0 0 .044-.022m.329 0c-.031.063-.095.102-.165.102s-.133-.039-.164-.102m-5.406-10.702L18.261 0m-5.362-10.724.043-.022m0 0L18.305-.022m-5.406-10.702c-.036-.072-.032-.158.01-.227.043-.068.118-.11.198-.11m0 0v.048m-.165.267c-.028-.057-.025-.125.008-.179.034-.054.093-.088.157-.088m10.724-.048H13.107m10.724.048H13.107m5.511 3.018c.075 0 .136.058.141.132m0 0-.049.003m-.092-.087c.049 0 .089.038.092.087m-.092-.135v.048m.253 1.94-.112-1.856m.112 1.856-.048.003m0 0L18.71-7.86m.161 1.853v.009m0 0h-.048m0-.006v.006m.048 1.851v-1.851m0 1.851h-.048m0 0v-1.851m.048 1.851c0 .037-.014.073-.041.099-.026.026-.062.041-.099.041m0 0v-.048m.092-.092c0 .024-.01.048-.027.065s-.041.027-.065.027m-.523.048h.523m-.523 0v-.048m0 0h.523m-.523.048c-.038 0-.073-.015-.1-.041a.14087.14087 0 0 1-.041-.099m0 0h.048m.093.092c-.025 0-.048-.01-.065-.027a.09012.09012 0 0 1-.028-.065m-.048-1.851v1.851m0-1.851h.048m0 0v1.851m-.048-1.851v-.009m0 0 .049.003m-.001.006c0-.002 0-.004.001-.006m.064-1.859-.113 1.856M18.18-7.863l.048.003m0 0-.112 1.856m.064-1.859c.004-.074.066-.132.14-.132m0 0v.048m-.092.087c.003-.049.043-.087.092-.087m.298-.048h-.298m.298.048h-.298M-1.012-9.272l-1.3-.337m1.3.337-.137.015m0 0-1.128-.293m-.035-.059.035.059m.641.59.624-.312m-.624.312-.066-.021m0 0 .553-.276m.176 1.565-.663-1.268m.663 1.268-.008.089m0 0-.721-1.378m1.219.651-.49.638M-.483-8.33l.003.074m0 0-.501.653m2.269 1.169L-.483-8.33m1.771 1.896-.059.009m0 0L-.48-8.256M.703-5.265l.585-1.169M.703-5.265v-.108m0 0 .526-1.052M-.49-7.651.703-5.265M-.49-7.651v-.108m0 0L.703-5.373M-1.001-6.63l.511-1.021m-.511 1.021v-.108m0 0 .511-1.021M-2.081-8.791l1.08 2.161m-1.08-2.161.043-.022m0 0 1.037 2.075M-2.59-8.537l.509-.254m-.231-.818-.278 1.072m.313-1.013-.256.984M27.808.008v-12.72M32.734.023 27.808.008M32.734.023v.719m0 0h.902m0 0v1.391m-49.011 0h49.011M-15.375.742v1.391m.902-1.391h-.902m.902 0V.023m4.926-.015-4.926.015M-9.547-12.712V.008M-14.473-12.727l4.926.015m-4.926-.015v-.707m47.207 0h-47.207m47.207 0v.707m-4.926.015 4.926-.015m-47.194.908c-.007-.078-.013-.461-.013-.908m4.926.015-.893.892m0 0c-.006.005-.011.009-.016.013m0 0-4.004-.012m-.013-1.615c0-.444.006-.825.013-.906m0 0h47.181m0 0c.008.081.013.462.013.906m-46.932 4.407h-.2m.2 0 2.355-.082M-11.662-1.745l1.206.849m-4.004.012 4.004-.012m-4.004.012.086-.861m0 0h2.712m44.383.861-.085-.861m.085.861c.008.078.013.46.013.907M27.808.008l.894-.891m0 0c.005-.005.01-.01.016-.013m0 0 4.003.012m-.085-10.074.085-.861m.013-.908c0 .447-.005.83-.013.908M32.367-18.102l.354 3.762m-2.798 3.382-1.205-.849m4.003-.012-4.003.012m1.205.849h2.713m-2.713 9.213-1.205.849m-.016-10.924V-.883m.016-10.924a.10097.10097 0 0 1-.016-.013m1.219.862h.002m-.002 1.112v-1.112m.183 1.849c-.101-.004-.183-.333-.183-.737m2.538.819-2.355-.082M32.459-9.027v5.351m-2.355.082 2.355-.082m-2.538.819c0-.405.082-.734.183-.737m-.183 1.849v-1.112m0 1.112h.002m2.713 0h-2.713m2.698-1.931h-.162m-3.757-8.144-.894-.892M-10.44-.883V-11.82m0 10.937.893.891m-4.926.015c0-.447.006-.829.013-.907m4.004-.012c.005.003.01.008.016.013m-3.934-10.075-.086-.861m2.798.861 1.206-.849m-1.206.849h-2.712m2.714 9.213h-.002m.002 0v-1.112m-.183-.737c.102.003.183.332.183.737m-.183-.737-2.355-.082m0-5.351v5.351m2.538-6.17c0 .404-.081.733-.183.737m.183-.737v-1.112m0 0h-.002m-2.443-7.144-.355 3.762m.062 10.664h.2M-14.105-18.102h46.472m.092 9.075h.162m-2.488 114.882c0 .002-.096.004-.269.005-.173.002-.407.002-.652.002m.921-.201v.194m0-.378v.184m-.921-.192c.245 0 .479.001.652.003.173.001.269.003.269.005m-.921.177c.245 0 .479 0 .652.002.173.001.269.003.269.005m-.921-.192v.185m0-.185h-99.496m0 .185h99.496m-99.496-.185v.185m-.921-.177c0-.002.097-.004.27-.005.172-.002.407-.003.651-.003" transform="matrix(.35278 0 0 -.35278 30.84488 38.76164)" clip-path="url(#g)" fill="none" stroke="#000" stroke-width=".461" stroke-linejoin="bevel" stroke-miterlimit="22.926"/><path d="M0 0c0-.002.097-.004.27-.005.173-.002.407-.003.651-.003M0-.184V0m0 .193V0m.921.201C.677.201.443.2.27.199.097.197 0 .195 0 .193m100.417.008H.921M.404-124.261c0-.003.098-.005.27-.006.173-.002.407-.002.652-.002m-.922.2v-.192m0 .377v-.185m.922.193c-.245 0-.479-.001-.652-.003-.172-.001-.27-.003-.27-.005m.922-.177c-.245 0-.479 0-.652-.002-.172-.001-.27-.003-.27-.006m.922.193v-.185m0 .185h99.496m0-.185H1.326m99.496.185v-.185m.921.177c0 .002-.097.004-.27.005-.173.002-.407.003-.651.003m.921-.193c0 .003-.097.005-.27.006-.173.002-.407.002-.651.002m.921.177v-.185m0-.192v.192m-.921-.2c.244 0 .478 0 .651.002.173.001.27.003.27.006m-100.417-.008h99.496" transform="matrix(.35278 0 0 -.35278 5.7253 1.48664)" clip-path="url(#h)" fill="none" stroke="#000" stroke-width=".461" stroke-linejoin="bevel" stroke-miterlimit="22.926"/><path d="M0 0c0 .01-.008.018-.018.018C-.029.018-.037.01-.037 0c0-.01.008-.018.019-.018C-.008-.018 0-.01 0 0" transform="matrix(.35278 0 0 -.35278 .09437 46.03613)" clip-path="url(#i)" fill-rule="evenodd" stroke="#000" stroke-width=".461" stroke-linejoin="bevel" stroke-miterlimit="22.926"/><path d="M0 0c0 .01-.008.018-.018.018C-.029.018-.037.01-.037 0c0-.01.008-.018.019-.018C-.008-.018 0-.01 0 0" transform="matrix(.35278 0 0 -.35278 46.69934 46.03613)" clip-path="url(#j)" fill-rule="evenodd" stroke="#000" stroke-width=".461" stroke-linejoin="bevel" stroke-miterlimit="22.926"/><path d="M0 0c0 .01-.008.018-.018.018C-.029.018-.037.01-.037 0c0-.01.008-.018.019-.018C-.008-.018 0-.01 0 0" transform="matrix(.35278 0 0 -.35278 1.49186 3.34426)" clip-path="url(#k)" fill-rule="evenodd" stroke="#000" stroke-width=".461" stroke-linejoin="bevel" stroke-miterlimit="22.926"/><path d="M0 0c0 .01-.008.018-.018.018C-.029.018-.037.01-.037 0c0-.01.008-.018.019-.018C-.008-.018 0-.01 0 0" transform="matrix(.35278 0 0 -.35278 45.30185 3.34426)" clip-path="url(#l)" fill-rule="evenodd" stroke="#000" stroke-width=".461" stroke-linejoin="bevel" stroke-miterlimit="22.926"/><path d="m0 0 6.963 12.03c.385.656 1.062.656 1.447 0L15.427-.016c.401-.688.054-1.236-.764-1.236H.775C-.108-1.252-.428-.731 0 0" transform="matrix(.35278 0 0 -.35278 27.48015 29.565)" clip-path="url(#m)" fill-rule="evenodd"/><path d="M0 0c-.475.623-.732 1.385-.732 2.168 0 1.975 1.601 3.577 3.576 3.577s3.577-1.602 3.577-3.577c0-1.291-.697-2.483-1.822-3.116" transform="matrix(.35278 0 0 -.35278 29.21772 29.01287)" clip-path="url(#n)" fill="none" stroke="#fff" stroke-width=".65" stroke-miterlimit="22.926"/><path d="m0 0-1.355.17-1.355.169.949 1.135.95 1.135.406-1.305z" transform="matrix(.35278 0 0 -.35278 29.79318 29.42569)" clip-path="url(#o)" fill="#fff" fill-rule="evenodd"/><path d="M0 0h.006l3.28-.005-.533-1.849-2.334.004-.002-.003c-.017.002-.034.004-.051.004-.188 0-.341-.143-.341-.319v-.018l-1.788.674-.009.001C-1.688-.66-.918-.003 0 0" transform="matrix(.35278 0 0 -.35278 9.99275 19.56915)" clip-path="url(#p)" fill-rule="evenodd"/><path d="M0 0V-4.039l1.781.194V-.15l-.729.571C.94.515.792.572.631.572.289.572.01.317 0 0Z" transform="matrix(.35278 0 0 -.35278 9.37006 22.1562)" clip-path="url(#q)" fill-rule="evenodd"/><path d="m0 0-2.684.008V.005c-.915 0-1.661.697-1.661 1.552v.067h.001l-.002.337 1.78.216v-.212c.003-.177.159-.321.349-.321.011 0 .023.001.034.002l2.175-.002z" transform="matrix(.35278 0 0 -.35278 10.90365 24.44408)" clip-path="url(#r)" fill-rule="evenodd"/><path d="M0 0c.718-.364 1.19-1.086 1.19-1.857h-.002l.003-.003-.001-3.757-.003-.001c-.017-.286-.271-.514-.581-.514-.155 0-.297.058-.402.151l-.841.604.01 3.252z" transform="matrix(.35278 0 0 -.35278 11.27404 19.6392)" clip-path="url(#s)" fill-rule="evenodd"/><path d="m0 0 .679.562h2.314L3.708 0v-.605l-.715-.516H.679L0-.605Z" transform="matrix(.35278 0 0 -.35278 9.87672 21.77323)" clip-path="url(#t)" fill-rule="evenodd"/><path d="M0 0h.006l3.28-.005-.533-1.849L.42-1.85l-.003-.003c-.017.002-.034.004-.051.004-.188 0-.341-.143-.341-.319v-.018l-1.788.674-.009.001C-1.688-.66-.918-.003 0 0" transform="matrix(.35278 0 0 -.35278 13.17678 19.56915)" clip-path="url(#u)" fill-rule="evenodd"/><path d="M0 0c.718-.364 1.19-1.086 1.19-1.857h-.002l.002-.003v-3.757l-.003-.001c-.017-.286-.271-.514-.581-.514-.156 0-.297.058-.402.151l-.841.604.01 3.252z" transform="matrix(.35278 0 0 -.35278 14.45814 19.6392)" clip-path="url(#v)" fill-rule="evenodd"/><path d="m0 0-2.683.008V.005c-.916 0-1.662.697-1.662 1.552v.067h.001l-.002.337 1.78.216v-.212c.003-.177.159-.321.349-.321.012 0 .023.001.034.002l2.175-.002z" transform="matrix(.35278 0 0 -.35278 14.08768 24.44408)" clip-path="url(#w)" fill-rule="evenodd"/><path d="M0 0h-.907v6.332l.871.631c.1.075.228.12.366.12.321 0 .584-.245.584-.545l.002-.001V1.644Z" transform="matrix(.35278 0 0 -.35278 14.55451 24.4439)" clip-path="url(#x)" fill-rule="evenodd"/><path d="m0 0 .678.562h2.315L3.708 0v-.605l-.715-.516H.678L0-.605Z" transform="matrix(.35278 0 0 -.35278 13.06082 21.77323)" clip-path="url(#y)" fill-rule="evenodd"/><path d="M0 0h.006l3.28-.005-.533-1.849-2.334.004-.003-.003c-.016.002-.033.004-.05.004-.188 0-.341-.143-.341-.319v-.018l-1.788.674-.009.001C-1.688-.66-.918-.003 0 0" transform="matrix(.35278 0 0 -.35278 16.36092 19.56915)" clip-path="url(#z)" fill-rule="evenodd"/><path d="m0 0-.001-3.78L0-3.781c-.001-.008-.001-.018-.001-.027 0-.324.283-.589.631-.589.166 0 .318.061.431.16l.001-.001.718.554v3.012z" transform="matrix(.35278 0 0 -.35278 15.73854 20.2759)" clip-path="url(#A)" fill-rule="evenodd"/><path d="M0 0V-4.039l1.781.194V-.15l-.729.571C.94.515.792.572.631.572.289.572.01.317 0 0Z" transform="matrix(.35278 0 0 -.35278 15.73823 22.1562)" clip-path="url(#B)" fill-rule="evenodd"/><path d="M0 0c.718-.364 1.19-1.086 1.19-1.857h-.002l.003-.003-.001-3.757-.003-.001c-.017-.286-.271-.514-.581-.514-.155 0-.297.058-.402.151l-.841.604.01 3.252z" transform="matrix(.35278 0 0 -.35278 17.6422 19.6392)" clip-path="url(#C)" fill-rule="evenodd"/><path d="m0 0-2.684.008V.005c-.915 0-1.661.697-1.661 1.552v.067h.001l-.002.337 1.78.216v-.212c.003-.177.159-.321.349-.321.011 0 .023.001.034.002l2.175-.002z" transform="matrix(.35278 0 0 -.35278 17.27182 24.44408)" clip-path="url(#D)" fill-rule="evenodd"/><path d="M0 0h-.907v6.332l.871.631c.101.075.228.12.366.12.322 0 .584-.245.584-.545l.002-.001V1.644Z" transform="matrix(.35278 0 0 -.35278 17.73862 24.4439)" clip-path="url(#E)" fill-rule="evenodd"/><path d="M0 0h.006l3.28-.005-.533-1.849L.42-1.85l-.003-.003c-.017.002-.034.004-.051.004-.188 0-.341-.143-.341-.319v-.018l-1.788.674-.009.001C-1.688-.66-.918-.003 0 0" transform="matrix(.35278 0 0 -.35278 22.72905 19.56915)" clip-path="url(#F)" fill-rule="evenodd"/><path d="M0 0V-4.039l1.781.194V-.15l-.729.571C.94.515.792.572.631.572.29.572.01.317 0 0Z" transform="matrix(.35278 0 0 -.35278 22.10632 22.1562)" clip-path="url(#G)" fill-rule="evenodd"/><path d="M0 0c.718-.364 1.19-1.086 1.19-1.857h-.002l.003-.003-.001-3.757-.003-.001c-.016-.286-.271-.514-.581-.514-.155 0-.297.058-.402.151l-.841.604.01 3.252z" transform="matrix(.35278 0 0 -.35278 24.01034 19.6392)" clip-path="url(#H)" fill-rule="evenodd"/><path d="m0 0-2.684.008V.005c-.915 0-1.661.697-1.661 1.552v.067h.001l-.002.337 1.78.216v-.212c.003-.177.159-.321.349-.321.012 0 .023.001.034.002l2.175-.002z" transform="matrix(.35278 0 0 -.35278 23.63995 24.44408)" clip-path="url(#I)" fill-rule="evenodd"/><path d="m0 0 .678.562h2.315L3.708 0v-.605l-.715-.516H.678L0-.605Z" transform="matrix(.35278 0 0 -.35278 22.6131 21.77323)" clip-path="url(#J)" fill-rule="evenodd"/><path d="M0 0h.006l3.28-.005-.533-1.849-2.334.004-.002-.003c-.017.002-.034.004-.051.004-.188 0-.341-.143-.341-.319v-.018l-1.788.674-.009.001C-1.688-.66-.918-.003 0 0" transform="matrix(.35278 0 0 -.35278 25.91311 19.56915)" clip-path="url(#K)" fill-rule="evenodd"/><path d="M0 0c.718-.364 1.19-1.086 1.19-1.857h-.002l.003-.003-.001-3.757-.003-.001c-.017-.286-.271-.514-.581-.514-.155 0-.297.058-.402.151l-.841.604.01 3.252z" transform="matrix(.35278 0 0 -.35278 27.19444 19.6392)" clip-path="url(#L)" fill-rule="evenodd"/><path d="m0 0-2.683.008V.005c-.916 0-1.662.697-1.662 1.552v.067h.001l-.002.337 1.78.216v-.212c.003-.177.159-.321.349-.321.011 0 .023.001.034.002l2.175-.002z" transform="matrix(.35278 0 0 -.35278 26.84314 24.37818)" clip-path="url(#M)" fill-rule="evenodd"/><path d="M0 0h-.907v6.332l.871.631c.101.075.228.12.366.12.322 0 .584-.245.584-.545l.002-.001V1.644Z" transform="matrix(.35278 0 0 -.35278 27.29082 24.4439)" clip-path="url(#N)" fill-rule="evenodd"/><path d="m0 0 .679.562h2.314L3.708 0v-.605l-.715-.516H.679L0-.605Z" transform="matrix(.35278 0 0 -.35278 25.79712 21.77323)" clip-path="url(#O)" fill-rule="evenodd"/><path d="M0 0h.006l3.28-.005-.533-1.849-2.334.004-.002-.003c-.017.002-.034.004-.051.004-.188 0-.341-.143-.341-.319v-.018l-1.788.674-.009.001C-1.688-.66-.918-.003 0 0" transform="matrix(.35278 0 0 -.35278 29.09722 19.56915)" clip-path="url(#P)" fill-rule="evenodd"/><path d="m0 0-.001-3.78L0-3.781c-.001-.008-.001-.018-.001-.027 0-.324.283-.589.631-.589.166 0 .318.061.431.16l.001-.001.718.554v3.012z" transform="matrix(.35278 0 0 -.35278 28.47492 20.2759)" clip-path="url(#Q)" fill-rule="evenodd"/><path d="M0 0V-4.039l1.781.194V-.15l-.729.571C.94.515.792.572.631.572.29.572.01.317 0 0Z" transform="matrix(.35278 0 0 -.35278 28.47453 22.1562)" clip-path="url(#R)" fill-rule="evenodd"/><path d="M0 0c.718-.364 1.19-1.086 1.19-1.857h-.002l.003-.003-.001-3.757-.003-.001c-.016-.286-.271-.514-.581-.514-.155 0-.297.058-.402.151l-.841.604.01 3.252z" transform="matrix(.35278 0 0 -.35278 30.3785 19.6392)" clip-path="url(#S)" fill-rule="evenodd"/><path d="m0 0-2.684.008V.005c-.915 0-1.661.697-1.661 1.552v.067h.001l-.002.337 1.78.216v-.212c.003-.177.159-.321.349-.321.011 0 .023.001.034.002l2.175-.002z" transform="matrix(.35278 0 0 -.35278 30.00812 24.44408)" clip-path="url(#T)" fill-rule="evenodd"/><path d="M0 0h-.907v6.332l.871.631c.101.075.228.12.366.12.322 0 .584-.245.584-.545l.002-.001V1.644Z" transform="matrix(.35278 0 0 -.35278 30.47488 24.4439)" clip-path="url(#U)" fill-rule="evenodd"/><path d="M0 0h4.323c.115 0 .209-.094.209-.209v-3.757c0-.115-.094-.208-.209-.208H0c-.115 0-.209.093-.209.208v3.757C-.209-.094-.115 0 0 0" transform="matrix(.35278 0 0 -.35278 7.32568 22.96742)" clip-path="url(#V)" fill-rule="evenodd"/><path d="M0 0h.006l3.28-.005-.533-1.849L.42-1.85l-.003-.003c-.017.002-.034.004-.051.004-.188 0-.341-.143-.341-.319v-.018l-1.788.674-.009.001C-1.688-.66-.918-.003 0 0" transform="matrix(.35278 0 0 -.35278 16.3423 25.15792)" clip-path="url(#W)" fill-rule="evenodd"/><path d="M0 0V-4.039l1.781.194V-.15l-.729.571C.94.515.792.572.631.572.29.572.01.317 0 0Z" transform="matrix(.35278 0 0 -.35278 15.71957 27.74498)" clip-path="url(#X)" fill-rule="evenodd"/><path d="M0 0c.718-.364 1.19-1.086 1.19-1.857h-.002l.003-.003-.001-3.757-.003-.001c-.016-.286-.271-.514-.581-.514-.155 0-.297.058-.402.151l-.841.604.01 3.252z" transform="matrix(.35278 0 0 -.35278 17.62354 25.22799)" clip-path="url(#Y)" fill-rule="evenodd"/><path d="m0 0-2.684.008V.005c-.915 0-1.661.697-1.661 1.552v.067h.001l-.002.337 1.78.216v-.212c.003-.177.159-.321.349-.321.012 0 .023.001.034.002l2.175-.002z" transform="matrix(.35278 0 0 -.35278 17.25316 30.03286)" clip-path="url(#Z)" fill-rule="evenodd"/><path d="m0 0 .678.562h2.315L3.708 0v-.604l-.715-.517H.678L0-.604Z" transform="matrix(.35278 0 0 -.35278 16.2263 27.362)" clip-path="url(#aa)" fill-rule="evenodd"/><path d="M0 0h.006l3.28-.005-.533-1.849-2.334.004-.002-.003c-.017.002-.034.004-.051.004-.188 0-.341-.143-.341-.319v-.018l-1.788.674-.009.001C-1.688-.66-.918-.003 0 0" transform="matrix(.35278 0 0 -.35278 19.52635 25.15792)" clip-path="url(#ab)" fill-rule="evenodd"/><path d="M0 0c.718-.364 1.19-1.086 1.19-1.857h-.002l.003-.003-.001-3.757-.003-.001c-.017-.286-.271-.514-.581-.514-.155 0-.297.058-.402.151l-.841.604.01 3.252z" transform="matrix(.35278 0 0 -.35278 20.80764 25.22799)" clip-path="url(#ac)" fill-rule="evenodd"/><path d="m0 0-2.683.008V.005c-.916 0-1.662.697-1.662 1.552v.067h.001l-.002.337 1.78.216v-.212c.003-.177.159-.321.349-.321.011 0 .023.001.034.002l2.175-.002z" transform="matrix(.35278 0 0 -.35278 20.45638 29.96696)" clip-path="url(#ad)" fill-rule="evenodd"/><path d="M0 0h-.907v6.332l.871.631c.101.075.228.12.366.12.322 0 .584-.245.584-.545l.002-.001V1.644Z" transform="matrix(.35278 0 0 -.35278 20.90402 30.03268)" clip-path="url(#ae)" fill-rule="evenodd"/><path d="m0 0 .679.562h2.314L3.708 0v-.604l-.715-.517H.679L0-.604Z" transform="matrix(.35278 0 0 -.35278 19.41033 27.362)" clip-path="url(#af)" fill-rule="evenodd"/><path d="M0 0h.006l3.28-.005-.533-1.849-2.334.004-.002-.003c-.017.002-.034.004-.051.004-.188 0-.341-.143-.341-.319v-.018l-1.788.674-.009.001C-1.688-.66-.918-.003 0 0" transform="matrix(.35278 0 0 -.35278 22.71045 25.15792)" clip-path="url(#ag)" fill-rule="evenodd"/><path d="m0 0-.001-3.78L0-3.781c-.001-.008-.001-.017-.001-.026 0-.325.283-.59.631-.59.166 0 .318.061.431.16l.001-.001.718.554v3.012z" transform="matrix(.35278 0 0 -.35278 22.08815 25.86468)" clip-path="url(#ah)" fill-rule="evenodd"/><path d="M0 0V-4.039l1.781.194V-.15l-.729.571C.94.515.792.572.631.572.29.572.01.317 0 0Z" transform="matrix(.35278 0 0 -.35278 22.08773 27.74498)" clip-path="url(#ai)" fill-rule="evenodd"/><path d="M0 0c.718-.364 1.19-1.086 1.19-1.857h-.002l.003-.003-.001-3.757-.003-.001c-.016-.286-.271-.514-.581-.514-.155 0-.297.058-.402.151l-.841.604.01 3.252z" transform="matrix(.35278 0 0 -.35278 23.99171 25.22799)" clip-path="url(#aj)" fill-rule="evenodd"/><path d="m0 0-2.684.008V.005c-.915 0-1.661.697-1.661 1.552v.067h.001l-.002.337 1.78.216v-.212c.003-.177.159-.321.349-.321.011 0 .023.001.034.002l2.175-.002z" transform="matrix(.35278 0 0 -.35278 23.62136 30.03286)" clip-path="url(#ak)" fill-rule="evenodd"/><path d="M0 0h-.907v6.332l.871.631c.101.075.228.12.366.12.322 0 .584-.245.584-.545l.002-.001V1.644Z" transform="matrix(.35278 0 0 -.35278 24.08812 30.03268)" clip-path="url(#al)" fill-rule="evenodd"/><path d="m0 0-1.164 3.257h.713L.373.846l.798 2.411h.697L.702 0Z" transform="matrix(.35278 0 0 -.35278 10.78378 30.0283)" clip-path="url(#am)"/><path d="M0 0h-2.905v.08l1.48 1.838-1.48 1.808v.081h2.827l.06-.745h-.088c-.024.204-.081.349-.172.435-.09.087-.217.131-.379.131h-1.637l1.243-1.52L-2.442.39h1.809c.103 0 .216.019.339.059.083.028.154.078.209.15.055.072.101.183.138.335L.141.918Z" transform="matrix(.35278 0 0 -.35278 26.33765 26.86537)" clip-path="url(#an)" fill="#fff" fill-rule="evenodd" stroke="#fff" stroke-width=".65" stroke-miterlimit="22.926"/><path d="M0 0h4.323c.115 0 .209-.094.209-.209v-3.757c0-.115-.094-.208-.209-.208H0c-.115 0-.209.093-.209.208v3.757C-.209-.094-.115 0 0 0" transform="matrix(.35278 0 0 -.35278 31.35884 22.97412)" clip-path="url(#ao)" fill-rule="evenodd"/><path d="M0 0h4.323c.115 0 .209-.094.209-.209v-3.757c0-.115-.094-.208-.209-.208H0c-.115 0-.209.093-.209.208v3.757C-.209-.094-.115 0 0 0" transform="matrix(.35278 0 0 -.35278 13.66276 28.55669)" clip-path="url(#ap)" fill-rule="evenodd"/><path d="M0 0v3.23h.491V.549h1.22V0Z" transform="matrix(.35278 0 0 -.35278 13.80955 29.86444)" clip-path="url(#aq)" fill="#fff"/><path d="m0 0 .451.073C.465-.081.504-.199.567-.28.63-.362.706-.403.796-.403c.096 0 .177.05.243.147.065.098.098.23.098.395 0 .157-.031.282-.094.374C.98.605.903.651.812.651.753.651.682.635.598.604l.052.508c.126-.003.222.033.289.11.066.078.099.182.099.311 0 .109-.024.197-.073.262-.049.065-.114.098-.194.098s-.148-.037-.204-.112c-.056-.073-.091-.182-.103-.324l-.429.098c.029.197.074.354.135.472.06.118.144.21.252.277.108.068.228.102.362.102.229 0 .413-.098.551-.293.114-.16.171-.341.171-.543 0-.285-.117-.514-.35-.684.139-.04.25-.129.334-.269.083-.138.125-.307.125-.504 0-.286-.078-.529-.234-.731-.155-.201-.35-.302-.582-.302-.22 0-.402.085-.547.254C.107-.496.023-.275 0 0" transform="matrix(.35278 0 0 -.35278 14.49465 29.55946)" clip-path="url(#ar)" fill="#fff"/><path d="M0 0v3.23h.491V.549h1.22V0Z" transform="matrix(.35278 0 0 -.35278 31.49371 24.2873)" clip-path="url(#as)" fill="#fff"/><path d="M0 0v-.58h-1.634c.018.219.071.427.16.623.088.197.263.457.524.781.21.262.339.44.386.534.064.128.097.256.097.382 0 .138-.028.245-.084.321-.056.074-.133.112-.232.112-.097 0-.174-.04-.232-.118-.057-.079-.091-.209-.1-.391l-.464.062c.028.344.115.59.261.74.146.149.328.225.547.225.24 0 .428-.087.566-.26.136-.174.205-.389.205-.647 0-.147-.02-.286-.059-.419-.039-.133-.101-.271-.186-.416C-.302.852-.404.714-.55.533-.697.353-.791.232-.83.173-.869.114-.901.056-.925 0Z" transform="matrix(.35278 0 0 -.35278 32.73975 24.0827)" clip-path="url(#at)" fill="#fff"/><path d="M0 0v3.23h.491V.549h1.22V0Z" transform="matrix(.35278 0 0 -.35278 7.53353 24.28063)" clip-path="url(#au)" fill="#fff"/><path d="M0 0h-.466v2.353c-.17-.214-.371-.372-.602-.473v.566c.122.053.254.154.397.303.142.149.24.323.293.522H0Z" transform="matrix(.35278 0 0 -.35278 8.64496 24.28063)" clip-path="url(#av)" fill="#fff"/><path d="M0 0h117.951c1.006 0 1.828-.803 1.828-1.785v-50.416c0-.982-.822-1.785-1.828-1.785H0c-1.005 0-1.827.803-1.827 1.785v50.416C-1.827-.803-1.005 0 0 0m7.955-5.053h83.234v-43.749H7.955Z" transform="matrix(.35278 0 0 -.35278 2.58502 14.37358)" clip-path="url(#aw)" fill="#ebebeb" fill-rule="evenodd"/><path d="M0 0h117.951c1.006 0 1.828-.803 1.828-1.785v-8.013h-28.59v4.745H7.955v-4.745h-9.782v8.013C-1.827-.803-1.005 0 0 0" transform="matrix(.35278 0 0 -.35278 2.58502 14.37358)" clip-path="url(#ax)" fill="#0077be" fill-rule="evenodd"/><path d="M0 0c1.017 0 1.842-.825 1.842-1.843 0-1.017-.825-1.842-1.842-1.842-1.017 0-1.843.825-1.843 1.842C-1.843-.825-1.017 0 0 0" transform="matrix(.35278 0 0 -.35278 36.703 23.22756)" clip-path="url(#ay)" fill="#e30613" fill-rule="evenodd"/><path d="m0 0 .045.585C.436.539.712.429.881.21c.151-.219.222-.475.222-.721 0-.375-.124-.676-.418-.896-.302-.21-.721-.31-1.272-.292-.258 0-.49.055-.703.155-.223.101-.401.238-.525.42-.134.183-.205.402-.205.622 0 .173.044.347.107.502.08.155.222.292.391.402.178.109.365.173.632.201v-.649c-.204 0-.267-.054-.374-.137-.115-.082-.222-.192-.222-.31 0-.338.374-.475 1.059-.484.267 0 .534.027.721.109.178.083.267.192.267.375 0 .109-.054.219-.143.301C.32-.1.205-.018 0 0m-.107 2.019-1.094-.274 1.094-.293Zm1.175.31-.605-.155v-.877l.605-.164V.585l-3.044.867v.722l3.044.85zm-3.052.85v1.269c0 .201.044.375.124.503.098.137.205.246.338.301.134.064.303.101.454.101.178 0 .33-.064.463-.165.133-.1.124-.201.187-.356l1.477.566v-.712l-1.335-.448.027-.411h1.308v-.648Zm.551.639h.712v.494c0 .091-.017.191-.089.246-.08.064-.151.101-.24.101-.08 0-.169-.019-.205-.037-.053-.018-.071-.046-.115-.091-.027-.055-.063-.11-.063-.165Zm-.551 1.754v.621H.481v1.005h.578V5.572Zm1.21 3.252c-.214 0-.401-.028-.525-.101-.116-.064-.134-.155-.134-.283 0-.119.018-.21.125-.292.116-.082.151-.119.356-.137.204 0 .463-.018.667-.018.347 0 .863-.01.855.438-.009.329-.205.402-.846.402-.16 0-.418 0-.498-.009m.302-1.535c-.498 0-.889.11-1.156.338-.259.229-.401.512-.401.813 0 .247.08.457.24.63.161.174.365.302.597.384.258.082.48.091.747.091.49-.009.908-.082 1.157-.283.267-.201.383-.484.383-.831 0-.155-.027-.32-.081-.484-.071-.165-.231-.32-.453-.448-.232-.128-.588-.21-1.033-.21m-.098 4.586v1.096h1.629v-.292l-.356-.11c.134-.091.24-.21.311-.329.054-.119.081-.265.081-.393 0-.383-.125-.657-.401-.84-.276-.183-.658-.283-1.139-.283-.347 0-.641.055-.872.155-.231.101-.418.256-.534.42-.107.183-.178.384-.178.585 0 .265.089.511.249.712.169.201.499.329.846.375v-.667c-.152 0-.258-.018-.356-.091-.116-.083-.232-.192-.232-.311 0-.192.169-.365.356-.42.214-.064.445-.091.694-.091.258 0 .499.009.686.073.204.064.302.219.302.429 0 .137-.035.256-.124.338-.08.082-.241.155-.428.155l-.008-.511zm.454 2.649-1.094-.284 1.094-.292zm1.175.31-.605-.155v-.886l.605-.164v-.539l-3.043.858v.731l3.043.84zm-3.052 2.092v.521l3.043-.804v-.676l-3.043-.813v.667l2.162.539zm1.868 1.617-1.094-.283 1.094-.293zm1.175.31-.605-.155v-.886l.605-.164v-.549l-3.043.868v.731l3.043.84zm-3.034.905v2.009h.542l1.923-1.288-.009 1.306h.578v-2.073l-.569.009-1.914 1.306v-1.269zm0 2.393v1.991h.542l1.914-1.288.009 1.288h.578v-2H.481l-1.914 1.306v-1.297zm-.009 2.886H1.05v-.621h-3.043z" transform="matrix(.35278 0 0 -.35278 3.81653 32.31314)" clip-path="url(#az)" fill-rule="evenodd"/><path d="M0 0v2.792h.536V1.31l.626.712h.659l-.691-.738L1.87 0h-.577L.785.908.536.647V0Z" transform="matrix(.35278 0 0 -.35278 41.60061 24.37)" clip-path="url(#aA)"/><path d="m0 0-.666 2.792h.576L.331.874l.511 1.918h.67l.489-1.95.429 1.95h.567L2.319 0h-.598l-.555 2.087L.611 0Z" transform="matrix(.35278 0 0 -.35278 42.51367 24.37)" clip-path="url(#aB)"/><path d="M0 0v-1.026c.173.201.379.303.619.303.123 0 .234-.024.333-.069.099-.046.174-.104.224-.175.05-.072.084-.15.103-.237.019-.086.028-.22.028-.402v-1.186H.772v1.069c0 .212-.011.346-.031.404-.021.057-.056.101-.108.135-.051.034-.116.051-.193.051-.089 0-.168-.021-.238-.065-.07-.043-.121-.108-.153-.195C.016-1.48 0-1.609 0-1.778v-1.014h-.535V0Z" transform="matrix(.35278 0 0 -.35278 43.85924 23.3851)" clip-path="url(#aC)"/><path d="M0 0h1.598v2.947h1.421M5.702 0H4.103v2.947h-1.42" transform="matrix(.35278 0 0 -.35278 38.42505 24.3974)" clip-path="url(#aD)" fill="none" stroke="#000" stroke-width=".737" stroke-miterlimit="22.926"/><path d="M0 0h7.334L5.866-2.949l-4.415-.005Z" transform="matrix(.35278 0 0 -.35278 2.42937 18.45603)" clip-path="url(#aE)" fill="#e63027" fill-rule="evenodd"/><path d="M0 0h2.921L1.458-2.923Z" transform="matrix(.35278 0 0 -.35278 3.14396 20.02493)" clip-path="url(#aF)" fill="#e63027" fill-rule="evenodd"/><path d="m0 0-.034-.034" transform="matrix(.35278 0 0 -.35278 36.06676 19.98243)" clip-path="url(#aG)" fill="none" stroke="#000" stroke-width=".14" stroke-linejoin="bevel" stroke-miterlimit="22.926"/><path d="M0 0h13.74c2.082-1.878 3.391-4.596 3.391-7.62s-1.309-5.742-3.392-7.62H.001c-2.082 1.878-3.391 4.596-3.391 7.62S-2.081-1.878 0 0" transform="matrix(.35278 0 0 -.35278 36.52964 16.45902)" clip-path="url(#aH)" fill="#ebebeb" fill-rule="evenodd"/><path d="M0 0h12.279c1.86-1.678 3.03-4.107 3.03-6.809 0-2.703-1.17-5.132-3.031-6.81H.001c-1.861 1.678-3.03 4.107-3.03 6.81C-3.029-4.107-1.86-1.678 0 0" transform="matrix(.35278 0 0 -.35278 36.78742 16.74498)" clip-path="url(#aI)" fill="#4c565c" fill-rule="evenodd"/><path d="M0 0h12.279c1.86-1.678 3.03-4.107 3.03-6.809 0-2.703-1.17-5.132-3.031-6.81H.001c-1.861 1.678-3.03 4.107-3.03 6.81C-3.029-4.107-1.86-1.678 0 0" transform="matrix(.35278 0 0 -.35278 36.78742 26.22913)" clip-path="url(#aJ)" fill="#4c565c" fill-rule="evenodd"/><path d="M0 0v-2.655h-7.317" transform="matrix(.35278 0 0 -.35278 40.29075 27.80686)" clip-path="url(#aK)" fill="none" stroke="#ebebeb" stroke-width=".921" stroke-linejoin="round" stroke-miterlimit="22.926"/><path d="m0 0 1.709 1.076 1.709 1.077v-4.306L1.709-1.076z" transform="matrix(.35278 0 0 -.35278 37.1655 28.73746)" clip-path="url(#aL)" fill="#ebebeb" fill-rule="evenodd"/><path d="m0 0 1.454-2.309 1.454-2.309h-5.816l1.454 2.309z" transform="matrix(.35278 0 0 -.35278 37.96778 18.05746)" clip-path="url(#aM)" fill="#ebebeb" fill-rule="evenodd"/><path d="m0 0-1.454 2.309-1.454 2.309h5.816L1.454 2.309Z" transform="matrix(.35278 0 0 -.35278 39.86911 20.2772)" clip-path="url(#aN)" fill="#ebebeb" fill-rule="evenodd"/><path d="M0 0v2.792h2.07v-.473H.563v-.618h1.402V1.23H.563V.471h1.56V0Z" transform="matrix(.35278 0 0 -.35278 35.81731 32.94595)" clip-path="url(#aO)"/><path d="M0 0v2.792h.844L1.35.887l.501 1.905h.845V0h-.523v2.198L1.619 0h-.543L.523 2.198V0Z" transform="matrix(.35278 0 0 -.35278 36.73217 32.94595)" clip-path="url(#aP)"/><path d="M0 0v-.497h-1.876c.021.188.081.366.183.534.102.168.303.391.602.67.241.224.389.377.444.457.073.11.11.219.11.327 0 .119-.032.211-.096.275-.064.064-.153.096-.266.096-.112 0-.2-.034-.266-.101s-.104-.179-.115-.335l-.533.053c.032.295.131.506.299.635.168.128.377.192.629.192.275 0 .492-.074.649-.223.157-.149.236-.333.236-.554 0-.126-.023-.245-.068-.359-.044-.114-.116-.233-.214-.357C-.346.731-.463.612-.632.457-.801.302-.908.199-.953.148c-.045-.051-.082-.1-.11-.148Z" transform="matrix(.35278 0 0 -.35278 38.4768 32.77052)" clip-path="url(#aQ)"/><path d="M0 0c.271 0 .482-.097.634-.29.182-.228.273-.607.273-1.137 0-.528-.092-.907-.275-1.139-.15-.19-.361-.285-.632-.285s-.49.104-.657.313c-.166.209-.249.581-.249 1.117 0 .526.091.904.274 1.135C-.481-.096-.27 0 0 0m0-.444c-.064 0-.122-.021-.173-.062-.051-.041-.09-.115-.118-.222-.037-.139-.056-.371-.056-.699 0-.327.017-.552.05-.675.033-.122.075-.204.125-.245.05-.04.108-.061.172-.061.065 0 .123.021.174.063.05.041.09.115.118.221.036.137.055.37.055.697 0 .328-.017.553-.049.675-.033.123-.075.205-.125.246C.122-.465.065-.444 0-.444" transform="matrix(.35278 0 0 -.35278 38.9235 31.95694)" clip-path="url(#aR)"/><path d="M0 0c.271 0 .482-.097.634-.29.182-.228.273-.607.273-1.137 0-.528-.092-.907-.275-1.139-.15-.19-.361-.285-.632-.285s-.49.104-.656.313c-.167.209-.25.581-.25 1.117 0 .526.091.904.274 1.135C-.481-.096-.27 0 0 0m0-.444c-.064 0-.122-.021-.173-.062-.051-.041-.09-.115-.118-.222-.037-.139-.056-.371-.056-.699 0-.327.017-.552.05-.675.033-.122.075-.204.125-.245.05-.04.108-.061.172-.061.065 0 .123.021.174.063.05.041.09.115.118.221.036.137.055.37.055.697 0 .328-.017.553-.049.675-.033.123-.075.205-.125.246C.122-.465.065-.444 0-.444" transform="matrix(.35278 0 0 -.35278 39.68866 31.95694)" clip-path="url(#aS)"/><path d="m0 0 .339.053c.018-.136.072-.239.159-.312.086-.072.208-.109.364-.109.158 0 .275.033.351.096.076.065.114.14.114.226 0 .078-.034.138-.101.183-.047.031-.164.069-.35.116C.625.317.45.371.353.418.256.464.182.528.132.61.082.692.057.783.057.881c0 .091.02.174.062.251.041.077.097.141.168.191.053.04.126.073.218.101.092.027.191.041.296.041.159 0 .298-.024.418-.069.121-.046.209-.108.266-.186.057-.078.096-.182.118-.313L1.268.851c-.015.104-.06.185-.132.244-.073.058-.177.087-.31.087-.157 0-.27-.026-.337-.078C.422 1.052.388.991.388.922c0-.045.014-.085.042-.12C.458.764.502.735.562.71.596.698.697.668.864.623c.243-.065.412-.118.507-.159.097-.042.172-.102.227-.181.054-.078.082-.176.082-.293 0-.114-.034-.221-.101-.323-.067-.101-.163-.178-.288-.234-.126-.055-.268-.082-.427-.082-.263 0-.463.054-.601.164C.125-.376.038-.214 0 0" transform="matrix(.35278 0 0 -.35278 40.65591 32.7323)" clip-path="url(#aT)"/><path d="m0 0 .354-.044C.298-.251.195-.411.044-.526-.107-.64-.3-.697-.535-.697c-.296 0-.53.091-.703.273-.174.182-.26.438-.26.767 0 .34.087.604.262.792.176.188.403.282.682.282.271 0 .492-.092.663-.276C.28.957.366.697.366.364.366.343.365.313.364.272h-1.508c.012-.222.075-.392.188-.51.114-.118.254-.177.423-.177.125 0 .233.033.322.099S-.052-.145 0 0m-1.125.554H.004c-.015.17-.059.298-.13.383-.109.132-.25.198-.424.198-.157 0-.29-.053-.397-.158-.107-.105-.166-.246-.178-.423" transform="matrix(.35278 0 0 -.35278 41.8804 32.71552)" clip-path="url(#aU)"/><path d="M0 0v2.022h.308v-.306c.079.143.152.238.218.284.067.045.14.068.22.068.116 0 .233-.037.353-.11L.98 1.639c-.083.05-.167.075-.251.075-.075 0-.142-.023-.202-.068-.06-.045-.102-.107-.127-.187-.039-.122-.057-.255-.057-.4V0Z" transform="matrix(.35278 0 0 -.35278 42.156 32.94532)" clip-path="url(#aV)"/><path d="M241.674 552.776h.343v-.394h-.343zm0-.77h.343v-2.022h-.343z" transform="matrix(.35278 0 0 -.35278 -42.64124 226.96752)" clip-path="url(#aW)"/><path d="m0 0 .354-.044C.298-.251.195-.411.044-.526-.107-.64-.3-.697-.535-.697c-.296 0-.53.091-.703.273-.174.182-.26.438-.26.767 0 .34.087.604.262.792.176.188.403.282.682.282.271 0 .492-.092.663-.276C.28.957.366.697.366.364.366.343.365.313.364.272h-1.508c.012-.222.075-.392.188-.51.114-.118.254-.177.423-.177.125 0 .233.033.322.099S-.052-.145 0 0m-1.125.554H.004c-.015.17-.059.298-.129.383-.11.132-.251.198-.425.198-.157 0-.29-.053-.397-.158-.107-.105-.166-.246-.178-.423" transform="matrix(.35278 0 0 -.35278 43.40944 32.71552)" clip-path="url(#aX)"/><path d="m0 0 .339.053c.018-.136.072-.239.159-.312.086-.072.208-.109.365-.109s.274.033.35.096c.076.065.114.14.114.226 0 .078-.034.138-.101.183-.047.031-.164.069-.35.116C.625.317.45.371.353.418.256.464.182.528.132.61.082.692.057.783.057.881c0 .091.02.174.062.251.041.077.097.141.168.191.053.04.126.073.218.101.092.027.191.041.296.041.159 0 .298-.024.418-.069.121-.046.209-.108.266-.186.057-.078.096-.182.118-.313L1.268.851c-.015.104-.06.185-.132.244-.073.058-.177.087-.31.087-.157 0-.27-.026-.337-.078C.422 1.052.388.991.388.922c0-.045.014-.085.042-.12C.458.764.502.735.562.71.596.698.697.668.865.623c.242-.065.411-.118.506-.159.097-.042.172-.102.227-.181.054-.078.082-.176.082-.293 0-.114-.034-.221-.101-.323-.066-.101-.163-.178-.288-.234-.126-.055-.268-.082-.426-.082-.264 0-.464.054-.602.164C.125-.376.038-.214 0 0" transform="matrix(.35278 0 0 -.35278 43.63804 32.7323)" clip-path="url(#aY)"/><path d="M11.95878 8.50438H2.55867" fill="none" stroke="#000" stroke-width=".17639"/></svg>