<svg width="545.73638" height="173.00054" viewBox="0 0 144.39275 45.77306" xml:space="preserve" xmlns="http://www.w3.org/2000/svg"><path d="M1.34204.1323C.67184.1323.13229.67183.13229 1.34203v43.08884c0 .6702.53955 1.20974 1.20975 1.20974H143.0507c.6702 0 1.20974-.53955 1.20974-1.20974V1.34204c0-.6702-.53955-1.20975-1.20974-1.20975zM8.5881.82991c.53458-.00006.96796.43332.9679.9679.00006.53458-.43332.96796-.9679.9679-.53438-.00022-.96745-.43352-.96739-.9679-.00006-.53438.433-.96767.96739-.9679zm41.61503 0c.53458-.00006.96796.43332.9679.9679.00006.53458-.43332.96796-.9679.9679-.53458.00006-.96796-.43332-.9679-.9679-.00006-.53458.43332-.96796.9679-.9679zm44.03452 0c.53458-.00006.96796.43332.9679.9679.00006.53458-.43332.96796-.9679.9679-.53458.00006-.96796-.43332-.9679-.9679-.00006-.53458.43332-.96796.9679-.9679zm39.67974 0c.53438.00023.96745.43352.9674.9679.00005.53438-.43302.96768-.9674.9679-.53458.00006-.96796-.43332-.9679-.9679-.00006-.53458.43332-.96796.9679-.9679zM8.5881 43.0501c.53438-.00006.96768.433.9679.96738.00007.53458-.43331.96796-.9679.9679-.53437-.00023-.96744-.43352-.96738-.9679.00023-.53418.4332-.96716.96739-.96739zm41.61504 0c.53438-.00006.96767.433.9679.96738.00006.53458-.43332.96796-.9679.9679-.53458.00006-.96796-.43332-.9679-.9679.00022-.53438.43352-.96745.9679-.96739zm44.03452 0c.53438-.00006.96767.433.9679.96738.00006.53458-.43332.96796-.9679.9679-.53458.00006-.96796-.43332-.9679-.9679.00023-.53438.43352-.96745.9679-.96739zm39.67974 0c.53418.00022.96716.4332.9674.96738.00005.53438-.43302.96768-.9674.9679-.53458.00006-.96796-.43332-.9679-.9679.00023-.53438.43352-.96745.9679-.96739zM2.5027 21.20284c.53458-.00006.96796.43332.9679.9679.00006.53458-.43332.96796-.9679.9679-.53438-.00023-.96744-.43352-.96738-.9679-.00006-.53438.433-.96767.96738-.9679zm138.90625.26458c.53458-.00006.96796.43332.9679.9679.00006.53458-.43332.96796-.9679.9679-.53438-.00022-.96745-.43352-.96739-.9679-.00006-.53438.43301-.96767.9674-.9679z" fill="#4d4d4d" stroke="#000" stroke-width=".265"/></svg>