<?xml version="1.0" encoding="UTF-8" standalone="no"?>
<svg
   width="270"
   height="85.591331"
   viewBox="0 0 71.437499 22.646041"
   xml:space="preserve"
   version="1.1"
   id="svg1"
   xmlns="http://www.w3.org/2000/svg"
   xmlns:svg="http://www.w3.org/2000/svg"><defs
     id="defs1" /><g
     transform="matrix(0.494743,0,0,0.494743,-13.646363,-26.34267)"
     fill="#e6e6e6"
     stroke="#000000"
     id="g1"><path
       d="m 28.92497,53.37767 c -0.6702,0 -1.20974,0.53955 -1.20974,1.20974 v 43.08885 c 0,0.6702 0.53955,1.20974 1.20974,1.20974 h 141.70867 c 0.67019,0 1.20974,-0.53955 1.20974,-1.20974 V 54.5874 c 0,-0.6702 -0.53955,-1.20974 -1.20974,-1.20974 H 28.92497 Z m 7.24607,0.69763 a 0.9678,0.9678 0 0 1 0.9679,0.9679 0.9678,0.9678 0 0 1 -0.9679,0.9679 0.9678,0.9678 0 0 1 -0.96738,-0.9679 0.9678,0.9678 0 0 1 0.96738,-0.9679 z m 41.61503,0 a 0.9678,0.9678 0 0 1 0.9679,0.9679 0.9678,0.9678 0 0 1 -0.9679,0.9679 0.9678,0.9678 0 0 1 -0.9679,-0.9679 0.9678,0.9678 0 0 1 0.9679,-0.9679 z m 44.03453,0 a 0.9678,0.9678 0 0 1 0.9679,0.9679 0.9678,0.9678 0 0 1 -0.9679,0.9679 0.9678,0.9678 0 0 1 -0.9679,-0.9679 0.9678,0.9678 0 0 1 0.9679,-0.9679 z m 39.67974,0 a 0.9678,0.9678 0 0 1 0.96739,0.9679 0.9678,0.9678 0 0 1 -0.96739,0.9679 0.9678,0.9678 0 0 1 -0.9679,-0.9679 0.9678,0.9678 0 0 1 0.9679,-0.9679 z M 36.17104,96.29546 a 0.9678,0.9678 0 0 1 0.9679,0.96738 0.9678,0.9678 0 0 1 -0.9679,0.9679 0.9678,0.9678 0 0 1 -0.96738,-0.9679 0.9678,0.9678 0 0 1 0.96738,-0.96738 z m 41.61503,0 a 0.9678,0.9678 0 0 1 0.9679,0.96738 0.9678,0.9678 0 0 1 -0.9679,0.9679 0.9678,0.9678 0 0 1 -0.9679,-0.9679 0.9678,0.9678 0 0 1 0.9679,-0.96738 z m 44.03453,0 a 0.9678,0.9678 0 0 1 0.9679,0.96738 0.9678,0.9678 0 0 1 -0.9679,0.9679 0.9678,0.9678 0 0 1 -0.9679,-0.9679 0.9678,0.9678 0 0 1 0.9679,-0.96738 z m 39.67974,0 a 0.9678,0.9678 0 0 1 0.96739,0.96738 0.9678,0.9678 0 0 1 -0.96739,0.9679 0.9678,0.9678 0 0 1 -0.9679,-0.9679 0.9678,0.9678 0 0 1 0.9679,-0.96738 z"
       stroke-width="0.265"
       id="path1" /><rect
       width="133.99216"
       height="38.24963"
       x="32.78323"
       y="57.007092"
       ry="2.7823999"
       stroke-width="0.79375"
       id="rect1" /></g></svg>
