<svg width="545.73638" height="173.00054" viewBox="0 0 144.39275 45.77306" xml:space="preserve" xmlns="http://www.w3.org/2000/svg"><g transform="translate(-27.58294 -53.24538)" fill="#d9ce98" stroke="#000"><path d="M28.92497 53.37767c-.6702 0-1.20974.53955-1.20974 1.20974v43.08885c0 .6702.53955 1.20974 1.20974 1.20974h141.70867c.67019 0 1.20974-.53955 1.20974-1.20974V54.5874c0-.6702-.53955-1.20974-1.20974-1.20974H28.92497zm7.24607.69763a.9678.9678 0 0 1 .9679.9679.9678.9678 0 0 1-.9679.9679.9678.9678 0 0 1-.96738-.9679.9678.9678 0 0 1 .96738-.9679zm41.61503 0a.9678.9678 0 0 1 .9679.9679.9678.9678 0 0 1-.9679.9679.9678.9678 0 0 1-.9679-.9679.9678.9678 0 0 1 .9679-.9679zm44.03453 0a.9678.9678 0 0 1 .9679.9679.9678.9678 0 0 1-.9679.9679.9678.9678 0 0 1-.9679-.9679.9678.9678 0 0 1 .9679-.9679zm39.67974 0a.9678.9678 0 0 1 .96739.9679.9678.9678 0 0 1-.96739.9679.9678.9678 0 0 1-.9679-.9679.9678.9678 0 0 1 .9679-.9679zM36.17104 96.29546a.9678.9678 0 0 1 .9679.96738.9678.9678 0 0 1-.9679.9679.9678.9678 0 0 1-.96738-.9679.9678.9678 0 0 1 .96738-.96738zm41.61503 0a.9678.9678 0 0 1 .9679.96738.9678.9678 0 0 1-.9679.9679.9678.9678 0 0 1-.9679-.9679.9678.9678 0 0 1 .9679-.96738zm44.03453 0a.9678.9678 0 0 1 .9679.96738.9678.9678 0 0 1-.9679.9679.9678.9678 0 0 1-.9679-.9679.9678.9678 0 0 1 .9679-.96738zm39.67974 0a.9678.9678 0 0 1 .96739.96738.9678.9678 0 0 1-.96739.9679.9678.9678 0 0 1-.9679-.9679.9678.9678 0 0 1 .9679-.96738z" stroke-width=".265"/><rect width="133.99216" height="38.24963" x="32.78323" y="57.00709" ry="2.7824" stroke-width=".79375"/></g></svg>