<svg width="230.79117" height="429.04588" viewBox="0 0 61.0635 113.51839" xmlns="http://www.w3.org/2000/svg"><path d="M.1323.1323h60.7989v113.2538H.1323Z" fill="#fcfcfc" stroke="#1a1a1a" stroke-width=".26458"/><g fill="#fff" stroke="#9a9a9a" stroke-width=".44979"><path d="M17.27194 12.44972h6.41162v5.68578h-6.41162zM23.9746 12.44972h6.41162v5.68578H23.9746zM30.67726 12.44972h6.41162v5.68578h-6.41162zM37.37992 12.44972h6.41162v5.68578h-6.41162zM44.08258 12.44972h6.41162v5.68578h-6.41162zM50.78524 12.44972h6.41162v5.68578h-6.41162zM10.56928 12.44972h6.41162v5.68578h-6.41162zM3.86662 12.44972h6.41162v5.68578H3.86662z"/></g><g stroke="#4d4d4d"><path d="M24.57692 31.68458h5.92772v2.2985h-5.92772zM24.57692 34.24766h5.92772v2.2985h-5.92772zM24.57692 36.81075h5.92772v2.2985h-5.92772zM24.57692 39.37383h5.92772v2.2985h-5.92772zM24.57692 41.93692h5.92772v2.2985h-5.92772zM24.57692 44.50001h5.92772v2.2985h-5.92772zM24.57692 47.0631h5.92772v2.2985h-5.92772zM24.57692 49.62618h5.92772v2.2985h-5.92772zM24.57692 52.18927h5.92772v2.2985h-5.92772zM24.57692 54.75236h5.92772v2.2985h-5.92772zM24.57692 57.31545h5.92772v2.2985h-5.92772zM24.57692 59.87853h5.92772v2.2985h-5.92772zM24.57692 62.44162h5.92772v2.2985h-5.92772zM24.57692 65.0047h5.92772v2.2985h-5.92772zM24.57692 67.56779h5.92772v2.2985h-5.92772zM24.57692 70.13088h5.92772v2.2985h-5.92772zM24.57692 72.69397h5.92772v2.2985h-5.92772zM24.57692 75.25705h5.92772v2.2985h-5.92772zM30.76922 31.68458h5.92773v2.2985h-5.92773zM30.76922 34.24766h5.92773v2.2985h-5.92773zM30.76922 36.81075h5.92773v2.2985h-5.92773zM30.76922 39.37383h5.92773v2.2985h-5.92773zM30.76922 41.93692h5.92773v2.2985h-5.92773zM30.76922 44.50001h5.92773v2.2985h-5.92773zM30.76922 47.0631h5.92773v2.2985h-5.92773zM30.76922 49.62618h5.92773v2.2985h-5.92773zM30.76922 52.18927h5.92773v2.2985h-5.92773zM30.76922 54.75236h5.92773v2.2985h-5.92773zM30.76922 57.31545h5.92773v2.2985h-5.92773zM30.76922 59.87853h5.92773v2.2985h-5.92773zM30.76922 62.44162h5.92773v2.2985h-5.92773zM30.76922 65.0047h5.92773v2.2985h-5.92773zM30.76922 67.56779h5.92773v2.2985h-5.92773zM30.76922 70.13088h5.92773v2.2985h-5.92773zM30.76922 72.69397h5.92773v2.2985h-5.92773zM30.76922 75.25705h5.92773v2.2985h-5.92773z" fill="#fff" stroke-width=".26458"/><path d="M30.76922 31.68458h5.92773v2.2985h-5.92773zM36.72845 31.70125h5.75267v7.48488h-5.75267z" fill="#fff" stroke-width=".26458"/><path d="M36.72845 31.70125h5.75267v7.39414h-5.75267z" fill="#fff" stroke-width=".26298"/><path d="M36.72845 39.39021h5.75267v7.42441h-5.75267zM36.72845 47.07917h5.75267v7.42444h-5.75267z" fill="#fff" stroke-width=".26351"/><path d="M36.72845 54.76812h5.75267v7.40938h-5.75267z" fill="#fff" stroke-width=".26325"/><path d="M36.72845 62.44193h5.75267v7.42459h-5.75267zM36.72845 70.13088h5.75267v7.42465h-5.75267z" fill="#fff" stroke-width=".26352"/><path d="M18.58237 31.70125h5.75266v7.48488h-5.75266z" fill="#fff" stroke-width=".26458"/><path d="M18.58237 31.70125h5.75266v7.39414h-5.75266z" fill="#fff" stroke-width=".26298"/><path d="M18.58237 39.39021h5.75266v7.42441h-5.75266zM18.58237 47.07917h5.75266v7.42444h-5.75266z" fill="#fff" stroke-width=".26351"/><path d="M18.58237 54.76812h5.75266v7.40938h-5.75266z" fill="#fff" stroke-width=".26325"/><path d="M18.58237 62.44193h5.75266v7.42459h-5.75266zM18.58237 70.13088h5.75266v7.42465h-5.75266z" fill="#fff" stroke-width=".26352"/><path d="M24.57692 29.62802h12.33934v2.17753H24.57692z" stroke-width=".26458"/></g><path d="M3.41639 2.43608a.68433.68433 0 0 1-.68434.68433.68433.68433 0 0 1-.68433-.68433.68433.68433 0 0 1 .68433-.68433.68433.68433 0 0 1 .68434.68433ZM58.59063 2.43608a.68433.68433 0 0 1-.68433.68433.68433.68433 0 0 1-.68433-.68433.68433.68433 0 0 1 .68433-.68433.68433.68433 0 0 1 .68433.68433zM3.41639 110.90266a.68433.68433 0 0 1-.68434.68433.68433.68433 0 0 1-.68433-.68433.68433.68433 0 0 1 .68433-.68433.68433.68433 0 0 1 .68434.68433zM58.59063 110.90266a.68433.68433 0 0 1-.68433.68433.68433.68433 0 0 1-.68433-.68433.68433.68433 0 0 1 .68433-.68433.68433.68433 0 0 1 .68433.68433z" fill="#fcfcfc" stroke="#1a1a1a" stroke-width=".18521"/><path style="-inkscape-font-specification:Arial" d="M99.53405 35.4763h-.12046v-.76759q-.0435.0415-.11443.08298-.07027.0415-.12649.06224v-.11644q.10106-.04751.17668-.1151.07562-.0676.10707-.13117h.07763z" aria-label="1" font-size="1.37056" font-family="Arial" transform="translate(-74.08334 -2.11667)"/><path style="-inkscape-font-specification:Arial" d="M99.7134 37.81985v.11578h-.64847q-.0013-.0435.01405-.08365.02476-.06625.07897-.1305.05488-.06424.15794-.14857.15994-.13116.21615-.20746.05621-.07696.05621-.14522 0-.0716-.05153-.12046-.05086-.04951-.13317-.04951-.087 0-.1392.0522-.0522.0522-.05287.14455l-.1238-.01272q.01272-.13853.0957-.2108.08298-.07296.22285-.07296.1412 0 .22351.0783t.08231.19407q0 .0589-.02409.11578-.02409.05688-.0803.11979-.05555.06291-.18538.17266-.10841.091-.1392.1238-.03078.03212-.05086.06491z" aria-label="2" font-size="1.37056" font-family="Arial" transform="translate(-74.08334 -2.11667)"/><path style="-inkscape-font-specification:Arial" d="m99.08099 40.24289.12046-.01607q.02075.1024.07027.1479.05019.04484.1218.04484.08499 0 .14321-.05889.05889-.05889.05889-.14589 0-.08298-.05421-.13652-.05421-.0542-.13786-.0542-.03413 0-.08499.01337l.01338-.10573q.01205.0013.01941.0013.07696 0 .13853-.04015.06157-.04015.06157-.12381 0-.06625-.04484-.10975t-.11578-.0435q-.07027 0-.1171.04417-.04686.04417-.06024.1325l-.12046-.02142q.02208-.12112.10038-.18738.0783-.06692.19475-.06692.0803 0 .1479.0348.06758.03413.10305.0937.03614.05955.03614.12647 0 .06359-.03413.11578-.03413.0522-.10105.08298.087.02008.13518.08365.04818.06291.04818.15793 0 .1285-.09369.21817-.09369.08901-.2369.08901-.12916 0-.21482-.07696-.08499-.07696-.09704-.19943z" aria-label="3" font-size="1.37056" font-family="Arial" transform="translate(-74.08334 -2.11667)"/><path style="-inkscape-font-specification:Arial" d="M109.46331 35.4763h-.12046v-.76759q-.0435.0415-.11443.08298-.0703.0415-.12649.06224v-.11644q.10106-.04751.17668-.1151.0756-.0676.10707-.13117h.0776zm.32658-.22686.11578-.0107q.0147.08164.0562.11844.0415.03681.10641.03681.0555 0 .097-.02543.0422-.02543.0689-.06759.0268-.04283.0448-.1151.0181-.07228.0181-.14723 0-.008-.00067-.02409-.0361.05755-.0991.09369-.0622.03547-.13518.03547-.1218 0-.20612-.08834-.0843-.08834-.0843-.23289 0-.14923.0877-.24025.0883-.091.22084-.091.0957 0 .17467.05152.0796.05153.12046.14723.0415.09503.0415.27572 0 .18805-.0408.2998-.0408.1111-.1218.16932-.0803.05822-.18872.05822-.11511 0-.18805-.06358-.073-.06424-.0877-.18002zm.49321-.43298q0-.10373-.0555-.16463-.0549-.0609-.13251-.0609-.0803 0-.13986.06558-.0596.06558-.0596.16998 0 .09369.0562.15258.0569.05822.13987.05822.0836 0 .13719-.05822.0542-.05889.0542-.16262z" aria-label="19" font-size="1.37056" font-family="Arial" transform="translate(-74.08334 -2.11667)"/><path style="-inkscape-font-specification:Arial" d="M109.64266 37.81985v.11578h-.64847q-.001-.0435.014-.08365.0248-.06625.079-.1305.0549-.06424.15794-.14857.15994-.13116.21615-.20746.0562-.07696.0562-.14522 0-.0716-.0515-.12046-.0509-.04951-.13318-.04951-.087 0-.13919.0522-.0522.0522-.0529.14455l-.12381-.01272q.0127-.13853.0957-.2108.083-.07296.22285-.07296.14121 0 .22352.0783.0823.0783.0823.19407 0 .0589-.0241.11578-.0241.05688-.0803.11979-.0555.06291-.18538.17266-.10841.091-.1392.1238-.0308.03212-.0509.06491zm.12916-.36807q0-.174.0355-.27973.0361-.1064.10641-.16396.0709-.05755.17801-.05755.079 0 .13853.03212.0596.03145.0984.09168.0388.05956.0609.14589.0221.08566.0221.23155 0 .17266-.0355.27906-.0355.10574-.10641.16396-.0703.05755-.17801.05755-.14188 0-.22285-.10172-.097-.12247-.097-.39885zm.12381 0q0 .24159.0562.3219.0569.07964.13987.07964.083 0 .1392-.08031.0569-.08031.0569-.32123 0-.24226-.0569-.3219-.0562-.07963-.14054-.07963-.083 0-.13251.07027-.0622.08967-.0622.33126z" aria-label="20" font-size="1.37056" font-family="Arial" transform="translate(-74.08334 -2.11667)"/><path style="-inkscape-font-specification:Arial" d="M109.64266 40.3861v.11577h-.64847q-.001-.0435.014-.08365.0248-.06625.079-.1305.0549-.06424.15794-.14856.15994-.13117.21615-.20746.0562-.07696.0562-.14522 0-.07161-.0515-.12046-.0509-.04952-.13318-.04952-.087 0-.13919.0522-.0522.0522-.0529.14455l-.12381-.01272q.0127-.13853.0957-.2108.083-.07295.22285-.07295.14121 0 .22352.0783.0823.0783.0823.19407 0 .0589-.0241.11578-.0241.05688-.0803.11979-.0555.0629-.18538.17265-.10841.09101-.1392.12381-.0308.03212-.0509.06491zm.58289.11577h-.12046v-.7676q-.0435.0415-.11443.08299-.0703.04149-.12649.06224v-.11645q.10106-.0475.17668-.1151.0756-.0676.10707-.13117h.0776z" aria-label="21" font-size="1.37056" font-family="Arial" transform="translate(-74.08334 -2.11667)"/><path style="-inkscape-font-specification:Arial" d="M109.62128 43.03788v.11577h-.64848q-.001-.0435.0141-.08365.0248-.06625.079-.1305.0549-.06424.15793-.14856.15994-.13117.21616-.20746.0562-.07696.0562-.14522 0-.07161-.0515-.12046-.0509-.04952-.13317-.04952-.087 0-.1392.0522-.0522.0522-.0529.14455l-.1238-.01272q.0127-.13853.0957-.2108.083-.07294.22285-.07294.1412 0 .22351.0783.0823.0783.0823.19407 0 .05889-.0241.11577t-.0803.1198q-.0555.0629-.18537.17265-.10842.09101-.1392.1238-.0308.03213-.0509.06492zm.76224 0v.11577h-.64848q-.001-.0435.0141-.08365.0248-.06625.079-.1305.0549-.06424.15793-.14856.15994-.13117.21616-.20746.0562-.07696.0562-.14522 0-.07161-.0515-.12046-.0509-.04952-.13317-.04952-.087 0-.1392.0522-.0522.0522-.0529.14455l-.1238-.01272q.0127-.13853.0957-.2108.083-.07294.22285-.07294.1412 0 .22351.0783.0823.0783.0823.19407 0 .05889-.0241.11577t-.0803.1198q-.0555.0629-.18537.17265-.10842.09101-.1392.1238-.0308.03213-.0509.06492z" aria-label="22" font-size="1.37056" font-family="Arial" transform="translate(-74.08334 -2.11667)"/><path style="-inkscape-font-specification:Arial" d="M109.62128 45.58274v.11577h-.64848q-.001-.0435.0141-.08365.0248-.06625.079-.1305.0549-.06424.15793-.14856.15994-.13117.21616-.20746.0562-.07696.0562-.14522 0-.07161-.0515-.12046-.0509-.04952-.13317-.04952-.087 0-.1392.0522-.0522.0522-.0529.14455l-.1238-.01272q.0127-.13853.0957-.2108.083-.07295.22285-.07295.1412 0 .22351.0783.0823.0783.0823.19407 0 .0589-.0241.11578-.0241.05688-.0803.11979-.0555.0629-.18537.17265-.10842.09101-.1392.12381-.0308.03212-.0509.06491zm.12983-.14322.12045-.01606q.0207.1024.0703.1479.0502.04484.1218.04484.085 0 .14321-.05889.0589-.05889.0589-.14589 0-.08298-.0542-.13652-.0542-.0542-.13786-.0542-.0341 0-.085.01337l.0134-.10573q.0121.0013.0194.0013.077 0 .13853-.04015.0616-.04015.0616-.12381 0-.06625-.0448-.10975t-.11578-.0435q-.0703 0-.11711.04417-.0468.04417-.0602.1325l-.12046-.0214q.0221-.12113.10038-.18739.0783-.06692.19475-.06692.0803 0 .14789.0348.0676.03413.10306.0937.0361.05955.0361.12647 0 .06358-.0341.11578-.0341.0522-.10105.08298.087.02008.13518.08365.0482.06291.0482.15793 0 .1285-.0937.21817-.0937.08901-.2369.08901-.12916 0-.21482-.07696-.085-.07696-.097-.19943z" aria-label="23" font-size="1.37056" font-family="Arial" transform="translate(-74.08334 -2.11667)"/><path style="-inkscape-font-specification:Arial" d="M109.62128 48.14898v.11578h-.64848q-.001-.0435.0141-.08365.0248-.06625.079-.1305.0549-.06424.15793-.14857.15994-.13116.21616-.20745.0562-.07696.0562-.14522 0-.07161-.0515-.12046-.0509-.04952-.13317-.04952-.087 0-.1392.0522-.0522.0522-.0529.14455l-.1238-.01272q.0127-.13853.0957-.2108.083-.07296.22285-.07296.1412 0 .22351.0783.0823.0783.0823.19408 0 .05889-.0241.11577t-.0803.1198q-.0555.0629-.18537.17265-.10842.09101-.1392.1238-.0308.03213-.0509.06492zm.5153.11578v-.2349h-.42563v-.11042l.44771-.63576h.0984v.63576h.13251v.11042h-.13251v.2349zm0-.34532v-.44235l-.30718.44235z" aria-label="24" font-size="1.37056" font-family="Arial" transform="translate(-74.08334 -2.11667)"/><path style="-inkscape-font-specification:Arial" d="M99.44508 43.15365v-.2349h-.42563v-.11042l.4477-.63575h.09839v.63575h.1325v.11043h-.1325v.2349zm0-.34531v-.44236l-.30718.44236z" aria-label="4" font-size="1.37056" font-family="Arial" transform="translate(-74.08334 -2.11667)"/><path style="-inkscape-font-specification:Arial" d="m99.05894 45.44153.12648-.0107q.01405.09234.0649.13919.05154.04618.12381.04618.087 0 .14723-.06558.06023-.06558.06023-.174 0-.10306-.05822-.16262-.05755-.05956-.15124-.05956-.05822 0-.10507.02677-.04684.0261-.0736.06826l-.1131-.01472.09502-.50392h.48786v.1151h-.39149l-.05287.26368q.08834-.06157.18537-.06157.1285 0 .21683.08901.08834.08901.08834.22887 0 .13318-.07763.23022-.09436.11912-.25765.11912-.13384 0-.21883-.07495-.08432-.07495-.09637-.19876z" aria-label="5" font-size="1.37056" font-family="Arial" transform="translate(-74.08334 -2.11667)"/><path style="-inkscape-font-specification:Arial" d="m99.68399 47.52393-.1198.0094q-.01605-.07094-.0455-.10306-.04885-.05153-.12046-.05153-.05755 0-.10105.03212-.05688.0415-.08968.12113-.0328.07964-.03413.22687.0435-.06625.1064-.09838.06291-.03212.13184-.03212.12046 0 .20478.089.08499.08835.08499.22888 0 .09235-.04015.17199-.03948.07897-.10908.12113t-.15794.04216q-.15057 0-.2456-.11042-.09503-.1111-.09503-.3654 0-.28441.10506-.41357.09168-.11243.24695-.11243.11577 0 .18938.0649.07428.06492.08901.17936zm-.49188.42295q0 .06224.0261.11912.02677.05688.07428.087.04752.02945.09971.02945.07629 0 .13117-.06157.05488-.06157.05488-.1673 0-.10173-.05421-.15995-.05421-.05889-.13652-.05889-.08164 0-.13853.0589-.05688.05821-.05688.15324z" aria-label="6" font-size="1.37056" font-family="Arial" transform="translate(-74.08334 -2.11667)"/><path style="-inkscape-font-specification:Arial" d="M99.08835 49.97842v-.11577h.63509v.09369q-.09369.0997-.18604.265-.09168.1653-.14188.33997-.03614.12314-.04618.2697h-.1238q.002-.11578.0455-.27974t.12448-.31587q.08165-.15258.17333-.25698z" aria-label="7" font-size="1.37056" font-family="Arial" transform="translate(-74.08334 -2.11667)"/><path style="-inkscape-font-specification:Arial" d="M99.2657 52.7583q-.07496-.02744-.1111-.0783-.03614-.05086-.03614-.1218 0-.10708.07696-.18002.07696-.07294.20478-.07294.1285 0 .2068.07495.0783.07428.0783.18136 0 .06826-.03615.11912-.03547.05019-.10841.07763.09034.02945.13719.09503.04752.06558.04752.1566 0 .1258-.08901.21147-.08901.08566-.23423.08566t-.23422-.08566q-.08901-.08633-.08901-.21482 0-.0957.04818-.15994.04885-.06491.13852-.08834zm-.0241-.20411q0 .0696.04484.11376.04484.04417.11645.04417.0696 0 .11377-.0435.04484-.04417.04484-.10774 0-.06625-.04618-.1111-.04551-.0455-.11377-.0455-.06893 0-.11444.04417-.0455.04417-.0455.10573zm-.0388.45306q0 .05153.02408.0997.02477.04819.07296.07496.04817.0261.10372.0261.08633 0 .14255-.05555.0562-.05554.0562-.1412 0-.087-.05821-.1439-.05755-.05687-.14456-.05687-.08499 0-.1412.0562-.05554.05622-.05554.14055z" aria-label="8" font-size="1.37056" font-family="Arial" transform="translate(-74.08334 -2.11667)"/><path style="-inkscape-font-specification:Arial" d="m99.09839 55.6297.11578-.0107q.01471.08164.0562.11845.0415.0368.10641.0368.05554 0 .09704-.02542.04216-.02543.06893-.0676.02677-.04282.04484-.1151.01807-.07227.01807-.14723 0-.008-.00067-.02409-.03614.05755-.09905.0937-.06224.03546-.13518.03546-.1218 0-.20612-.08834-.08432-.08834-.08432-.23289 0-.14923.08767-.24025.08834-.091.22084-.091.0957 0 .17467.05152.07964.05154.12046.14723.04149.09503.04149.27572 0 .18805-.04082.29981-.04082.1111-.1218.16931-.08031.05822-.18872.05822-.1151 0-.18805-.06358-.07295-.06424-.08767-.18002zm.49321-.43298q0-.10373-.05555-.16463-.05488-.0609-.1325-.0609-.08031 0-.13987.06558-.05956.06558-.05956.16999 0 .09369.05621.15258.05688.05822.13987.05822.08365 0 .13719-.05822.0542-.0589.0542-.16262z" aria-label="9" font-size="1.37056" font-family="Arial" transform="translate(-74.08334 -2.11667)"/><path style="-inkscape-font-specification:Arial" d="M99.51267 58.50835h-.12046v-.7676q-.0435.0415-.11444.08299-.07027.04149-.12648.06224v-.11645q.10105-.04752.17667-.1151.07562-.0676.10708-.13117h.07763zm.3085-.48385q0-.174.03548-.27973.03614-.1064.1064-.16396.07094-.05755.17801-.05755.079 0 .13853.03212.0596.03145.0984.09168.0388.05956.0609.1459.0221.08565.0221.23154 0 .17266-.0355.27907-.0355.10573-.1064.16395-.0703.05755-.17802.05755-.14187 0-.22285-.10172-.09704-.12246-.09704-.39885zm.12381 0q0 .2416.05622.3219.0569.07964.13986.07964.083 0 .1392-.08031.0569-.08031.0569-.32123 0-.24225-.0569-.32189-.0562-.07964-.14054-.07964-.083 0-.1325.07027-.06224.08967-.06224.33126z" aria-label="10" font-size="1.37056" font-family="Arial" transform="translate(-74.08334 -2.11667)"/><path style="-inkscape-font-specification:Arial" d="M99.51267 61.05321h-.12046v-.7676q-.0435.0415-.11444.08299-.07027.04149-.12648.06224v-.11645q.10105-.0475.17667-.1151.07562-.0676.10708-.13117h.07763zm.66052 0h-.12046v-.7676q-.0435.0415-.11444.08299-.07027.04149-.12648.06224v-.11645q.10105-.0475.17667-.1151.07562-.0676.10708-.13117h.0776z" aria-label="11" font-size="1.37056" font-family="Arial" transform="translate(-74.08334 -2.11667)"/><path style="-inkscape-font-specification:Arial" d="M99.51267 63.61946h-.12046v-.7676q-.0435.0415-.11444.08298-.07027.0415-.12648.06224v-.11644q.10105-.04751.17667-.1151.07562-.0676.10708-.13117h.07763zm.94159-.11578v.11578h-.64848q-.0013-.0435.01405-.08365.02476-.06625.07897-.1305.05488-.06424.15794-.14857.15994-.13116.21616-.20746.0562-.07696.0562-.14522 0-.0716-.0515-.12046-.0509-.04952-.13317-.04952-.087 0-.1392.0522-.0522.0522-.05287.14456l-.1238-.01272q.01271-.13853.0957-.2108.08297-.07296.22285-.07296.1412 0 .2235.0783.0823.0783.0823.19407 0 .0589-.0241.11578-.0241.05688-.0803.11979-.0555.06291-.18536.17266-.10842.091-.1392.1238-.03078.03212-.05086.06491z" aria-label="12" font-size="1.37056" font-family="Arial" transform="translate(-74.08334 -2.11667)"/><path style="-inkscape-font-specification:Arial" d="M109.55712 50.71523v.11578h-.64847q-.001-.0435.0141-.08366.0248-.06624.079-.1305.0549-.06423.15794-.14856.15994-.13117.21615-.20746.0562-.07696.0562-.14522 0-.0716-.0515-.12046-.0509-.04952-.13318-.04952-.087 0-.13919.0522-.0522.0522-.0529.14455l-.12381-.01272q.0127-.13852.0957-.2108.083-.07295.22285-.07295.14121 0 .22352.0783.0823.0783.0823.19407 0 .0589-.0241.11578-.0241.05688-.0803.11979-.0555.0629-.18537.17266-.10841.091-.1392.1238-.0308.03212-.0509.06491zm.12916-.1412.12648-.01072q.0141.09235.0649.1392.0515.04618.1238.04618.087 0 .14723-.06558.0602-.06558.0602-.174 0-.10305-.0582-.16261-.0576-.05956-.15124-.05956-.0582 0-.10507.02677-.0468.0261-.0736.06826l-.11309-.01472.095-.50393h.48787v.1151h-.3915l-.0529.26368q.0883-.06157.18538-.06157.12849 0 .21682.08901.0883.08901.0883.22887 0 .13318-.0776.23022-.0944.11912-.25765.11912-.13384 0-.21883-.07495-.0843-.07495-.0964-.19876z" aria-label="25" font-size="1.37056" font-family="Arial" transform="translate(-74.08334 -2.11667)"/><path style="-inkscape-font-specification:Arial" d="M109.55712 53.17455v.11578h-.64847q-.001-.0435.0141-.08365.0248-.06625.079-.1305.0549-.06424.15794-.14857.15994-.13117.21615-.20746.0562-.07696.0562-.14522 0-.0716-.0515-.12046-.0509-.04952-.13318-.04952-.087 0-.13919.0522-.0522.0522-.0529.14455l-.12381-.01272q.0127-.13852.0957-.2108.083-.07294.22285-.07294.14121 0 .22352.0783.0823.0783.0823.19407 0 .0589-.0241.11578-.0241.05688-.0803.11979-.0555.0629-.18537.17266-.10841.091-.1392.1238-.0308.03212-.0509.06491zm.75421-.62505-.11979.0094q-.0161-.07094-.0455-.10306-.0489-.05153-.12046-.05153-.0576 0-.10105.03212-.0569.04149-.0897.12113t-.0341.22686q.0435-.06625.1064-.09838.0629-.03212.13184-.03212.12046 0 .20478.08901.085.08834.085.22888 0 .09235-.0401.17199-.0395.07897-.10909.12113-.0696.04216-.15793.04216-.15057 0-.2456-.11043-.095-.11109-.095-.36539 0-.28442.10506-.41358.0917-.11243.24695-.11243.11577 0 .18938.06491.0743.06491.089.17936zm-.49187.42295q0 .06224.0261.11912.0268.05688.0743.087.0475.02945.0997.02945.0763 0 .13117-.06157.0549-.06157.0549-.1673 0-.10173-.0542-.15995-.0542-.0589-.13652-.0589-.0816 0-.13853.0589-.0569.05822-.0569.15325z" aria-label="26" font-size="1.37056" font-family="Arial" transform="translate(-74.08334 -2.11667)"/><path style="-inkscape-font-specification:Arial" d="M109.55712 55.7408v.11577h-.64847q-.001-.0435.0141-.08365.0248-.06625.079-.1305.0549-.06424.15794-.14856.15994-.13117.21615-.20746.0562-.07696.0562-.14522 0-.07161-.0515-.12046-.0509-.04952-.13318-.04952-.087 0-.13919.0522-.0522.0522-.0529.14455l-.12381-.01272q.0127-.13853.0957-.2108.083-.07294.22285-.07294.14121 0 .22352.0783.0823.0783.0823.19407 0 .05889-.0241.11577t-.0803.1198q-.0555.0629-.18537.17265-.10841.09101-.1392.1238-.0308.03213-.0509.06492zm.13719-.73681v-.11578h.63509v.0937q-.0937.0997-.18604.265-.0917.1653-.14188.33997-.0361.12313-.0462.2697h-.12381q.002-.11578.0455-.27974t.12447-.31587q.0816-.15258.17333-.25698z" aria-label="27" font-size="1.37056" font-family="Arial" transform="translate(-74.08334 -2.11667)"/><path style="-inkscape-font-specification:Arial" d="M109.53574 58.39258v.11577h-.64848q-.001-.0435.0141-.08365.0248-.06625.079-.1305.0549-.06424.15794-.14856.15994-.13117.21616-.20746.0562-.07696.0562-.14522 0-.07161-.0515-.12046-.0509-.04952-.13317-.04952-.087 0-.1392.0522-.0522.0522-.0529.14455l-.1238-.01272q.0127-.13853.0957-.2108.083-.07295.22284-.07295.14121 0 .22352.0783.0823.0783.0823.19408 0 .05889-.0241.11577t-.0803.1198q-.0556.0629-.18537.17265-.10842.09101-.1392.1238-.0308.03213-.0509.06492zm.31453-.41626q-.075-.02744-.11109-.0783-.0361-.05086-.0361-.1218 0-.10707.077-.18002.077-.07294.20478-.07294.12849 0 .20679.07495.0783.07428.0783.18136 0 .06826-.0361.11912-.0355.0502-.10841.07763.0903.02945.13719.09503.0475.06558.0475.1566 0 .12581-.089.21147-.089.08566-.23423.08566-.14522 0-.23423-.08566-.089-.08633-.089-.21482 0-.0957.0482-.15994.0488-.06491.13853-.08834zm-.0241-.20411q0 .0696.0448.11377t.11645.04417q.0696 0 .11377-.0435.0448-.04417.0448-.10775 0-.06625-.0462-.11109-.0455-.0455-.11377-.0455-.0689 0-.11444.04416-.0455.04417-.0455.10574zm-.0388.45306q0 .05153.0241.09971.0248.04818.073.07495.0482.0261.10373.0261.0863 0 .14254-.05555.0562-.05555.0562-.1412 0-.087-.0582-.14389-.0575-.05688-.14455-.05688-.085 0-.1412.05621-.0555.05621-.0555.14054z" aria-label="28" font-size="1.37056" font-family="Arial" transform="translate(-74.08334 -2.11667)"/><path style="-inkscape-font-specification:Arial" d="M109.53574 60.93744v.11577h-.64848q-.001-.0435.0141-.08365.0248-.06625.079-.1305.0549-.06424.15794-.14856.15994-.13117.21616-.20746.0562-.07696.0562-.14522 0-.07161-.0515-.12046-.0509-.04952-.13317-.04952-.087 0-.1392.0522-.0522.0522-.0529.14455l-.1238-.01272q.0127-.13853.0957-.2108.083-.07295.22284-.07295.14121 0 .22352.0783.0823.0783.0823.19407 0 .05889-.0241.11577t-.0803.1198q-.0556.0629-.18537.17265-.10842.09101-.1392.1238-.0308.03213-.0509.06492zm.14722-.1111.11578-.0107q.0147.08164.0562.11845.0415.0368.10641.0368.0555 0 .097-.02542.0422-.02543.0689-.0676.0268-.04282.0448-.1151.0181-.07228.0181-.14723 0-.008-.00067-.02409-.0361.05755-.099.0937-.0622.03546-.13518.03546-.1218 0-.20612-.08834-.0843-.08834-.0843-.23289 0-.14923.0877-.24025.0883-.091.22085-.091.0957 0 .17466.05153.0796.05152.12046.14722.0415.09503.0415.27572 0 .18805-.0408.29981-.0408.1111-.1218.16931-.0803.05822-.18872.05822-.1151 0-.18805-.06358-.0729-.06424-.0877-.18002zm.49322-.43298q0-.10373-.0555-.16463-.0549-.0609-.1325-.0609-.0803 0-.13987.06558-.0596.06558-.0596.16999 0 .09369.0562.15258.0569.05822.13986.05822.0837 0 .13719-.05822.0542-.0589.0542-.16262z" aria-label="29" font-size="1.37056" font-family="Arial" transform="translate(-74.08334 -2.11667)"/><path style="-inkscape-font-specification:Arial" d="m108.90332 63.36047.12046-.01606q.0207.1024.0703.1479.0502.04484.1218.04484.085 0 .14321-.0589.0589-.05888.0589-.14588 0-.08298-.0542-.13652-.0542-.05421-.13786-.05421-.0341 0-.085.01338l.0134-.10574q.0121.0013.0194.0013.077 0 .13853-.04015.0616-.04015.0616-.1238 0-.06625-.0448-.10975t-.11578-.0435q-.0703 0-.11711.04417-.0468.04417-.0602.1325l-.12046-.02142q.0221-.12113.10038-.18738.0783-.06692.19475-.06692.0803 0 .14789.0348.0676.03413.10306.09369.0361.05956.0361.12648 0 .06358-.0341.11578-.0341.0522-.10105.08298.087.02008.13518.08365.0482.0629.0482.15793 0 .1285-.0937.21817-.0937.089-.2369.089-.12916 0-.21482-.07695-.085-.07696-.097-.19943zm.76158-.22486q0-.174.0355-.27973.0361-.1064.10641-.16396.0709-.05755.17801-.05755.079 0 .13853.03212.0596.03145.0984.09168.0388.05956.0609.14589.0221.08566.0221.23155 0 .17266-.0355.27906-.0355.10574-.10641.16396-.0703.05755-.17801.05755-.14187 0-.22285-.10172-.097-.12247-.097-.39885zm.1238 0q0 .24159.0562.3219.0569.07964.13986.07964.083 0 .1392-.08031.0569-.08031.0569-.32123 0-.24226-.0569-.3219-.0562-.07963-.14054-.07963-.083 0-.1325.07027-.0622.08967-.0622.33126z" aria-label="30" font-size="1.37056" font-family="Arial" transform="translate(-74.08334 -2.11667)"/><path style="-inkscape-font-specification:Arial" d="M99.51267 66.24985h-.12046v-.76759q-.0435.0415-.11444.08298-.07027.0415-.12648.06224v-.11644q.10105-.04752.17667-.1151.07562-.0676.10708-.13118h.07763zm.30917-.25898.12047-.01606q.02073.10239.07025.1479.0502.04483.1218.04483.085 0 .14321-.05889.0589-.05889.0589-.14589 0-.08298-.0542-.13652-.0542-.0542-.13786-.0542-.0341 0-.085.01337l.0134-.10573q.0121.0013.0194.0013.077 0 .13854-.04015.0616-.04015.0616-.1238 0-.06626-.0448-.10976t-.11579-.0435q-.0703 0-.1171.04417-.04685.04417-.06024.1325l-.12045-.0214q.02208-.12113.10038-.18739.0783-.06692.19474-.06692.0803 0 .1479.0348.0676.03413.10305.0937.0361.05955.0361.12648 0 .06358-.0341.11577-.0341.0522-.10105.08298.087.02008.13518.08365.0482.06291.0482.15794 0 .12849-.0937.21816-.0937.08901-.2369.08901-.12916 0-.21481-.07696-.085-.07696-.09704-.19943z" aria-label="13" font-size="1.37056" font-family="Arial" transform="translate(-74.08334 -2.11667)"/><path style="-inkscape-font-specification:Arial" d="M99.51267 68.70917h-.12046v-.7676q-.0435.0415-.11444.08298-.07027.0415-.12648.06224v-.11644q.10105-.04751.17667-.1151.07562-.0676.10708-.13117h.07763zm.69465 0v-.2349h-.42563v-.11042l.44771-.63576h.0984v.63576h.13251v.11042h-.13251v.2349zm0-.34532v-.44235l-.30718.44235z" aria-label="14" font-size="1.37056" font-family="Arial" transform="translate(-74.08334 -2.11667)"/><path style="-inkscape-font-specification:Arial" d="M99.51267 71.27542h-.12046v-.7676q-.0435.0415-.11444.08299-.07027.04149-.12648.06224v-.11645q.10105-.0475.17667-.1151.07562-.0676.10708-.13117h.07763zm.3085-.25698.12649-.0107q.01405.09234.0649.13919.0515.04618.12382.04618.087 0 .14723-.06558.0602-.06558.0602-.174 0-.10306-.0582-.16262-.0576-.05956-.15124-.05956-.0582 0-.10507.02677-.04684.0261-.07361.06826l-.1131-.01472.09503-.50392h.48786v.1151h-.39149l-.05287.26368q.08834-.06157.18537-.06157.1285 0 .21683.089.0883.08902.0883.22888 0 .13317-.0776.23021-.0944.11912-.25765.11912-.13385 0-.21884-.07495-.08432-.07495-.09637-.19876z" aria-label="15" font-size="1.37056" font-family="Arial" transform="translate(-74.08334 -2.11667)"/><path style="-inkscape-font-specification:Arial" d="M99.49128 73.9272h-.12046v-.7676q-.0435.0415-.11443.08299-.07027.04149-.12649.06224v-.11645q.10106-.04752.17668-.1151.07562-.0676.10707-.13117h.07763zm.93356-.74082-.11979.0094q-.0161-.07095-.0455-.10306-.0489-.05153-.12046-.05153-.0576 0-.10105.03212-.05688.04149-.08967.12112-.03279.07965-.03413.22687.0435-.06625.1064-.09838.0629-.03212.13184-.03212.12046 0 .20478.08901.085.08834.085.22887 0 .09235-.0401.172-.0395.07896-.10908.12112-.0696.04216-.15794.04216-.15057 0-.2456-.11042-.09503-.1111-.09503-.3654 0-.28441.10507-.41357.09168-.11243.24694-.11243.11577 0 .1894.06491.0743.06491.089.17935zm-.49188.42294q0 .06224.0261.11912.02678.05688.0743.087.0475.02944.0997.02944.0763 0 .13117-.06157.0549-.06157.0549-.1673 0-.10172-.0542-.15995-.0542-.05889-.13652-.05889-.0817 0-.13854.0589-.05688.05821-.05688.15325z" aria-label="16" font-size="1.37056" font-family="Arial" transform="translate(-74.08334 -2.11667)"/><path style="-inkscape-font-specification:Arial" d="M99.49128 76.47206h-.12046v-.7676q-.0435.0415-.11443.08299-.07027.04149-.12649.06224v-.11645q.10106-.04752.17668-.1151.07562-.0676.10707-.13117h.07763zm.31654-.85258v-.11578h.63509v.0937q-.0937.0997-.18604.265-.0917.1653-.14188.33997-.0361.12313-.0462.2697h-.1238q.002-.11578.0455-.27974t.12447-.31587q.0816-.15259.17333-.25698z" aria-label="17" font-size="1.37056" font-family="Arial" transform="translate(-74.08334 -2.11667)"/><path style="-inkscape-font-specification:Arial" d="M99.49128 79.03831h-.12046v-.76759q-.0435.0415-.11443.08298-.07027.0415-.12649.06224v-.11644q.10106-.04751.17668-.1151.07562-.0676.10707-.13117h.07763zm.49388-.53202q-.07495-.02744-.11109-.0783-.03614-.05086-.03614-.1218 0-.10708.07696-.18002.07696-.07295.20479-.07295.12849 0 .20679.07495.0783.07428.0783.18136 0 .06826-.0361.11912-.0355.05019-.10842.07763.0904.02945.13719.09503.0475.06558.0475.1566 0 .1258-.089.21147-.089.08566-.23422.08566-.14523 0-.23423-.08566-.08901-.08633-.08901-.21482 0-.0957.04818-.15994.04885-.06491.13852-.08834zm-.02409-.20412q0 .0696.04484.11377.0448.04417.11644.04417.0696 0 .11377-.0435.0448-.04417.0448-.10774 0-.06625-.0462-.1111-.0455-.0455-.11376-.0455-.0689 0-.11444.04417-.0455.04417-.0455.10573zm-.0388.45307q0 .05153.02408.0997.02476.04819.07294.07496.0482.0261.10373.0261.0863 0 .14255-.05554.0562-.05555.0562-.14121 0-.087-.0582-.14388-.0575-.05688-.14455-.05688-.085 0-.1412.0562-.05554.05622-.05554.14054z" aria-label="18" font-size="1.37056" font-family="Arial" transform="translate(-74.08334 -2.11667)"/><path style="-inkscape-font-specification:Arial" d="m108.86055 65.99087.12046-.01606q.0207.10239.0703.1479.0502.04483.1218.04483.085 0 .14321-.05889.0589-.05889.0589-.14589 0-.08298-.0542-.13652-.0542-.0542-.13786-.0542-.0341 0-.085.01337l.0134-.10573q.012.0013.0194.0013.077 0 .13853-.04015.0616-.04015.0616-.1238 0-.06626-.0448-.10976t-.11578-.0435q-.0703 0-.11711.04417-.0468.04417-.0602.1325l-.12046-.0214q.0221-.12113.10039-.18739.0783-.06692.19474-.06692.0803 0 .1479.0348.0676.03413.10306.0937.0361.05955.0361.12648 0 .06358-.0341.11577-.0341.0522-.10105.08298.087.02008.13518.08365.0482.06291.0482.15794 0 .12849-.0937.21816-.0937.08901-.23691.08901-.12916 0-.21482-.07696-.085-.07696-.097-.19943zm1.2153.25898h-.12046v-.76759q-.0435.0415-.11444.08298-.0703.0415-.12648.06224v-.11644q.10105-.04752.17667-.1151.0756-.0676.10708-.13118h.0776z" aria-label="31" font-size="1.37056" font-family="Arial" transform="translate(-74.08334 -2.11667)"/><path style="-inkscape-font-specification:Arial" d="m108.86055 68.45018.12046-.01606q.0207.10239.0703.1479.0502.04484.1218.04484.085 0 .14321-.0589.0589-.05888.0589-.14588 0-.08298-.0542-.13652-.0542-.05421-.13786-.05421-.0341 0-.085.01338l.0134-.10574q.012.0013.0194.0013.077 0 .13853-.04015.0616-.04015.0616-.1238 0-.06626-.0448-.10976t-.11578-.0435q-.0703 0-.11711.04417-.0468.04417-.0602.1325l-.12046-.02141q.0221-.12113.10039-.18738.0783-.06692.19474-.06692.0803 0 .1479.0348.0676.03413.10306.09369.0361.05956.0361.12648 0 .06358-.0341.11577-.0341.0522-.10105.08298.087.02008.13518.08365.0482.06292.0482.15794 0 .1285-.0937.21817-.0937.089-.23691.089-.12916 0-.21482-.07695-.085-.07696-.097-.19943zm1.39465.14321v.11578h-.64847q-.001-.0435.014-.08365.0248-.06625.079-.1305.0549-.06424.15793-.14857.15995-.13116.21616-.20746.0562-.07696.0562-.14522 0-.0716-.0515-.12045-.0509-.04953-.13317-.04953-.087 0-.1392.0522-.0522.0522-.0529.14456l-.1238-.01272q.0127-.13853.0957-.2108.083-.07296.22285-.07296.1412 0 .22352.0783.0823.0783.0823.19408 0 .05889-.0241.11577t-.0803.11979q-.0555.06291-.18537.17266-.10842.091-.1392.1238-.0308.03212-.0509.06491z" aria-label="32" font-size="1.37056" font-family="Arial" transform="translate(-74.08334 -2.11667)"/><path style="-inkscape-font-specification:Arial" d="m108.86055 71.01643.12046-.01606q.0207.1024.0703.1479.0502.04484.1218.04484.085 0 .14321-.05889.0589-.05889.0589-.14589 0-.08298-.0542-.13652-.0542-.0542-.13786-.0542-.0341 0-.085.01337l.0134-.10574q.012.0013.0194.0013.077 0 .13853-.04014.0616-.04015.0616-.12381 0-.06625-.0448-.10975t-.11578-.0435q-.0703 0-.11711.04417-.0468.04417-.0602.1325l-.12046-.02142q.0221-.12113.10039-.18738.0783-.06692.19474-.06692.0803 0 .1479.0348.0676.03413.10306.0937.0361.05955.0361.12647 0 .06358-.0341.11578-.0341.0522-.10105.08298.087.02008.13518.08365.0482.0629.0482.15793 0 .1285-.0937.21817-.0937.08901-.23691.08901-.12916 0-.21482-.07696-.085-.07696-.097-.19943zm.76224 0 .12046-.01606q.0207.1024.0703.1479.0502.04484.1218.04484.085 0 .14321-.05889.0589-.05889.0589-.14589 0-.08298-.0542-.13652-.0542-.0542-.13786-.0542-.0341 0-.085.01337l.0134-.10574q.0121.0013.0194.0013.077 0 .13853-.04014.0616-.04015.0616-.12381 0-.06625-.0448-.10975t-.11577-.0435q-.0703 0-.11712.04417-.0468.04417-.0602.1325l-.12046-.02142q.0221-.12113.10039-.18738.0783-.06692.19474-.06692.0803 0 .1479.0348.0676.03413.10306.0937.0361.05955.0361.12647 0 .06358-.0341.11578-.0341.0522-.10105.08298.087.02008.13518.08365.0482.0629.0482.15793 0 .1285-.0937.21817-.0937.08901-.23691.08901-.12916 0-.21482-.07696-.085-.07696-.097-.19943z" aria-label="33" font-size="1.37056" font-family="Arial" transform="translate(-74.08334 -2.11667)"/><path style="-inkscape-font-specification:Arial" d="m108.83916 73.66821.12046-.01606q.0207.1024.0703.1479.0502.04484.1218.04484.085 0 .14321-.05889.0589-.05889.0589-.14589 0-.08298-.0542-.13652-.0542-.0542-.13786-.0542-.0341 0-.085.01337l.0134-.10574q.012.0013.0194.0013.077 0 .13852-.04015.0616-.04014.0616-.1238 0-.06625-.0448-.10975t-.11577-.0435q-.0703 0-.11711.04417-.0468.04417-.0602.1325l-.12046-.0214q.0221-.12114.10038-.18739.0783-.06692.19474-.06692.0803 0 .1479.0348.0676.03413.10306.0937.0361.05955.0361.12647 0 .06358-.0341.11578-.0341.0522-.10105.08298.087.02008.13518.08365.0482.0629.0482.15793 0 .1285-.0937.21817-.0937.08901-.2369.08901-.12916 0-.21482-.07696-.085-.07696-.097-.19943zm1.14771.25899v-.2349h-.42562v-.11042l.44771-.63575h.0984v.63575h.13251v.11043h-.13251v.23489Zm0-.34532v-.44235l-.30717.44235z" aria-label="34" font-size="1.37056" font-family="Arial" transform="translate(-74.08334 -2.11667)"/><path style="-inkscape-font-specification:Arial" d="m108.83916 76.21307.12046-.01606q.0207.1024.0703.1479.0502.04484.1218.04484.085 0 .14321-.05889.0589-.05889.0589-.14589 0-.08298-.0542-.13652-.0542-.0542-.13786-.0542-.0341 0-.085.01337l.0134-.10574q.012.0013.0194.0013.077 0 .13852-.04015.0616-.04014.0616-.1238 0-.06625-.0448-.10975t-.11577-.0435q-.0703 0-.11711.04417-.0468.04417-.0602.1325l-.12046-.0214q.0221-.12114.10038-.18739.0783-.06692.19474-.06692.0803 0 .1479.0348.0676.03413.10306.0937.0361.05955.0361.12647 0 .06358-.0341.11578-.0341.0522-.10105.08298.087.02008.13518.08365.0482.0629.0482.15793 0 .1285-.0937.21817-.0937.08901-.2369.08901-.12916 0-.21482-.07696-.085-.07696-.097-.19943zm.76157.002.12648-.0107q.0141.09234.0649.13919.0515.04618.1238.04618.087 0 .14723-.06558.0602-.06558.0602-.174 0-.10306-.0582-.16262-.0575-.05956-.15124-.05956-.0582 0-.10507.02677-.0468.0261-.0736.06826l-.1131-.01472.095-.50392h.48786v.1151h-.3915l-.0529.26368q.0883-.06157.18537-.06157.12849 0 .21683.089.0883.08902.0883.22888 0 .13318-.0776.23021-.0944.11912-.25765.11912-.13384 0-.21883-.07495-.0843-.07495-.0964-.19875z" aria-label="35" font-size="1.37056" font-family="Arial" transform="translate(-74.08334 -2.11667)"/><path style="-inkscape-font-specification:Arial" d="m108.83916 78.77933.12046-.01606q.0207.10239.0703.1479.0502.04483.1218.04483.085 0 .14321-.05889.0589-.05889.0589-.14589 0-.08298-.0542-.13652-.0542-.0542-.13786-.0542-.0341 0-.085.01337l.0134-.10573q.012.0013.0194.0013.077 0 .13852-.04015.0616-.04015.0616-.12381 0-.06625-.0448-.10975t-.11577-.0435q-.0703 0-.11711.04417-.0468.04417-.0602.1325l-.12046-.0214q.0221-.12114.10038-.18739.0783-.06692.19474-.06692.0803 0 .1479.0348.0676.03413.10306.0937.0361.05955.0361.12647 0 .06358-.0341.11578-.0341.0522-.10105.08298.087.02008.13518.08365.0482.0629.0482.15793 0 .1285-.0937.21817-.0937.08901-.2369.08901-.12916 0-.21482-.07696-.085-.07696-.097-.19943zm1.38662-.48184-.11979.0094q-.0161-.07094-.0455-.10306-.0489-.05153-.12046-.05153-.0576 0-.10106.03212-.0569.04149-.0897.12113t-.0341.22686q.0435-.06625.1064-.09838.0629-.03212.13184-.03212.12046 0 .20478.08901.085.08834.085.22888 0 .09235-.0401.17198-.0395.07897-.10908.12113-.0696.04216-.15794.04216-.15057 0-.2456-.11042-.095-.11109-.095-.36539 0-.28442.10507-.41358.0917-.11243.24694-.11243.11577 0 .18939.06491.0743.06491.089.17935zm-.49187.42295q0 .06224.0261.11912.0268.05688.0743.087.0475.02945.0997.02945.0763 0 .13117-.06157.0549-.06157.0549-.1673 0-.10173-.0542-.15995-.0542-.0589-.13652-.0589-.0817 0-.13853.0589-.0569.05822-.0569.15325z" aria-label="36" font-size="1.37056" font-family="Arial" transform="translate(-74.08334 -2.11667)"/><path d="m93.49156 26.52192.50437-.0441q.03583.30317.16536.49885.1323.19293.4079.3142.2756.1185.62012.1185.30592 0 .54019-.09094.23426-.09095.34726-.24805.11576-.15985.11576-.34726 0-.19017-.11025-.33073-.11024-.14332-.3638-.23978-.1626-.0634-.71933-.19568-.55673-.13505-.77997-.25356-.28939-.15159-.4327-.37483-.14056-.226-.14056-.50436 0-.30592.17363-.5705.17363-.26734.50712-.40515.33348-.1378.74138-.1378.44924 0 .791.14607.3445.14332.52916.42444.18466.28111.19844.63665l-.51263.03859q-.04134-.3831-.28112-.57878-.23703-.19568-.7028-.19568-.48507 0-.70831.17915-.22049.17638-.22049.42719 0 .21773.1571.35829.15434.14056.80477.28938.6532.14608.89573.25632.35277.1626.5209.41341.16811.24805.16811.57326 0 .32246-.18465.6091-.18466.28387-.53193.44373-.3445.1571-.7772.1571-.54847 0-.92054-.15986-.36931-.15985-.58153-.47956-.20946-.32246-.22049-.7276zm4.96645.85439.07166.43821q-.20946.0441-.37483.0441-.27009 0-.41892-.08544-.14883-.08544-.20946-.22324-.06063-.14056-.06063-.58704v-1.68396h-.3638v-.38585h.3638v-.72485l.49334-.29766v1.0225h.49885v.38586h-.49885v1.71152q0 .21222.0248.27285.02756.06063.08544.09646.06063.03583.17087.03583.08268 0 .21773-.01929zm2.39503.08268q-.27561.23426-.53192.33073-.25356.09646-.5457.09646-.48232 0-.74139-.23427-.25907-.23702-.25907-.60358 0-.21497.09646-.39136.09922-.17915.25631-.28663.15986-.1075.3583-.16261.14607-.0386.44097-.07441.60082-.07166.8847-.17088.003-.10197.003-.12954 0-.30316-.14056-.42719-.19017-.16812-.565-.16812-.35002 0-.51814.12403-.16537.12126-.2453.4327l-.48506-.06614q.06615-.31144.21773-.5016.15158-.19293.43821-.2949.28663-.10474.66422-.10474.37482 0 .60909.0882.23427.08818.3445.22323.11025.1323.15435.33625.0248.12677.0248.4575v.66146q0 .69178.0303.87643.0331.1819.12678.35002h-.51814q-.0772-.15434-.0992-.36104zm-.0413-1.10794q-.2701.11024-.81029.1874-.30592.0441-.4327.09923-.12678.05512-.19568.1626-.0689.10474-.0689.23427 0 .19844.14883.33073.15158.1323.44097.1323.28663 0 .50987-.12403.22324-.12678.32797-.3445.0799-.16813.0799-.4961zm1.27055 1.46898v-2.92695h.44648v.41617q.32246-.48231.93156-.48231.26458 0 .48507.09646.22324.0937.33348.24804t.15434.36656q.0276.1378.0276.48231v1.79972h-.49609v-1.78042q0-.30317-.0579-.452-.0579-.15158-.20671-.23978-.14607-.09095-.3445-.09095-.31695 0-.54846.2012-.22876.20119-.22876.76343v1.59852zm5.0381 0v-.36931q-.27836.43546-.81855.43546-.35002 0-.64492-.19293-.29215-.19292-.45475-.53743-.15986-.34726-.15986-.7965 0-.43822.14608-.79376.14607-.35829.43821-.54845.29214-.19017.65319-.19017.26458 0 .47129.113.2067.11024.33624.28938v-1.4497h.49334v4.04041zm-1.5682-1.46072q0 .56224.23702.8406.23702.27837.55948.27837.32522 0 .55122-.26458.22875-.26734.22875-.81304 0-.60083-.23151-.88195-.23151-.28112-.57051-.28112-.33073 0-.55397.2701-.22048.2701-.22048.85162zm4.7184 1.09968q-.27561.23426-.53193.33073-.25355.09646-.5457.09646-.48231 0-.74138-.23427-.25907-.23702-.25907-.60358 0-.21497.0965-.39136.0992-.17915.25631-.28663.15986-.1075.35829-.16261.14608-.0386.44098-.07441.60082-.07166.8847-.17088.003-.10197.003-.12954 0-.30316-.14056-.42719-.19017-.16812-.56499-.16812-.35003 0-.51815.12403-.16536.12126-.24529.4327l-.48507-.06614q.0661-.31144.21773-.5016.15159-.19293.43822-.2949.28663-.10474.66421-.10474.37483 0 .6091.0882.23426.08818.34451.22323.11024.1323.15434.33625.0248.12677.0248.4575v.66146q0 .69178.0303.87643.0331.1819.12678.35002h-.51814q-.0772-.15434-.0992-.36104zm-.0413-1.10794q-.2701.11024-.81029.1874-.30592.0441-.4327.09923-.12678.05512-.19569.1626-.0689.10474-.0689.23427 0 .19844.14883.33073.15158.1323.44097.1323.28663 0 .50988-.12403.22324-.12678.32797-.3445.0799-.16813.0799-.4961zm1.26503 1.46898v-2.92695h.44649v.44373q.17087-.31144.31419-.41065.14607-.09922.3197-.09922.25081 0 .50988.15985l-.17088.46026q-.1819-.10748-.3638-.10748-.16261 0-.29214.09922-.12954.09646-.18466.2701-.0827.26457-.0827.57877v1.53237zm3.78409 0v-.36931q-.27836.43546-.81855.43546-.35002 0-.64492-.19293-.29215-.19292-.45475-.53743-.15986-.34727-.15986-.7965 0-.43822.14608-.79376.14607-.35829.43821-.54845.29214-.19017.65319-.19017.26458 0 .47129.113.2067.11024.33624.28938v-1.4497h.49334v4.04041zm-1.5682-1.46072q0 .56224.23702.8406.23702.27837.55948.27837.32522 0 .55122-.26458.22875-.26734.22875-.81304 0-.60083-.23151-.88195-.23151-.28112-.57051-.28112-.33073 0-.55397.2701-.22048.2701-.22048.85162z" style="-inkscape-font-specification:Arial" aria-label="Standard" font-size="5.64444" font-family="Arial" transform="translate(-74.08334 -2.11667)"/></svg>