<svg width="230.79117" height="429.04588" viewBox="0 0 61.0635 113.51839" xmlns="http://www.w3.org/2000/svg"><path d="M.1323.1323h60.7989v113.2538H.1323Z" fill="#fcfcfc" stroke="#1a1a1a" stroke-width=".26458"/><g fill="#fff" stroke="#9a9a9a" stroke-width=".44979"><path d="M17.27195 12.44972h6.41162v5.68578h-6.41162zM23.97461 12.44972h6.41162v5.68578H23.9746zM30.67727 12.44972h6.41162v5.68578h-6.41162zM37.37993 12.44972h6.41162v5.68578h-6.41162zM44.08259 12.44972h6.41162v5.68578h-6.41162zM50.78525 12.44972h6.41161v5.68578h-6.41161zM10.5693 12.44972h6.4116v5.68578h-6.4116zM3.86663 12.44972h6.41162v5.68578H3.86663z"/></g><g fill="#fff" stroke="#9a9a9a" stroke-width=".44979"><path d="M17.27195 92.41348h6.41162v5.68577h-6.41162zM23.97461 92.41348h6.41162v5.68577H23.9746zM30.67727 92.41348h6.41162v5.68577h-6.41162zM37.37993 92.41348h6.41162v5.68577h-6.41162zM44.08259 92.41348h6.41162v5.68577h-6.41162zM50.78525 92.41348h6.41162v5.68577h-6.41162zM10.5693 92.41348h6.4116v5.68577h-6.4116zM3.86663 92.41348h6.41162v5.68577H3.86663z"/></g><g stroke="#4d4d4d"><path d="M24.57693 31.68457h5.92772v2.2985h-5.92772zM24.57693 34.24766h5.92772v2.2985h-5.92772zM24.57693 36.81075h5.92772v2.2985h-5.92772zM24.57693 39.37383h5.92772v2.2985h-5.92772zM24.57693 41.93692h5.92772v2.2985h-5.92772zM24.57693 44.5h5.92772v2.29851h-5.92772zM24.57693 47.0631h5.92772v2.2985h-5.92772zM24.57693 49.62618h5.92772v2.2985h-5.92772zM24.57693 52.18927h5.92772v2.2985h-5.92772zM24.57693 54.75236h5.92772v2.2985h-5.92772zM24.57693 57.31544h5.92772v2.2985h-5.92772zM24.57693 59.87853h5.92772v2.2985h-5.92772zM24.57693 62.44162h5.92772v2.2985h-5.92772zM24.57693 65.0047h5.92772v2.2985h-5.92772zM24.57693 67.56779h5.92772v2.2985h-5.92772zM24.57693 70.13088h5.92772v2.2985h-5.92772zM24.57693 72.69397h5.92772v2.2985h-5.92772zM24.57693 75.25706h5.92772v2.2985h-5.92772zM30.76923 31.68457h5.92772v2.2985h-5.92772zM30.76923 34.24766h5.92772v2.2985h-5.92772zM30.76923 36.81075h5.92772v2.2985h-5.92772zM30.76923 39.37383h5.92772v2.2985h-5.92772zM30.76923 41.93692h5.92772v2.2985h-5.92772zM30.76923 44.5h5.92772v2.29851h-5.92772zM30.76923 47.0631h5.92772v2.2985h-5.92772zM30.76923 49.62618h5.92772v2.2985h-5.92772zM30.76923 52.18927h5.92772v2.2985h-5.92772zM30.76923 54.75236h5.92772v2.2985h-5.92772zM30.76923 57.31544h5.92772v2.2985h-5.92772zM30.76923 59.87853h5.92772v2.2985h-5.92772zM30.76923 62.44162h5.92772v2.2985h-5.92772zM30.76923 65.0047h5.92772v2.2985h-5.92772zM30.76923 67.56779h5.92772v2.2985h-5.92772zM30.76923 70.13088h5.92772v2.2985h-5.92772zM30.76923 72.69397h5.92772v2.2985h-5.92772zM30.76923 75.25706h5.92772v2.2985h-5.92772z" fill="#fff" stroke-width=".26458"/><path d="M30.76923 31.68457h5.92772v2.2985h-5.92772zM36.72846 31.70124h5.75266v7.48488h-5.75266z" fill="#fff" stroke-width=".26458"/><path d="M36.72846 31.70124h5.75266v7.39415h-5.75266z" fill="#fff" stroke-width=".26298"/><path d="M36.72846 39.39021h5.75266v7.4244h-5.75266zM36.72846 47.07917h5.75266v7.42444h-5.75266z" fill="#fff" stroke-width=".26351"/><path d="M36.72846 54.76812h5.75266v7.40938h-5.75266z" fill="#fff" stroke-width=".26325"/><path d="M36.72846 62.44193h5.75266v7.42459h-5.75266zM36.72846 70.13088h5.75266v7.42464h-5.75266z" fill="#fff" stroke-width=".26352"/><path d="M18.58237 31.70124h5.75267v7.48488h-5.75267z" fill="#fff" stroke-width=".26458"/><path d="M18.58237 31.70124h5.75267v7.39415h-5.75267z" fill="#fff" stroke-width=".26298"/><path d="M18.58237 39.39021h5.75267v7.4244h-5.75267zM18.58237 47.07917h5.75267v7.42444h-5.75267z" fill="#fff" stroke-width=".26351"/><path d="M18.58237 54.76812h5.75267v7.40938h-5.75267z" fill="#fff" stroke-width=".26325"/><path d="M18.58237 62.44193h5.75267v7.42459h-5.75267zM18.58237 70.13088h5.75267v7.42464h-5.75267z" fill="#fff" stroke-width=".26352"/><path d="M24.57693 29.62801h12.33934v2.17753H24.57693z" stroke-width=".26458"/></g><path d="M3.41639 2.43608a.68433.68433 0 0 1-.68433.68433.68433.68433 0 0 1-.68433-.68433.68433.68433 0 0 1 .68433-.68433.68433.68433 0 0 1 .68433.68433zM58.59064 2.43608a.68433.68433 0 0 1-.68433.68433.68433.68433 0 0 1-.68433-.68433.68433.68433 0 0 1 .68433-.68433.68433.68433 0 0 1 .68433.68433zM3.41639 110.90266a.68433.68433 0 0 1-.68433.68434.68433.68433 0 0 1-.68433-.68434.68433.68433 0 0 1 .68433-.68433.68433.68433 0 0 1 .68433.68433zM58.59064 110.90266a.68433.68433 0 0 1-.68433.68434.68433.68433 0 0 1-.68433-.68434.68433.68433 0 0 1 .68433-.68433.68433.68433 0 0 1 .68433.68433z" fill="#fcfcfc" stroke="#1a1a1a" stroke-width=".18521"/><path style="-inkscape-font-specification:Arial" d="M88.95072 120.67214h-.12046v-.76759q-.0435.0415-.11444.083-.07027.0415-.12648.0622v-.11645q.10105-.0475.17667-.1151.07562-.0676.10708-.13117h.07763z" aria-label="1" font-size="1.37056" font-family="Arial" transform="translate(-63.5 -87.3125)"/><path style="-inkscape-font-specification:Arial" d="M89.13007 123.01569v.11577h-.64848q-.0013-.0435.01405-.0837.02476-.0662.07897-.1305.05488-.0642.15794-.14856.15994-.13117.21616-.20746.0562-.077.0562-.14522 0-.0716-.05152-.12046-.05086-.0495-.13318-.0495-.087 0-.1392.0522-.0522.0522-.05287.14456l-.1238-.0127q.01272-.13853.0957-.2108.08298-.0729.22285-.0729.1412 0 .22352.0783.0823.0783.0823.19407 0 .0589-.02408.11578-.0241.0569-.08031.11979-.05555.0629-.18538.17266-.1084.091-.1392.1238-.03077.0321-.05085.0649z" aria-label="2" font-size="1.37056" font-family="Arial" transform="translate(-63.5 -87.3125)"/><path style="-inkscape-font-specification:Arial" d="m88.49765 125.43872.12046-.0161q.02075.10239.07027.1479.0502.0448.1218.0448.085 0 .14321-.0589.0589-.0589.0589-.14589 0-.083-.05422-.13652-.0542-.0542-.13786-.0542-.03413 0-.08499.0134l.01338-.10574q.01205.001.01941.001.07696 0 .13853-.0402.06157-.0401.06157-.12381 0-.0662-.04484-.10975-.04484-.0435-.11577-.0435-.07027 0-.11712.0442-.04684.0442-.06023.13251l-.12046-.0214q.0221-.12113.10039-.18738.0783-.0669.19474-.0669.08031 0 .1479.0348.06759.0341.10306.0937.03614.0596.03614.12648 0 .0636-.03413.11578-.03413.0522-.10106.083.087.0201.13519.0837.04818.0629.04818.15794 0 .12849-.0937.21816-.09368.089-.2369.089-.12916 0-.21482-.077-.08499-.077-.09704-.19943z" aria-label="3" font-size="1.37056" font-family="Arial" transform="translate(-63.5 -87.3125)"/><path style="-inkscape-font-specification:Arial" d="M98.87998 120.67214h-.12046v-.76759q-.0435.0415-.11444.083-.07027.0415-.12648.0622v-.11645q.10105-.0475.17667-.1151.07562-.0676.10708-.13117h.07763zm.32657-.22686.11578-.0107q.01472.0816.05622.11845.04149.0368.1064.0368.05556 0 .09705-.0254.04216-.0254.06893-.0676.02676-.0428.04483-.11511.01807-.0723.01807-.14723 0-.008-.00066-.0241-.03614.0576-.09904.0937-.06224.0355-.13519.0355-.1218 0-.20612-.0883-.08432-.0883-.08432-.23288 0-.14924.08767-.24025.08834-.091.22085-.091.0957 0 .17466.0515.07964.0515.12046.14723.0415.095.0415.27572 0 .18805-.04083.29981-.04082.11109-.1218.16931-.0803.0582-.18872.0582-.1151 0-.18805-.0636-.07295-.0643-.08767-.18002zm.49322-.43299q0-.10373-.05555-.16463-.05488-.0609-.1325-.0609-.08032 0-.13987.0656-.05956.0656-.05956.16998 0 .0937.0562.15258.05689.0582.13987.0582.08365 0 .1372-.0582.0542-.0589.0542-.16262z" aria-label="19" font-size="1.37056" font-family="Arial" transform="translate(-63.5 -87.3125)"/><path style="-inkscape-font-specification:Arial" d="M99.05933 123.01569v.11577h-.64848q-.0013-.0435.01405-.0837.02476-.0662.07897-.1305.05488-.0642.15794-.14856.15994-.13117.21616-.20746.05622-.077.05622-.14522 0-.0716-.05153-.12046-.05086-.0495-.13318-.0495-.087 0-.1392.0522-.0522.0522-.05287.14456l-.1238-.0127q.01272-.13853.0957-.2108.08298-.0729.22285-.0729.1412 0 .22352.0783.0823.0783.0823.19407 0 .0589-.02408.11578-.0241.0569-.08031.11979-.05555.0629-.18538.17266-.1084.091-.1392.1238-.03077.0321-.05085.0649zm.12916-.36807q0-.174.03547-.27974.03614-.1064.1064-.16396.07094-.0575.17801-.0575.07897 0 .13853.0321.05956.0315.09838.0917.03881.0596.0609.14589.02208.0857.02208.23155 0 .17266-.03547.27906-.03547.10574-.1064.16396-.07027.0576-.17801.0576-.14188 0-.22285-.10172-.09704-.12247-.09704-.39885zm.1238 0q0 .24158.05621.32189.05688.0796.13987.0796.08298 0 .1392-.0803.05688-.0803.05688-.32122 0-.24226-.05688-.3219-.05622-.0796-.14054-.0796-.08298 0-.1325.0703-.06225.0897-.06225.33127z" aria-label="20" font-size="1.37056" font-family="Arial" transform="translate(-63.5 -87.3125)"/><path style="-inkscape-font-specification:Arial" d="M99.05933 125.58193v.11578h-.64848q-.0013-.0435.01405-.0837.02476-.0663.07897-.1305.05488-.0643.15794-.14857.15994-.13117.21616-.20746.05622-.077.05622-.14522 0-.0716-.05153-.12046-.05086-.0495-.13318-.0495-.087 0-.1392.0522-.0522.0522-.05287.14455l-.1238-.0127q.01272-.13853.0957-.21081.08298-.0729.22285-.0729.1412 0 .22352.0783.0823.0783.0823.19407 0 .0589-.02408.11577-.0241.0569-.08031.1198-.05555.0629-.18538.17265-.1084.091-.1392.12381-.03077.0321-.05085.0649zm.58289.11578h-.12046v-.7676q-.0435.0415-.11444.083-.07027.0415-.12648.0622v-.11644q.10105-.0475.17667-.11511.07562-.0676.10708-.13116h.07763z" aria-label="21" font-size="1.37056" font-family="Arial" transform="translate(-63.5 -87.3125)"/><path style="-inkscape-font-specification:Arial" d="M99.03794 128.23371v.11578h-.64847q-.0013-.0435.01405-.0837.02476-.0662.07897-.13049.05488-.0643.15793-.14857.15995-.13117.21616-.20746.05621-.077.05621-.14522 0-.0716-.05153-.12046-.05086-.0495-.13317-.0495-.087 0-.1392.0522-.0522.0522-.05287.14455l-.1238-.0127q.01271-.13853.0957-.21081.08297-.0729.22284-.0729.1412 0 .22352.0783.08231.0783.08231.19407 0 .0589-.02409.11577-.02409.0569-.0803.11979-.05555.0629-.18538.17266-.10841.091-.1392.12381-.03078.0321-.05086.0649zm.76224 0v.11578h-.64847q-.0013-.0435.01405-.0837.02476-.0662.07897-.13049.05488-.0643.15793-.14857.15995-.13117.21616-.20746.05621-.077.05621-.14522 0-.0716-.05153-.12046-.05086-.0495-.13317-.0495-.087 0-.1392.0522-.0522.0522-.05287.14455l-.1238-.0127q.01271-.13853.0957-.21081.08297-.0729.22284-.0729.1412 0 .22352.0783.08231.0783.08231.19407 0 .0589-.02409.11577-.02409.0569-.0803.11979-.05555.0629-.18538.17266-.10841.091-.1392.12381-.03078.0321-.05086.0649z" aria-label="22" font-size="1.37056" font-family="Arial" transform="translate(-63.5 -87.3125)"/><path style="-inkscape-font-specification:Arial" d="M99.03794 130.77857v.11578h-.64847q-.0013-.0435.01405-.0837.02476-.0663.07897-.1305.05488-.0643.15793-.14857.15995-.13117.21616-.20746.05621-.077.05621-.14522 0-.0716-.05153-.12046-.05086-.0495-.13317-.0495-.087 0-.1392.0522-.0522.0522-.05287.14455l-.1238-.0127q.01271-.13853.0957-.21081.08297-.0729.22284-.0729.1412 0 .22352.0783.08231.0783.08231.19407 0 .0589-.02409.11577-.02409.0569-.0803.1198-.05555.0629-.18538.17265-.10841.091-.1392.12381-.03078.0321-.05086.0649zm.12983-.14321.12046-.0161q.02075.10239.07027.1479.05019.0448.1218.0448.08499 0 .14321-.0589.05889-.0589.05889-.14589 0-.083-.05421-.13652-.05421-.0542-.13786-.0542-.03413 0-.08499.0134l.01338-.10574q.01205.001.01941.001.07696 0 .13853-.0402.06157-.0402.06157-.12381 0-.0662-.04484-.10975-.04484-.0435-.11578-.0435-.07027 0-.1171.0442-.04686.0442-.06024.13251l-.12046-.0214q.02208-.12113.10038-.18738.0783-.0669.19475-.0669.0803 0 .1479.0348.06758.0341.10305.0937.03614.0596.03614.12648 0 .0636-.03413.11578-.03413.0522-.10105.083.087.0201.13518.0837.04818.0629.04818.15794 0 .12849-.09369.21816-.09369.089-.2369.089-.12916 0-.21482-.077-.08499-.077-.09704-.19943z" aria-label="23" font-size="1.37056" font-family="Arial" transform="translate(-63.5 -87.3125)"/><path style="-inkscape-font-specification:Arial" d="M99.03794 133.34481v.11578h-.64847q-.0013-.0435.01405-.0837.02476-.0662.07897-.13049.05488-.0643.15793-.14857.15995-.13117.21616-.20746.05621-.077.05621-.14522 0-.0716-.05153-.12046-.05086-.0495-.13317-.0495-.087 0-.1392.0522-.0522.0522-.05287.14455l-.1238-.0127q.01271-.13853.0957-.21081.08297-.0729.22284-.0729.1412 0 .22352.0783.08231.0783.08231.19407 0 .0589-.02409.11577-.02409.0569-.0803.11979-.05555.0629-.18538.17266-.10841.091-.1392.12381-.03078.0321-.05086.0649zm.5153.11578v-.2349h-.42562v-.11042l.4477-.63576h.09838v.63576h.1325v.11042h-.1325v.2349zm0-.34532v-.44235l-.30717.44235z" aria-label="24" font-size="1.37056" font-family="Arial" transform="translate(-63.5 -87.3125)"/><path style="-inkscape-font-specification:Arial" d="M88.86174 128.34949v-.2349h-.42562v-.11042l.4477-.63576h.09838v.63576h.1325v.11042h-.1325v.2349zm0-.34532v-.44235l-.30717.44235z" aria-label="4" font-size="1.37056" font-family="Arial" transform="translate(-63.5 -87.3125)"/><path style="-inkscape-font-specification:Arial" d="m88.4756 130.63737.12648-.0107q.01405.0924.06491.1392.05153.0462.1238.0462.087 0 .14723-.0656.06024-.0656.06024-.174 0-.10306-.05823-.16262-.05754-.0596-.15124-.0596-.05822 0-.10507.0268-.04685.0261-.0736.0683l-.1131-.0147.09503-.50392h.48786v.1151h-.3915l-.05287.26368q.08834-.0616.18538-.0616.12849 0 .21682.089.08834.089.08834.22888 0 .13317-.07763.23021-.09436.11912-.25764.11912-.13385 0-.21884-.075-.08432-.075-.09637-.19876z" aria-label="5" font-size="1.37056" font-family="Arial" transform="translate(-63.5 -87.3125)"/><path style="-inkscape-font-specification:Arial" d="m89.10065 132.71976-.11979.009q-.01606-.0709-.04551-.10306-.04885-.0515-.12046-.0515-.05755 0-.10105.0321-.05688.0415-.08967.12113-.0328.0796-.03413.22687.0435-.0663.1064-.0984.06292-.0321.13184-.0321.12046 0 .20478.089.085.0883.085.22887 0 .0923-.04016.17199-.03948.079-.10908.12113-.0696.0422-.15794.0422-.15057 0-.2456-.11042-.09503-.11109-.09503-.3654 0-.28442.10507-.41357.09168-.11243.24694-.11243.11577 0 .18939.0649.07428.0649.089.17935zm-.49188.42295q0 .0622.0261.11912.02678.0569.07429.087.0475.0294.0997.0294.0763 0 .13117-.0616.05488-.0616.05488-.1673 0-.10172-.0542-.15994-.05422-.0589-.13653-.0589-.08164 0-.13853.0589-.05688.0582-.05688.15325z" aria-label="6" font-size="1.37056" font-family="Arial" transform="translate(-63.5 -87.3125)"/><path style="-inkscape-font-specification:Arial" d="M88.50502 135.17426v-.11578h.63508v.0937q-.09369.0997-.18604.26501-.09168.1653-.14187.33997-.03614.12313-.04618.26969h-.1238q.002-.11577.0455-.27973t.12448-.31587q.08165-.15259.17332-.25698z" aria-label="7" font-size="1.37056" font-family="Arial" transform="translate(-63.5 -87.3125)"/><path style="-inkscape-font-specification:Arial" d="M88.68236 137.95413q-.07495-.0274-.1111-.0783-.03613-.0509-.03613-.1218 0-.10707.07696-.18001.07696-.0729.20478-.0729.12849 0 .20679.075.0783.0743.0783.18136 0 .0683-.03614.11912-.03547.0502-.10842.0776.09034.0294.1372.095.0475.0656.0475.1566 0 .12581-.089.21147-.08902.0857-.23423.0857-.14522 0-.23423-.0857-.089-.0863-.089-.21482 0-.0957.04817-.15994.04885-.0649.13853-.0883zm-.0241-.20411q0 .0696.04485.11377.04484.0442.11644.0442.0696 0 .11377-.0435.04484-.0442.04484-.10775 0-.0662-.04618-.11109-.04551-.0455-.11377-.0455-.06893 0-.11443.0442-.04551.0442-.04551.10574zm-.0388.45306q0 .0515.02409.0997.02476.0482.07294.075.04818.0261.10373.0261.08633 0 .14254-.0556.05621-.0555.05621-.1412 0-.087-.05822-.14389-.05755-.0569-.14455-.0569-.08499 0-.1412.0562-.05556.0562-.05556.14054z" aria-label="8" font-size="1.37056" font-family="Arial" transform="translate(-63.5 -87.3125)"/><path style="-inkscape-font-specification:Arial" d="m88.51505 140.82553.11578-.0107q.01472.0816.0562.11845.0415.0368.10642.0368.05554 0 .09703-.0254.04217-.0254.06894-.0676.02677-.0428.04484-.1151.01806-.0723.01806-.14723 0-.008-.00066-.0241-.03614.0575-.09905.0937-.06224.0355-.13519.0355-.1218 0-.20612-.0883-.08432-.0883-.08432-.23289 0-.14923.08767-.24025.08834-.091.22085-.091.0957 0 .17466.0515.07964.0515.12046.14723.0415.095.0415.27571 0 .18806-.04083.29981-.04082.1111-.1218.16932-.0803.0582-.18872.0582-.1151 0-.18805-.0636-.07295-.0642-.08767-.18002zm.49322-.43298q0-.10373-.05554-.16463-.05488-.0609-.1325-.0609-.08032 0-.13987.0656-.05956.0656-.05956.16998 0 .0937.0562.15258.05689.0582.13987.0582.08365 0 .1372-.0582.0542-.0589.0542-.16262z" aria-label="9" font-size="1.37056" font-family="Arial" transform="translate(-63.5 -87.3125)"/><path style="-inkscape-font-specification:Arial" d="M88.92933 143.70418h-.12046v-.7676q-.0435.0415-.11444.083-.07026.0415-.12648.0622v-.11644q.10105-.0475.17668-.11511.07562-.0676.10707-.13116h.07763zm.30851-.48385q0-.17399.03547-.27973.03614-.10641.1064-.16396.07095-.0575.17802-.0575.07897 0 .13853.0321.05956.0315.09838.0917.0388.0596.0609.14589.02208.0857.02208.23155 0 .17266-.03547.27907-.03547.10573-.10641.16396-.07027.0575-.17801.0575-.14188 0-.22285-.10172-.09704-.12247-.09704-.39886zm.1238 0q0 .24159.05622.3219.05688.0796.13986.0796.08298 0 .1392-.0803.05688-.0803.05688-.32123 0-.24225-.05688-.32189-.05621-.0796-.14054-.0796-.08298 0-.1325.0703-.06224.0897-.06224.33126z" aria-label="10" font-size="1.37056" font-family="Arial" transform="translate(-63.5 -87.3125)"/><path style="-inkscape-font-specification:Arial" d="M88.92933 146.24904h-.12046v-.7676q-.0435.0415-.11444.083-.07026.0415-.12648.0622v-.11645q.10105-.0475.17668-.1151.07562-.0676.10707-.13117h.07763zm.66052 0h-.12046v-.7676q-.0435.0415-.11444.083-.07027.0415-.12648.0622v-.11645q.10105-.0475.17668-.1151.07562-.0676.10707-.13117h.07763z" aria-label="11" font-size="1.37056" font-family="Arial" transform="translate(-63.5 -87.3125)"/><path style="-inkscape-font-specification:Arial" d="M88.92933 148.81529h-.12046v-.76759q-.0435.0415-.11444.083-.07026.0415-.12648.0622v-.11645q.10105-.0475.17668-.1151.07562-.0676.10707-.13117h.07763zm.9416-.11577v.11577h-.64848q-.0013-.0435.01405-.0837.02476-.0662.07897-.1305.05488-.0642.15793-.14856.15995-.13117.21616-.20746.05621-.077.05621-.14522 0-.0716-.05153-.12046-.05086-.0495-.13317-.0495-.087 0-.1392.0522-.0522.0522-.05287.14456l-.1238-.0127q.01271-.13853.0957-.2108.08297-.073.22284-.073.1412 0 .22352.0783.08231.0783.08231.19407 0 .0589-.02409.11578-.02409.0569-.0803.11979-.05556.0629-.18538.17266-.10841.091-.1392.1238-.03078.0321-.05086.0649z" aria-label="12" font-size="1.37056" font-family="Arial" transform="translate(-63.5 -87.3125)"/><path style="-inkscape-font-specification:Arial" d="M98.97379 135.91107v.11577h-.64848q-.0013-.0435.01405-.0837.02476-.0662.07897-.1305.05488-.0642.15794-.14857.15994-.13116.21616-.20745.0562-.077.0562-.14522 0-.0716-.05152-.12046-.05086-.0495-.13318-.0495-.087 0-.1392.0522-.0522.0522-.05287.14455l-.1238-.0127q.01272-.13853.0957-.2108.08298-.0729.22285-.0729.1412 0 .22352.0783.0823.0783.0823.19407 0 .0589-.02408.11578-.0241.0569-.08031.11979-.05554.0629-.18538.17266-.10841.091-.1392.1238-.03077.0321-.05085.0649zm.12916-.14121.12648-.0107q.01405.0923.0649.1392.05154.0462.12381.0462.087 0 .14723-.0656.06023-.0656.06023-.17399 0-.10306-.05822-.16262-.05755-.0596-.15124-.0596-.05822 0-.10507.0268-.04684.0261-.07361.0683l-.1131-.0147.09503-.50392h.48786v.11511h-.3915l-.05286.26367q.08834-.0616.18537-.0616.1285 0 .21683.089.08834.089.08834.22887 0 .13317-.07763.23021-.09436.11912-.25765.11912-.13384 0-.21883-.075-.08432-.075-.09637-.19876z" aria-label="25" font-size="1.37056" font-family="Arial" transform="translate(-63.5 -87.3125)"/><path style="-inkscape-font-specification:Arial" d="M98.97379 138.37039v.11577h-.64848q-.0013-.0435.01405-.0837.02476-.0662.07897-.1305.05488-.0642.15794-.14857.15994-.13116.21616-.20745.0562-.077.0562-.14522 0-.0716-.05152-.12046-.05086-.0495-.13318-.0495-.087 0-.1392.0522-.0522.0522-.05287.14455l-.1238-.0127q.01272-.13853.0957-.2108.08298-.0729.22285-.0729.1412 0 .22352.0783.0823.0783.0823.19407 0 .0589-.02408.11578-.0241.0569-.08031.11979-.05554.0629-.18538.17266-.10841.091-.1392.1238-.03077.0321-.05085.0649zm.7542-.62505-.11978.009q-.01606-.0709-.04551-.10306-.04885-.0515-.12046-.0515-.05755 0-.10106.0321-.05688.0415-.08968.12113-.03279.0796-.03413.22686.0435-.0662.10641-.0984.06291-.0321.13184-.0321.12046 0 .20478.089.08499.0883.08499.22887 0 .0924-.04015.17199-.03948.079-.10909.12113-.0696.0422-.15793.0422-.15058 0-.2456-.11042-.09503-.11109-.09503-.36539 0-.28442.10506-.41358.09168-.11243.24694-.11243.11578 0 .1894.0649.07427.0649.089.17936zm-.49187.42294q0 .0622.0261.11912.02677.0569.07428.087.04752.0294.0997.0294.0763 0 .13118-.0616.05488-.0616.05488-.16731 0-.10172-.05421-.15994-.05421-.0589-.13652-.0589-.08164 0-.13853.0589-.05688.0582-.05688.15325z" aria-label="26" font-size="1.37056" font-family="Arial" transform="translate(-63.5 -87.3125)"/><path style="-inkscape-font-specification:Arial" d="M98.97379 140.93662v.11578h-.64848q-.0013-.0435.01405-.0837.02476-.0663.07897-.1305.05488-.0642.15794-.14857.15994-.13116.21616-.20746.0562-.077.0562-.14522 0-.0716-.05152-.12046-.05086-.0495-.13318-.0495-.087 0-.1392.0522-.0522.0522-.05287.14455l-.1238-.0127q.01272-.13853.0957-.21081.08298-.0729.22285-.0729.1412 0 .22352.0783.0823.0783.0823.19407 0 .0589-.02408.11578-.0241.0569-.08031.11979-.05554.0629-.18538.17265-.10841.091-.1392.12381-.03077.0321-.05085.0649zm.13719-.73681v-.11577h.63508v.0937q-.09369.0997-.18604.26501-.09168.1653-.14187.33996-.03614.12314-.04618.2697h-.1238q.002-.11578.0455-.27973.0435-.16396.12448-.31588.08164-.15258.17332-.25698z" aria-label="27" font-size="1.37056" font-family="Arial" transform="translate(-63.5 -87.3125)"/><path style="-inkscape-font-specification:Arial" d="M98.9524 143.5884v.11578h-.64847q-.0013-.0435.01405-.0837.02476-.0663.07897-.1305.05488-.0642.15793-.14857.15995-.13117.21616-.20746.05622-.077.05622-.14522 0-.0716-.05153-.12046-.05086-.0495-.13317-.0495-.087 0-.1392.0522-.0522.0522-.05287.14455l-.1238-.0127q.01271-.13853.0957-.21081.08297-.0729.22284-.0729.1412 0 .22352.0783.08231.0783.08231.19407 0 .0589-.02409.11577-.02409.0569-.0803.11979-.05556.0629-.18538.17266-.10841.091-.1392.12381-.03078.0321-.05086.0649zm.31453-.41625q-.07495-.0274-.11109-.0783-.03614-.0509-.03614-.1218 0-.10707.07696-.18002.07696-.0729.20478-.0729.1285 0 .2068.075.0783.0743.0783.18136 0 .0683-.03615.11912-.03547.0502-.10841.0776.09034.0294.13719.095.04752.0656.04752.1566 0 .12581-.08901.21147-.08901.0857-.23423.0857t-.23422-.0857q-.08901-.0863-.08901-.21482 0-.0957.04818-.15994.04885-.0649.13852-.0883zm-.02409-.20411q0 .0696.04484.11376.04484.0442.11645.0442.0696 0 .11376-.0435.04484-.0442.04484-.10774 0-.0662-.04618-.11109-.0455-.0455-.11376-.0455-.06893 0-.11444.0442-.04551.0442-.04551.10574zm-.0388.45306q0 .0515.02408.0997.02476.0482.07294.075.04818.0261.10373.0261.08633 0 .14255-.0555.0562-.0555.0562-.14121 0-.087-.05821-.14388-.05755-.0569-.14456-.0569-.08499 0-.1412.0562-.05555.0562-.05555.14054z" aria-label="28" font-size="1.37056" font-family="Arial" transform="translate(-63.5 -87.3125)"/><path style="-inkscape-font-specification:Arial" d="M98.9524 146.13326v.11578h-.64847q-.0013-.0435.01405-.0837.02476-.0663.07897-.1305.05488-.0642.15793-.14857.15995-.13116.21616-.20746.05622-.077.05622-.14522 0-.0716-.05153-.12046-.05086-.0495-.13317-.0495-.087 0-.1392.0522-.0522.0522-.05287.14455l-.1238-.0127q.01271-.13853.0957-.21081.08297-.0729.22284-.0729.1412 0 .22352.0783.08231.0783.08231.19407 0 .0589-.02409.11578-.02409.0569-.0803.11979-.05556.0629-.18538.17265-.10841.091-.1392.12381-.03078.0321-.05086.0649zm.14723-.11109.11577-.0107q.01472.0816.05622.11845.0415.0368.1064.0368.05556 0 .09705-.0254.04216-.0254.06893-.0676.02677-.0428.04484-.1151t.01807-.14723q0-.008-.00067-.0241-.03614.0575-.09904.0937-.06224.0355-.13518.0355-.1218 0-.20612-.0883-.08432-.0883-.08432-.23289 0-.14923.08767-.24025.08834-.091.22084-.091.0957 0 .17467.0515.07964.0515.12046.14723.04149.095.04149.27571 0 .18806-.04082.29981-.04082.1111-.1218.16932-.08031.0582-.18872.0582-.1151 0-.18805-.0636-.07295-.0642-.08767-.18002zm.49321-.43298q0-.10373-.05554-.16463-.05488-.0609-.1325-.0609-.08031 0-.13987.0656-.05956.0656-.05956.16998 0 .0937.05621.15258.05688.0582.13987.0582.08365 0 .13719-.0582.0542-.0589.0542-.16262z" aria-label="29" font-size="1.37056" font-family="Arial" transform="translate(-63.5 -87.3125)"/><path style="-inkscape-font-specification:Arial" d="m98.31999 148.5563.12046-.0161q.02075.10239.07027.1479.05019.0448.1218.0448.08499 0 .1432-.0589.0589-.0589.0589-.14589 0-.083-.05421-.13652-.05421-.0542-.13786-.0542-.03413 0-.08499.0134l.01338-.10573q.01205.001.01941.001.07696 0 .13853-.0402.06157-.0402.06157-.1238 0-.0662-.04484-.10975-.04484-.0435-.11578-.0435-.07027 0-.11711.0442-.04685.0442-.06023.1325l-.12046-.0214q.02208-.12113.10038-.18739.0783-.0669.19475-.0669.0803 0 .1479.0348.06758.0341.10305.0937.03614.0596.03614.12648 0 .0636-.03413.11578-.03413.0522-.10105.083.087.0201.13518.0837.04818.0629.04818.15794 0 .12849-.09369.21817-.09369.089-.2369.089-.12916 0-.21482-.077-.08499-.077-.09704-.19943zm.76157-.22485q0-.174.03547-.27974.03614-.1064.1064-.16395.07095-.0576.17802-.0576.07897 0 .13853.0321.05956.0315.09838.0917.0388.0596.0609.14589.02208.0857.02208.23155 0 .17266-.03547.27906-.03547.10574-.1064.16396-.07028.0575-.17802.0575-.14187 0-.22285-.10172-.09704-.12247-.09704-.39885zm.1238 0q0 .24159.05622.32189.05688.0796.13986.0796.08298 0 .1392-.0803.05688-.0803.05688-.32122 0-.24226-.05688-.3219-.05621-.0796-.14054-.0796-.08298 0-.1325.0703-.06224.0897-.06224.33127z" aria-label="30" font-size="1.37056" font-family="Arial" transform="translate(-63.5 -87.3125)"/><path style="-inkscape-font-specification:Arial" d="M88.92933 151.44569h-.12046v-.76759q-.0435.0415-.11444.083-.07026.0415-.12648.0622v-.11644q.10105-.0475.17668-.11511.07562-.0676.10707-.13117h.07763zm.30918-.25898.12046-.0161q.02075.10239.07027.14789.05019.0448.1218.0448.08499 0 .1432-.0589.0589-.0589.0589-.14589 0-.083-.05421-.13652-.05421-.0542-.13786-.0542-.03413 0-.08499.0134l.01338-.10574q.01205.001.01941.001.07696 0 .13853-.0402.06157-.0402.06157-.1238 0-.0662-.04484-.10975-.04484-.0435-.11578-.0435-.07027 0-.11711.0442-.04685.0442-.06023.1325l-.12046-.0214q.02208-.12113.10038-.18738.0783-.0669.19474-.0669.08031 0 .1479.0348.0676.0341.10306.0937.03614.0596.03614.12649 0 .0636-.03413.11577-.03413.0522-.10105.083.087.0201.13518.0837.04818.0629.04818.15793 0 .12849-.09369.21817-.09369.089-.2369.089-.12916 0-.21482-.077-.085-.077-.09704-.19942z" aria-label="13" font-size="1.37056" font-family="Arial" transform="translate(-63.5 -87.3125)"/><path style="-inkscape-font-specification:Arial" d="M88.92933 153.905h-.12046v-.7676q-.0435.0415-.11444.083-.07026.0415-.12648.0622v-.11645q.10105-.0475.17668-.1151.07562-.0676.10707-.13117h.07763zm.69465 0v-.2349h-.42562v-.11042l.4477-.63576h.09838v.63576h.1325v.11042h-.1325v.2349zm0-.34532v-.44235l-.30717.44235z" aria-label="14" font-size="1.37056" font-family="Arial" transform="translate(-63.5 -87.3125)"/><path style="-inkscape-font-specification:Arial" d="M88.92933 156.47125h-.12046v-.76759q-.0435.0415-.11444.083-.07026.0415-.12648.0622v-.11645q.10105-.0475.17668-.1151.07562-.0676.10707-.13117h.07763zm.30851-.25698.12648-.0107q.01405.0924.06491.1392.05153.0462.1238.0462.087 0 .14724-.0656.06023-.0656.06023-.174 0-.10306-.05822-.16262-.05755-.0596-.15125-.0596-.05822 0-.10507.0268-.04684.0261-.0736.0683l-.1131-.0147.09503-.50392h.48786v.11511h-.3915l-.05287.26367q.08834-.0616.18538-.0616.12849 0 .21683.089t.08834.22887q0 .13318-.07763.23021-.09436.11912-.25765.11912-.13385 0-.21884-.075-.08432-.075-.09637-.19876z" aria-label="15" font-size="1.37056" font-family="Arial" transform="translate(-63.5 -87.3125)"/><path style="-inkscape-font-specification:Arial" d="M88.90794 159.12303h-.12045v-.76759q-.0435.0415-.11444.083-.07027.0415-.12648.0622v-.11645q.10105-.0475.17667-.1151.07562-.0676.10708-.13117h.07763zm.93357-.74082-.1198.009q-.01605-.0709-.0455-.10306-.04885-.0515-.12046-.0515-.05755 0-.10106.0321-.05688.0415-.08967.12113-.03279.0796-.03413.22686.0435-.0662.10641-.0984.06291-.0321.13184-.0321.12046 0 .20478.089.08499.0883.08499.22887 0 .0924-.04015.17199-.03948.079-.10909.12113-.0696.0422-.15793.0422-.15058 0-.2456-.11042-.09503-.11109-.09503-.36539 0-.28442.10506-.41358.09168-.11243.24694-.11243.11578 0 .1894.0649.07427.0649.089.17935zm-.49188.42294q0 .0622.0261.11912.02677.0569.07428.087.04752.0294.09971.0294.07629 0 .13117-.0616.05488-.0616.05488-.16731 0-.10172-.05421-.15994-.05421-.0589-.13652-.0589-.08164 0-.13853.0589-.05688.0582-.05688.15325z" aria-label="16" font-size="1.37056" font-family="Arial" transform="translate(-63.5 -87.3125)"/><path style="-inkscape-font-specification:Arial" d="M88.90794 161.66789h-.12045v-.76759q-.0435.0415-.11444.083-.07027.0415-.12648.0622v-.11645q.10105-.0475.17667-.1151.07562-.0676.10708-.13117h.07763zm.31655-.85258v-.11578h.63508v.0937q-.09369.0997-.18604.26501-.09168.1653-.14187.33997-.03614.12313-.04618.26969h-.1238q.002-.11577.0455-.27973t.12448-.31587q.08165-.15258.17332-.25698z" aria-label="17" font-size="1.37056" font-family="Arial" transform="translate(-63.5 -87.3125)"/><path style="-inkscape-font-specification:Arial" d="M88.90794 164.23415h-.12045v-.7676q-.0435.0415-.11444.083-.07027.0415-.12648.0622v-.11644q.10105-.0475.17667-.11511.07562-.0676.10708-.13116h.07763zm.49389-.53203q-.07495-.0274-.1111-.0783-.03613-.0509-.03613-.1218 0-.10707.07696-.18002.07696-.0729.20478-.0729.12849 0 .20679.075.0783.0743.0783.18136 0 .0683-.03614.11912-.03547.0502-.10842.0776.09034.0294.1372.095.04751.0656.04751.15659 0 .12582-.089.21148-.08902.0857-.23423.0857-.14522 0-.23423-.0857-.08901-.0863-.08901-.21482 0-.0957.04818-.15995.04885-.0649.13853-.0883zm-.0241-.20411q0 .0696.04485.11376.04484.0442.11644.0442.0696 0 .11377-.0435.04484-.0442.04484-.10774 0-.0663-.04618-.11109-.0455-.0455-.11377-.0455-.06893 0-.11443.0442-.04551.0442-.04551.10574zm-.0388.45306q0 .0515.02409.0997.02476.0482.07294.075.04818.0261.10373.0261.08633 0 .14254-.0555.05621-.0556.05621-.14121 0-.087-.05822-.14388-.05755-.0569-.14455-.0569-.085 0-.1412.0562-.05556.0562-.05556.14054z" aria-label="18" font-size="1.37056" font-family="Arial" transform="translate(-63.5 -87.3125)"/><path style="-inkscape-font-specification:Arial" d="m98.27722 151.18671.12046-.0161q.02075.10239.07027.14789.05019.0448.1218.0448.08499 0 .1432-.0589.0589-.0589.0589-.14589 0-.083-.05421-.13652-.05421-.0542-.13786-.0542-.03413 0-.085.0134l.01339-.10574q.01205.001.0194.001.07697 0 .13854-.0402t.06157-.1238q0-.0662-.04484-.10975-.04484-.0435-.11578-.0435-.07027 0-.11711.0442-.04685.0442-.06023.1325l-.12046-.0214q.02208-.12113.10038-.18738.0783-.0669.19474-.0669.08031 0 .1479.0348.0676.0341.10306.0937.03614.0596.03614.12649 0 .0636-.03413.11577-.03413.0522-.10105.083.087.0201.13518.0837.04818.0629.04818.15793 0 .12849-.09369.21817-.09369.089-.2369.089-.12916 0-.21482-.077-.08499-.077-.09704-.19942zm1.2153.25898h-.12046v-.76759q-.0435.0415-.11444.083-.07027.0415-.12648.0622v-.11644q.10105-.0475.17668-.11511.07562-.0676.10707-.13117h.07763z" aria-label="31" font-size="1.37056" font-family="Arial" transform="translate(-63.5 -87.3125)"/><path style="-inkscape-font-specification:Arial" d="m98.27722 153.64601.12046-.0161q.02075.10239.07027.1479.05019.0448.1218.0448.08499 0 .1432-.0589.0589-.0589.0589-.14589 0-.083-.05421-.13652-.05421-.0542-.13786-.0542-.03413 0-.085.0134l.01339-.10574q.01205.001.0194.001.07697 0 .13854-.0402.06157-.0401.06157-.12381 0-.0662-.04484-.10975-.04484-.0435-.11578-.0435-.07027 0-.11711.0442-.04685.0442-.06023.13251l-.12046-.0214q.02208-.12113.10038-.18738.0783-.0669.19474-.0669.08031 0 .1479.0348.0676.0341.10306.0937.03614.0596.03614.12648 0 .0636-.03413.11578-.03413.0522-.10105.083.087.0201.13518.0837.04818.0629.04818.15794 0 .12849-.09369.21816-.09369.089-.2369.089-.12916 0-.21482-.077-.08499-.077-.09704-.19943zm1.39465.14321v.11578h-.64847q-.0013-.0435.01405-.0837.02476-.0663.07897-.1305.05488-.0643.15793-.14857.15995-.13116.21616-.20746.05621-.077.05621-.14522 0-.0716-.05153-.12046-.05086-.0495-.13317-.0495-.087 0-.1392.0522-.0522.0522-.05287.14455l-.1238-.0127q.01271-.13853.0957-.21081.08297-.0729.22284-.0729.1412 0 .22352.0783.08231.0783.08231.19407 0 .0589-.02409.11578-.02409.0569-.0803.11979-.05556.0629-.18538.17265-.10842.091-.1392.12381-.03078.0321-.05086.0649z" aria-label="32" font-size="1.37056" font-family="Arial" transform="translate(-63.5 -87.3125)"/><path style="-inkscape-font-specification:Arial" d="m98.27722 156.21226.12046-.0161q.02075.10239.07027.1479.05019.0448.1218.0448.08499 0 .1432-.0589.0589-.0589.0589-.14589 0-.083-.05421-.13652-.05421-.0542-.13786-.0542-.03413 0-.085.0134l.01339-.10573q.01205.001.0194.001.07697 0 .13854-.0402.06157-.0401.06157-.1238 0-.0662-.04484-.10975-.04484-.0435-.11578-.0435-.07027 0-.11711.0442-.04685.0442-.06023.1325l-.12046-.0214q.02208-.12113.10038-.18739.0783-.0669.19474-.0669.08031 0 .1479.0348.0676.0341.10306.0937.03614.0596.03614.12648 0 .0636-.03413.11578-.03413.0522-.10105.083.087.0201.13518.0837.04818.0629.04818.15793 0 .12849-.09369.21817-.09369.089-.2369.089-.12916 0-.21482-.077-.08499-.077-.09704-.19943zm.76224 0 .12046-.0161q.02075.10239.07027.1479.05019.0448.1218.0448.08499 0 .1432-.0589.0589-.0589.0589-.14589 0-.083-.05421-.13652-.05421-.0542-.13786-.0542-.03413 0-.085.0134l.01339-.10573q.01205.001.0194.001.07697 0 .13854-.0402.06157-.0401.06157-.1238 0-.0662-.04484-.10975-.04484-.0435-.11578-.0435-.07027 0-.11711.0442-.04685.0442-.06023.1325l-.12046-.0214q.02209-.12113.10038-.18739.0783-.0669.19474-.0669.08031 0 .1479.0348.0676.0341.10306.0937.03614.0596.03614.12648 0 .0636-.03413.11578-.03413.0522-.10105.083.087.0201.13518.0837.04818.0629.04818.15793 0 .12849-.09369.21817-.09369.089-.2369.089-.12916 0-.21482-.077-.085-.077-.09704-.19943z" aria-label="33" font-size="1.37056" font-family="Arial" transform="translate(-63.5 -87.3125)"/><path style="-inkscape-font-specification:Arial" d="m98.25583 158.86404.12046-.0161q.02074.10239.07027.1479.0502.0448.1218.0448.085 0 .14321-.0589.0589-.0589.0589-.14589 0-.083-.05422-.13652-.0542-.0542-.13786-.0542-.03413 0-.08499.0134l.01338-.10573q.01205.001.01941.001.07696 0 .13853-.0402.06157-.0401.06157-.1238 0-.0663-.04484-.10975-.04484-.0435-.11577-.0435-.07027 0-.11712.0442-.04684.0442-.06023.13251l-.12045-.0214q.02208-.12112.10038-.18738.0783-.0669.19474-.0669.08031 0 .1479.0348.06759.0341.10306.0937.03614.0596.03614.12648 0 .0636-.03413.11578-.03413.0522-.10105.083.087.0201.13518.0837.04818.0629.04818.15794 0 .12849-.0937.21817-.09368.089-.2369.089-.12915 0-.21481-.077-.085-.077-.09704-.19943zm1.14771.25899v-.23489h-.42562v-.11043l.4477-.63575h.09838v.63575h.1325v.11043h-.1325v.23489zm0-.34532v-.44235l-.30717.44235z" aria-label="34" font-size="1.37056" font-family="Arial" transform="translate(-63.5 -87.3125)"/><path style="-inkscape-font-specification:Arial" d="m98.25583 161.4089.12046-.0161q.02074.10239.07027.1479.0502.0448.1218.0448.085 0 .14321-.0589.0589-.0589.0589-.14589 0-.083-.05422-.13652-.0542-.0542-.13786-.0542-.03413 0-.08499.0134l.01338-.10573q.01205.001.01941.001.07696 0 .13853-.0402.06157-.0401.06157-.1238 0-.0662-.04484-.10975-.04484-.0435-.11577-.0435-.07027 0-.11712.0442-.04684.0442-.06023.1325l-.12045-.0214q.02208-.12113.10038-.18739.0783-.0669.19474-.0669.08031 0 .1479.0348.06759.0341.10306.0937.03614.0596.03614.12648 0 .0636-.03413.11578-.03413.0522-.10105.083.087.0201.13518.0837.04818.0629.04818.15793 0 .12849-.0937.21817-.09368.089-.2369.089-.12915 0-.21481-.077-.085-.077-.09704-.19943zm.76157.002.12649-.0107q.01405.0924.0649.1392.05154.0462.12381.0462.087 0 .14723-.0656.06023-.0656.06023-.174 0-.10306-.05822-.16262-.05755-.0596-.15125-.0596-.05822 0-.10506.0268-.04685.0261-.07361.0683l-.1131-.0147.09503-.50392h.48786v.11511h-.3915l-.05286.26367q.08834-.0616.18537-.0616.1285 0 .21683.089.08834.089.08834.22887 0 .13318-.07763.23021-.09436.11912-.25765.11912-.13384 0-.21883-.075-.08432-.075-.09637-.19876z" aria-label="35" font-size="1.37056" font-family="Arial" transform="translate(-63.5 -87.3125)"/><path style="-inkscape-font-specification:Arial" d="m98.25583 163.97516.12046-.0161q.02074.10239.07027.14789.0502.0448.1218.0448.085 0 .14321-.0589.0589-.0589.0589-.14589 0-.083-.05422-.13652-.0542-.0542-.13786-.0542-.03413 0-.08499.0134l.01338-.10574q.01205.001.01941.001.07696 0 .13853-.0402.06157-.0402.06157-.12381 0-.0662-.04484-.10975-.04484-.0435-.11577-.0435-.07027 0-.11712.0442-.04684.0442-.06023.1325l-.12045-.0214q.02208-.12113.10038-.18738.0783-.0669.19474-.0669.08031 0 .1479.0348.06759.0341.10306.0937.03614.0596.03614.12648 0 .0636-.03413.11577-.03413.0522-.10105.083.087.0201.13518.0837.04818.0629.04818.15793 0 .12849-.0937.21817-.09368.089-.2369.089-.12915 0-.21481-.077-.085-.077-.09704-.19943zm1.38662-.48184-.11979.009q-.01606-.0709-.0455-.10306-.04886-.0515-.12046-.0515-.05755 0-.10106.0321-.05688.0415-.08967.12113-.03279.0796-.03413.22687.0435-.0663.1064-.0984.06292-.0321.13184-.0321.12046 0 .20479.089.08499.0883.08499.22887 0 .0923-.04015.17199-.03948.079-.10909.12113-.0696.0422-.15793.0422-.15058 0-.2456-.11042-.09504-.11109-.09504-.3654 0-.28442.10507-.41358.09168-.11242.24694-.11242.11578 0 .1894.0649.07427.0649.089.17935zm-.49187.42295q0 .0622.0261.11912.02677.0569.07428.087.0475.0294.0997.0294.0763 0 .13118-.0616.05488-.0616.05488-.1673 0-.10172-.05421-.15994-.05421-.0589-.13652-.0589-.08164 0-.13853.0589-.05688.0582-.05688.15325z" aria-label="36" font-size="1.37056" font-family="Arial" transform="translate(-63.5 -87.3125)"/><path d="M76.57615 177.34306v-4.0404h2.92144v.4768h-2.38676v1.23748h2.23518v.47404h-2.23518v1.37528h2.48047v.4768zm3.35966 0 1.06936-1.52135-.98944-1.4056h.62012l.44924.68626q.12678.19569.20395.32798.12127-.1819.22324-.32246l.49334-.69178h.59256l-1.01148 1.37804 1.08865 1.54891h-.6091l-.60082-.9095-.15985-.24529-.76895 1.15479zm4.23608-.44372.07166.43821q-.20946.0441-.37482.0441-.2701 0-.41893-.0854-.14882-.0854-.20946-.22324-.06063-.14056-.06063-.58705V174.802h-.3638v-.38585h.3638v-.72485l.49334-.29765v1.0225h.49885v.38585h-.49885v1.71152q0 .21222.0248.27286.02756.0606.08544.0965.06063.0358.17088.0358.08268 0 .21773-.0193zm.47956.44372v-2.92695h.44649v.44373q.17087-.31144.31419-.41065.14607-.0992.3197-.0992.2508 0 .50988.15985l-.17088.46026q-.1819-.10748-.3638-.10748-.16261 0-.29215.0992-.12953.0965-.18465.27009-.08268.26458-.08268.57878v1.53237zm3.79512-.36104q-.27561.23426-.53193.33073-.25356.0965-.5457.0965-.48231 0-.74138-.23427-.25907-.23702-.25907-.60358 0-.21497.09646-.39136.09921-.17914.25631-.28663.15985-.10749.35829-.16261.14607-.0386.44097-.0744.60082-.0717.8847-.17088.0028-.10198.0028-.12954 0-.30316-.14056-.42719-.19017-.16812-.565-.16812-.35002 0-.51814.12403-.16536.12126-.24529.4327l-.48507-.0661q.06615-.31143.21773-.5016.15159-.19293.43822-.2949.28663-.10473.66421-.10473.37483 0 .6091.0882.23426.0882.3445.22324.11025.13229.15435.33624.0248.12678.0248.45751v.66146q0 .69177.03032.87643.03307.1819.12678.35002h-.51815q-.07717-.15434-.09922-.36104zm-.04134-1.10794q-.2701.11024-.8103.18741-.30592.0441-.4327.0992-.12677.0551-.19568.16261-.0689.10473-.0689.23426 0 .19844.14883.33073.15159.13229.44097.13229.28664 0 .50988-.12402.22324-.12678.32797-.34451.07993-.16812.07993-.49609zm2.90214 1.46898v-4.0404h1.39182q.47129 0 .71934.0579.34726.0799.59255.28938.3197.2701.4768.69178.15985.41892.15985.95911 0 .46027-.10748.8158-.10749.35553-.27561.5898-.16812.23151-.36931.36656-.19844.13229-.48232.20119-.28112.0689-.64768.0689zm.53468-.4768h.86265q.39963 0 .62563-.0744.22875-.0744.3638-.20946.19017-.19017.2949-.50988.10749-.32246.10749-.77997 0-.63389-.20946-.97289-.2067-.34175-.50436-.45751-.21498-.0827-.69178-.0827h-.84887zm3.6325.4768v-4.0404h.53469v4.0404zm1.47175 0v-4.0404h.54846l2.12218 3.17224v-3.17224h.51263v4.0404h-.54846l-2.12218-3.17499v3.17499zm5.65822 0v-4.0404h1.79145q.5402 0 .82131.11024.28112.10749.44924.3831.16812.2756.16812.60909 0 .42995-.27837.72485-.27836.2949-.85989.37482.21222.10198.32246.2012.23427.21497.44373.53743l.7028 1.09967h-.67248l-.53468-.8406q-.23427-.3638-.38585-.55673-.15159-.19292-.27285-.27009-.11852-.0772-.24254-.10749-.091-.0193-.29766-.0193h-.6201v1.7942zm.53468-2.25722h1.14928q.36656 0 .57326-.0744.20671-.0772.3142-.24253.10748-.16812.10748-.3638 0-.28663-.20946-.47129-.2067-.18466-.65594-.18466h-1.27882zm5.37985 1.89618q-.2756.23426-.53192.33073-.25356.0965-.5457.0965-.4823 0-.74139-.23427-.25907-.23702-.25907-.60358 0-.21497.0965-.39136.0992-.17914.25631-.28663.15985-.10749.3583-.16261.14606-.0386.44096-.0744.60083-.0717.8847-.17088.003-.10198.003-.12954 0-.30316-.14056-.42719-.19017-.16812-.565-.16812-.35002 0-.51814.12403-.16536.12126-.24529.4327l-.48507-.0661q.0662-.31143.21773-.5016.1516-.19293.43822-.2949.28663-.10473.66421-.10473.37483 0 .6091.0882.23426.0882.3445.22324.11025.13229.15434.33624.0248.12678.0248.45751v.66146q0 .69177.0303.87643.0331.1819.12677.35002h-.51814q-.0772-.15434-.0992-.36104zm-.0413-1.10794q-.27009.11024-.81028.18741-.30593.0441-.4327.0992-.12679.0551-.19569.16261-.0689.10473-.0689.23426 0 .19844.14883.33073.15158.13229.44097.13229.28663 0 .50987-.12402.22325-.12678.32798-.34451.0799-.16812.0799-.49609zm1.27331-2.00091v-.57051h.4961v.57051zm0 3.46989v-2.92695h.4961v2.92695zm1.24023 0v-4.0404h.4961v4.0404z" style="-inkscape-font-specification:Arial" aria-label="Extra DIN Rail" font-size="5.64444" font-family="Arial" transform="translate(-63.5 -87.3125)"/></svg>