<svg width="120.1878" height="485.19443" viewBox="0 0 31.79969 128.37436" xmlns="http://www.w3.org/2000/svg"><g transform="translate(-83.91186 -89.74794)"><rect width="20.44441" height="16.16734" x="89.73301" y="89.81335" ry="0" fill="#f3f2ee"/><rect width="6.23016" height="2.54045" x="109.48139" y="96.67059" ry="1.14925" fill="#b54a2e"/><rect width="6.23016" height="2.54045" x="109.48139" y="91.27406" ry="1.14925" fill="#b54a2e"/><rect width="6.23016" height="2.54045" x="109.48139" y="102.00624" ry="1.14925" fill="#b54a2e"/><path d="M111.14149 89.89556h-5.57264v5.27749h5.57264z" fill="#ececec" stroke="#000" stroke-width=".265"/><path d="m111.18141 92.5548-5.66715.02139" fill="#031556" stroke="#000" stroke-width=".265" stroke-dasharray=".529998,.264999"/><path d="M111.16288 95.28468h-5.57264v5.27748h5.57264z" fill="#ececec" stroke="#000" stroke-width=".265"/><path d="M107.65566 89.93417h-2.0868v5.2775h2.0868z" fill="#cc1212" stroke="#000" stroke-width=".265"/><path d="m111.20279 97.94391-5.66715.0214" fill="#031556" stroke="#000" stroke-width=".265" stroke-dasharray=".529998,.264999"/><path d="M111.16288 100.60963h-5.57264v5.27749h5.57264zM107.65566 95.2419h-2.0868v5.27749h2.0868z" fill="#ececec" stroke="#000" stroke-width=".265"/><path d="m111.20279 103.26887-5.66715.0214" fill="#031556" stroke="#000" stroke-width=".265" stroke-dasharray=".529998,.264999"/><path d="M107.65566 100.53452h-2.0868v5.27749h2.0868z" fill="#031556" stroke="#000" stroke-width=".265"/><rect width="6.23016" height="2.54045" x="-90.20876" y="96.65547" ry="1.14925" transform="scale(-1 1)" fill="#b54a2e"/><rect width="6.23016" height="2.54045" x="-90.20876" y="91.25894" ry="1.14925" transform="scale(-1 1)" fill="#b54a2e"/><rect width="6.23016" height="2.54045" x="-90.20876" y="101.99112" ry="1.14925" transform="scale(-1 1)" fill="#b54a2e"/><path d="M88.54865 89.88044h5.57264v5.27749h-5.57264z" fill="#ececec" stroke="#000" stroke-width=".265"/><path d="m88.50873 92.53968 5.66715.02139" fill="#031556" stroke="#000" stroke-width=".265" stroke-dasharray=".529998,.264999"/><path d="M88.52726 95.26955h5.57264v5.27749h-5.57264z" fill="#ececec" stroke="#000" stroke-width=".265"/><path d="M92.03448 89.91905h2.0868v5.27749h-2.0868z" fill="#cc1212" stroke="#000" stroke-width=".265"/><path d="m88.48735 97.92879 5.66715.0214" fill="#031556" stroke="#000" stroke-width=".265" stroke-dasharray=".529998,.264999"/><path d="M88.52726 100.59451h5.57264v5.27749h-5.57264zM92.03448 95.22678h2.0868v5.27749h-2.0868z" fill="#ececec" stroke="#000" stroke-width=".265"/><path d="m88.48735 103.25375 5.66715.0214" fill="#031556" stroke="#000" stroke-width=".265" stroke-dasharray=".529998,.264999"/><path d="M92.03448 100.5194h2.0868v5.27749h-2.0868z" fill="#031556" stroke="#000" stroke-width=".265"/></g><g transform="translate(-83.91186 -73.75169)"><rect width="20.44441" height="16.16734" x="89.73301" y="89.81335" ry="0" fill="#f3f2ee"/><rect width="6.23016" height="2.54045" x="109.48139" y="96.67059" ry="1.14925" fill="#b54a2e"/><rect width="6.23016" height="2.54045" x="109.48139" y="91.27406" ry="1.14925" fill="#b54a2e"/><rect width="6.23016" height="2.54045" x="109.48139" y="102.00624" ry="1.14925" fill="#b54a2e"/><path d="M111.14149 89.89556h-5.57264v5.27749h5.57264z" fill="#ececec" stroke="#000" stroke-width=".265"/><path d="m111.18141 92.5548-5.66715.02139" fill="#031556" stroke="#000" stroke-width=".265" stroke-dasharray=".529998,.264999"/><path d="M111.16288 95.28468h-5.57264v5.27748h5.57264z" fill="#ececec" stroke="#000" stroke-width=".265"/><path d="M107.65566 89.93417h-2.0868v5.2775h2.0868z" fill="#cc1212" stroke="#000" stroke-width=".265"/><path d="m111.20279 97.94391-5.66715.0214" fill="#031556" stroke="#000" stroke-width=".265" stroke-dasharray=".529998,.264999"/><path d="M111.16288 100.60963h-5.57264v5.27749h5.57264zM107.65566 95.2419h-2.0868v5.27749h2.0868z" fill="#ececec" stroke="#000" stroke-width=".265"/><path d="m111.20279 103.26887-5.66715.0214" fill="#031556" stroke="#000" stroke-width=".265" stroke-dasharray=".529998,.264999"/><path d="M107.65566 100.53452h-2.0868v5.27749h2.0868z" fill="#031556" stroke="#000" stroke-width=".265"/><rect width="6.23016" height="2.54045" x="-90.20876" y="96.65547" ry="1.14925" transform="scale(-1 1)" fill="#b54a2e"/><rect width="6.23016" height="2.54045" x="-90.20876" y="91.25894" ry="1.14925" transform="scale(-1 1)" fill="#b54a2e"/><rect width="6.23016" height="2.54045" x="-90.20876" y="101.99112" ry="1.14925" transform="scale(-1 1)" fill="#b54a2e"/><path d="M88.54865 89.88044h5.57264v5.27749h-5.57264z" fill="#ececec" stroke="#000" stroke-width=".265"/><path d="m88.50873 92.53968 5.66715.02139" fill="#031556" stroke="#000" stroke-width=".265" stroke-dasharray=".529998,.264999"/><path d="M88.52726 95.26955h5.57264v5.27749h-5.57264z" fill="#ececec" stroke="#000" stroke-width=".265"/><path d="M92.03448 89.91905h2.0868v5.27749h-2.0868z" fill="#cc1212" stroke="#000" stroke-width=".265"/><path d="m88.48735 97.92879 5.66715.0214" fill="#031556" stroke="#000" stroke-width=".265" stroke-dasharray=".529998,.264999"/><path d="M88.52726 100.59451h5.57264v5.27749h-5.57264zM92.03448 95.22678h2.0868v5.27749h-2.0868z" fill="#ececec" stroke="#000" stroke-width=".265"/><path d="m88.48735 103.25375 5.66715.0214" fill="#031556" stroke="#000" stroke-width=".265" stroke-dasharray=".529998,.264999"/><path d="M92.03448 100.5194h2.0868v5.27749h-2.0868z" fill="#031556" stroke="#000" stroke-width=".265"/></g><g transform="translate(-83.91186 -57.6972)"><rect width="20.44441" height="16.16734" x="89.73301" y="89.81335" ry="0" fill="#f3f2ee"/><rect width="6.23016" height="2.54045" x="109.48139" y="96.67059" ry="1.14925" fill="#b54a2e"/><rect width="6.23016" height="2.54045" x="109.48139" y="91.27406" ry="1.14925" fill="#b54a2e"/><rect width="6.23016" height="2.54045" x="109.48139" y="102.00624" ry="1.14925" fill="#b54a2e"/><path d="M111.14149 89.89556h-5.57264v5.27749h5.57264z" fill="#ececec" stroke="#000" stroke-width=".265"/><path d="m111.18141 92.5548-5.66715.02139" fill="#031556" stroke="#000" stroke-width=".265" stroke-dasharray=".529998,.264999"/><path d="M111.16288 95.28468h-5.57264v5.27748h5.57264z" fill="#ececec" stroke="#000" stroke-width=".265"/><path d="M107.65566 89.93417h-2.0868v5.2775h2.0868z" fill="#cc1212" stroke="#000" stroke-width=".265"/><path d="m111.20279 97.94391-5.66715.0214" fill="#031556" stroke="#000" stroke-width=".265" stroke-dasharray=".529998,.264999"/><path d="M111.16288 100.60963h-5.57264v5.27749h5.57264zM107.65566 95.2419h-2.0868v5.27749h2.0868z" fill="#ececec" stroke="#000" stroke-width=".265"/><path d="m111.20279 103.26887-5.66715.0214" fill="#031556" stroke="#000" stroke-width=".265" stroke-dasharray=".529998,.264999"/><path d="M107.65566 100.53452h-2.0868v5.27749h2.0868z" fill="#031556" stroke="#000" stroke-width=".265"/><rect width="6.23016" height="2.54045" x="-90.20876" y="96.65547" ry="1.14925" transform="scale(-1 1)" fill="#b54a2e"/><rect width="6.23016" height="2.54045" x="-90.20876" y="91.25894" ry="1.14925" transform="scale(-1 1)" fill="#b54a2e"/><rect width="6.23016" height="2.54045" x="-90.20876" y="101.99112" ry="1.14925" transform="scale(-1 1)" fill="#b54a2e"/><path d="M88.54865 89.88044h5.57264v5.27749h-5.57264z" fill="#ececec" stroke="#000" stroke-width=".265"/><path d="m88.50873 92.53968 5.66715.02139" fill="#031556" stroke="#000" stroke-width=".265" stroke-dasharray=".529998,.264999"/><path d="M88.52726 95.26955h5.57264v5.27749h-5.57264z" fill="#ececec" stroke="#000" stroke-width=".265"/><path d="M92.03448 89.91905h2.0868v5.27749h-2.0868z" fill="#cc1212" stroke="#000" stroke-width=".265"/><path d="m88.48735 97.92879 5.66715.0214" fill="#031556" stroke="#000" stroke-width=".265" stroke-dasharray=".529998,.264999"/><path d="M88.52726 100.59451h5.57264v5.27749h-5.57264zM92.03448 95.22678h2.0868v5.27749h-2.0868z" fill="#ececec" stroke="#000" stroke-width=".265"/><path d="m88.48735 103.25375 5.66715.0214" fill="#031556" stroke="#000" stroke-width=".265" stroke-dasharray=".529998,.264999"/><path d="M92.03448 100.5194h2.0868v5.27749h-2.0868z" fill="#031556" stroke="#000" stroke-width=".265"/></g><g transform="translate(-83.91186 -41.70094)"><rect width="20.44441" height="16.16734" x="89.73301" y="89.81335" ry="0" fill="#f3f2ee"/><rect width="6.23016" height="2.54045" x="109.48139" y="96.67059" ry="1.14925" fill="#b54a2e"/><rect width="6.23016" height="2.54045" x="109.48139" y="91.27406" ry="1.14925" fill="#b54a2e"/><rect width="6.23016" height="2.54045" x="109.48139" y="102.00624" ry="1.14925" fill="#b54a2e"/><path d="M111.14149 89.89556h-5.57264v5.27749h5.57264z" fill="#ececec" stroke="#000" stroke-width=".265"/><path d="m111.18141 92.5548-5.66715.02139" fill="#031556" stroke="#000" stroke-width=".265" stroke-dasharray=".529998,.264999"/><path d="M111.16288 95.28468h-5.57264v5.27748h5.57264z" fill="#ececec" stroke="#000" stroke-width=".265"/><path d="M107.65566 89.93417h-2.0868v5.2775h2.0868z" fill="#cc1212" stroke="#000" stroke-width=".265"/><path d="m111.20279 97.94391-5.66715.0214" fill="#031556" stroke="#000" stroke-width=".265" stroke-dasharray=".529998,.264999"/><path d="M111.16288 100.60963h-5.57264v5.27749h5.57264zM107.65566 95.2419h-2.0868v5.27749h2.0868z" fill="#ececec" stroke="#000" stroke-width=".265"/><path d="m111.20279 103.26887-5.66715.0214" fill="#031556" stroke="#000" stroke-width=".265" stroke-dasharray=".529998,.264999"/><path d="M107.65566 100.53452h-2.0868v5.27749h2.0868z" fill="#031556" stroke="#000" stroke-width=".265"/><rect width="6.23016" height="2.54045" x="-90.20876" y="96.65547" ry="1.14925" transform="scale(-1 1)" fill="#b54a2e"/><rect width="6.23016" height="2.54045" x="-90.20876" y="91.25894" ry="1.14925" transform="scale(-1 1)" fill="#b54a2e"/><rect width="6.23016" height="2.54045" x="-90.20876" y="101.99112" ry="1.14925" transform="scale(-1 1)" fill="#b54a2e"/><path d="M88.54865 89.88044h5.57264v5.27749h-5.57264z" fill="#ececec" stroke="#000" stroke-width=".265"/><path d="m88.50873 92.53968 5.66715.02139" fill="#031556" stroke="#000" stroke-width=".265" stroke-dasharray=".529998,.264999"/><path d="M88.52726 95.26955h5.57264v5.27749h-5.57264z" fill="#ececec" stroke="#000" stroke-width=".265"/><path d="M92.03448 89.91905h2.0868v5.27749h-2.0868z" fill="#cc1212" stroke="#000" stroke-width=".265"/><path d="m88.48735 97.92879 5.66715.0214" fill="#031556" stroke="#000" stroke-width=".265" stroke-dasharray=".529998,.264999"/><path d="M88.52726 100.59451h5.57264v5.27749h-5.57264zM92.03448 95.22678h2.0868v5.27749h-2.0868z" fill="#ececec" stroke="#000" stroke-width=".265"/><path d="m88.48735 103.25375 5.66715.0214" fill="#031556" stroke="#000" stroke-width=".265" stroke-dasharray=".529998,.264999"/><path d="M92.03448 100.5194h2.0868v5.27749h-2.0868z" fill="#031556" stroke="#000" stroke-width=".265"/></g><g transform="translate(-83.91186 -25.66191)"><rect width="20.44441" height="16.16734" x="89.73301" y="89.81335" ry="0" fill="#f3f2ee"/><rect width="6.23016" height="2.54045" x="109.48139" y="96.67059" ry="1.14925" fill="#b54a2e"/><rect width="6.23016" height="2.54045" x="109.48139" y="91.27406" ry="1.14925" fill="#b54a2e"/><rect width="6.23016" height="2.54045" x="109.48139" y="102.00624" ry="1.14925" fill="#b54a2e"/><path d="M111.14149 89.89556h-5.57264v5.27749h5.57264z" fill="#ececec" stroke="#000" stroke-width=".265"/><path d="m111.18141 92.5548-5.66715.02139" fill="#031556" stroke="#000" stroke-width=".265" stroke-dasharray=".529998,.264999"/><path d="M111.16288 95.28468h-5.57264v5.27748h5.57264z" fill="#ececec" stroke="#000" stroke-width=".265"/><path d="M107.65566 89.93417h-2.0868v5.2775h2.0868z" fill="#cc1212" stroke="#000" stroke-width=".265"/><path d="m111.20279 97.94391-5.66715.0214" fill="#031556" stroke="#000" stroke-width=".265" stroke-dasharray=".529998,.264999"/><path d="M111.16288 100.60963h-5.57264v5.27749h5.57264zM107.65566 95.2419h-2.0868v5.27749h2.0868z" fill="#ececec" stroke="#000" stroke-width=".265"/><path d="m111.20279 103.26887-5.66715.0214" fill="#031556" stroke="#000" stroke-width=".265" stroke-dasharray=".529998,.264999"/><path d="M107.65566 100.53452h-2.0868v5.27749h2.0868z" fill="#031556" stroke="#000" stroke-width=".265"/><rect width="6.23016" height="2.54045" x="-90.20876" y="96.65547" ry="1.14925" transform="scale(-1 1)" fill="#b54a2e"/><rect width="6.23016" height="2.54045" x="-90.20876" y="91.25894" ry="1.14925" transform="scale(-1 1)" fill="#b54a2e"/><rect width="6.23016" height="2.54045" x="-90.20876" y="101.99112" ry="1.14925" transform="scale(-1 1)" fill="#b54a2e"/><path d="M88.54865 89.88044h5.57264v5.27749h-5.57264z" fill="#ececec" stroke="#000" stroke-width=".265"/><path d="m88.50873 92.53968 5.66715.02139" fill="#031556" stroke="#000" stroke-width=".265" stroke-dasharray=".529998,.264999"/><path d="M88.52726 95.26955h5.57264v5.27749h-5.57264z" fill="#ececec" stroke="#000" stroke-width=".265"/><path d="M92.03448 89.91905h2.0868v5.27749h-2.0868z" fill="#cc1212" stroke="#000" stroke-width=".265"/><path d="m88.48735 97.92879 5.66715.0214" fill="#031556" stroke="#000" stroke-width=".265" stroke-dasharray=".529998,.264999"/><path d="M88.52726 100.59451h5.57264v5.27749h-5.57264zM92.03448 95.22678h2.0868v5.27749h-2.0868z" fill="#ececec" stroke="#000" stroke-width=".265"/><path d="m88.48735 103.25375 5.66715.0214" fill="#031556" stroke="#000" stroke-width=".265" stroke-dasharray=".529998,.264999"/><path d="M92.03448 100.5194h2.0868v5.27749h-2.0868z" fill="#031556" stroke="#000" stroke-width=".265"/></g><g transform="translate(-83.93324 -9.65496)"><rect width="20.44441" height="16.16734" x="89.73301" y="89.81335" ry="0" fill="#f3f2ee"/><rect width="6.23016" height="2.54045" x="109.48139" y="96.67059" ry="1.14925" fill="#b54a2e"/><rect width="6.23016" height="2.54045" x="109.48139" y="91.27406" ry="1.14925" fill="#b54a2e"/><rect width="6.23016" height="2.54045" x="109.48139" y="102.00624" ry="1.14925" fill="#b54a2e"/><path d="M111.14149 89.89556h-5.57264v5.27749h5.57264z" fill="#ececec" stroke="#000" stroke-width=".265"/><path d="m111.18141 92.5548-5.66715.02139" fill="#031556" stroke="#000" stroke-width=".265" stroke-dasharray=".529998,.264999"/><path d="M111.16288 95.28468h-5.57264v5.27748h5.57264z" fill="#ececec" stroke="#000" stroke-width=".265"/><path d="M107.65566 89.93417h-2.0868v5.2775h2.0868z" fill="#cc1212" stroke="#000" stroke-width=".265"/><path d="m111.20279 97.94391-5.66715.0214" fill="#031556" stroke="#000" stroke-width=".265" stroke-dasharray=".529998,.264999"/><path d="M111.16288 100.60963h-5.57264v5.27749h5.57264zM107.65566 95.2419h-2.0868v5.27749h2.0868z" fill="#ececec" stroke="#000" stroke-width=".265"/><path d="m111.20279 103.26887-5.66715.0214" fill="#031556" stroke="#000" stroke-width=".265" stroke-dasharray=".529998,.264999"/><path d="M107.65566 100.53452h-2.0868v5.27749h2.0868z" fill="#031556" stroke="#000" stroke-width=".265"/><rect width="6.23016" height="2.54045" x="-90.20876" y="96.65547" ry="1.14925" transform="scale(-1 1)" fill="#b54a2e"/><rect width="6.23016" height="2.54045" x="-90.20876" y="91.25894" ry="1.14925" transform="scale(-1 1)" fill="#b54a2e"/><rect width="6.23016" height="2.54045" x="-90.20876" y="101.99112" ry="1.14925" transform="scale(-1 1)" fill="#b54a2e"/><path d="M88.54865 89.88044h5.57264v5.27749h-5.57264z" fill="#ececec" stroke="#000" stroke-width=".265"/><path d="m88.50873 92.53968 5.66715.02139" fill="#031556" stroke="#000" stroke-width=".265" stroke-dasharray=".529998,.264999"/><path d="M88.52726 95.26955h5.57264v5.27749h-5.57264z" fill="#ececec" stroke="#000" stroke-width=".265"/><path d="M92.03448 89.91905h2.0868v5.27749h-2.0868z" fill="#cc1212" stroke="#000" stroke-width=".265"/><path d="m88.48735 97.92879 5.66715.0214" fill="#031556" stroke="#000" stroke-width=".265" stroke-dasharray=".529998,.264999"/><path d="M88.52726 100.59451h5.57264v5.27749h-5.57264zM92.03448 95.22678h2.0868v5.27749h-2.0868z" fill="#ececec" stroke="#000" stroke-width=".265"/><path d="m88.48735 103.25375 5.66715.0214" fill="#031556" stroke="#000" stroke-width=".265" stroke-dasharray=".529998,.264999"/><path d="M92.03448 100.5194h2.0868v5.27749h-2.0868z" fill="#031556" stroke="#000" stroke-width=".265"/></g><g transform="translate(-83.95722 6.3478)"><rect width="20.44441" height="16.16734" x="89.73301" y="89.81335" ry="0" fill="#f3f2ee"/><rect width="6.23016" height="2.54045" x="109.48139" y="96.67059" ry="1.14925" fill="#b54a2e"/><rect width="6.23016" height="2.54045" x="109.48139" y="91.27406" ry="1.14925" fill="#b54a2e"/><rect width="6.23016" height="2.54045" x="109.48139" y="102.00624" ry="1.14925" fill="#b54a2e"/><path d="M111.14149 89.89556h-5.57264v5.27749h5.57264z" fill="#ececec" stroke="#000" stroke-width=".265"/><path d="m111.18141 92.5548-5.66715.02139" fill="#031556" stroke="#000" stroke-width=".265" stroke-dasharray=".529998,.264999"/><path d="M111.16288 95.28468h-5.57264v5.27748h5.57264z" fill="#ececec" stroke="#000" stroke-width=".265"/><path d="M107.65566 89.93417h-2.0868v5.2775h2.0868z" fill="#cc1212" stroke="#000" stroke-width=".265"/><path d="m111.20279 97.94391-5.66715.0214" fill="#031556" stroke="#000" stroke-width=".265" stroke-dasharray=".529998,.264999"/><path d="M111.16288 100.60963h-5.57264v5.27749h5.57264zM107.65566 95.2419h-2.0868v5.27749h2.0868z" fill="#ececec" stroke="#000" stroke-width=".265"/><path d="m111.20279 103.26887-5.66715.0214" fill="#031556" stroke="#000" stroke-width=".265" stroke-dasharray=".529998,.264999"/><path d="M107.65566 100.53452h-2.0868v5.27749h2.0868z" fill="#031556" stroke="#000" stroke-width=".265"/><rect width="6.23016" height="2.54045" x="-90.20876" y="96.65547" ry="1.14925" transform="scale(-1 1)" fill="#b54a2e"/><rect width="6.23016" height="2.54045" x="-90.20876" y="91.25894" ry="1.14925" transform="scale(-1 1)" fill="#b54a2e"/><rect width="6.23016" height="2.54045" x="-90.20876" y="101.99112" ry="1.14925" transform="scale(-1 1)" fill="#b54a2e"/><path d="M88.54865 89.88044h5.57264v5.27749h-5.57264z" fill="#ececec" stroke="#000" stroke-width=".265"/><path d="m88.50873 92.53968 5.66715.02139" fill="#031556" stroke="#000" stroke-width=".265" stroke-dasharray=".529998,.264999"/><path d="M88.52726 95.26955h5.57264v5.27749h-5.57264z" fill="#ececec" stroke="#000" stroke-width=".265"/><path d="M92.03448 89.91905h2.0868v5.27749h-2.0868z" fill="#cc1212" stroke="#000" stroke-width=".265"/><path d="m88.48735 97.92879 5.66715.0214" fill="#031556" stroke="#000" stroke-width=".265" stroke-dasharray=".529998,.264999"/><path d="M88.52726 100.59451h5.57264v5.27749h-5.57264zM92.03448 95.22678h2.0868v5.27749h-2.0868z" fill="#ececec" stroke="#000" stroke-width=".265"/><path d="m88.48735 103.25375 5.66715.0214" fill="#031556" stroke="#000" stroke-width=".265" stroke-dasharray=".529998,.264999"/><path d="M92.03448 100.5194h2.0868v5.27749h-2.0868z" fill="#031556" stroke="#000" stroke-width=".265"/></g><g transform="translate(-83.9786 22.35474)"><rect width="20.44441" height="16.16734" x="89.73301" y="89.81335" ry="0" fill="#f3f2ee"/><rect width="6.23016" height="2.54045" x="109.48139" y="96.67059" ry="1.14925" fill="#b54a2e"/><rect width="6.23016" height="2.54045" x="109.48139" y="91.27406" ry="1.14925" fill="#b54a2e"/><rect width="6.23016" height="2.54045" x="109.48139" y="102.00624" ry="1.14925" fill="#b54a2e"/><path d="M111.14149 89.89556h-5.57264v5.27749h5.57264z" fill="#ececec" stroke="#000" stroke-width=".265"/><path d="m111.18141 92.5548-5.66715.02139" fill="#031556" stroke="#000" stroke-width=".265" stroke-dasharray=".529998,.264999"/><path d="M111.16288 95.28468h-5.57264v5.27748h5.57264z" fill="#ececec" stroke="#000" stroke-width=".265"/><path d="M107.65566 89.93417h-2.0868v5.2775h2.0868z" fill="#cc1212" stroke="#000" stroke-width=".265"/><path d="m111.20279 97.94391-5.66715.0214" fill="#031556" stroke="#000" stroke-width=".265" stroke-dasharray=".529998,.264999"/><path d="M111.16288 100.60963h-5.57264v5.27749h5.57264zM107.65566 95.2419h-2.0868v5.27749h2.0868z" fill="#ececec" stroke="#000" stroke-width=".265"/><path d="m111.20279 103.26887-5.66715.0214" fill="#031556" stroke="#000" stroke-width=".265" stroke-dasharray=".529998,.264999"/><path d="M107.65566 100.53452h-2.0868v5.27749h2.0868z" fill="#031556" stroke="#000" stroke-width=".265"/><rect width="6.23016" height="2.54045" x="-90.20876" y="96.65547" ry="1.14925" transform="scale(-1 1)" fill="#b54a2e"/><rect width="6.23016" height="2.54045" x="-90.20876" y="91.25894" ry="1.14925" transform="scale(-1 1)" fill="#b54a2e"/><rect width="6.23016" height="2.54045" x="-90.20876" y="101.99112" ry="1.14925" transform="scale(-1 1)" fill="#b54a2e"/><path d="M88.54865 89.88044h5.57264v5.27749h-5.57264z" fill="#ececec" stroke="#000" stroke-width=".265"/><path d="m88.50873 92.53968 5.66715.02139" fill="#031556" stroke="#000" stroke-width=".265" stroke-dasharray=".529998,.264999"/><path d="M88.52726 95.26955h5.57264v5.27749h-5.57264z" fill="#ececec" stroke="#000" stroke-width=".265"/><path d="M92.03448 89.91905h2.0868v5.27749h-2.0868z" fill="#cc1212" stroke="#000" stroke-width=".265"/><path d="m88.48735 97.92879 5.66715.0214" fill="#031556" stroke="#000" stroke-width=".265" stroke-dasharray=".529998,.264999"/><path d="M88.52726 100.59451h5.57264v5.27749h-5.57264zM92.03448 95.22678h2.0868v5.27749h-2.0868z" fill="#ececec" stroke="#000" stroke-width=".265"/><path d="m88.48735 103.25375 5.66715.0214" fill="#031556" stroke="#000" stroke-width=".265" stroke-dasharray=".529998,.264999"/><path d="M92.03448 100.5194h2.0868v5.27749h-2.0868z" fill="#031556" stroke="#000" stroke-width=".265"/></g></svg>